<?xml version="1.0" encoding="UTF-8" standalone="no"?>
<!-- Created with Inkscape (http://www.inkscape.org/) -->

<svg
   width="89.80072mm"
   height="50.680119mm"
   viewBox="0 0 89.80072 50.680119"
   version="1.1"
   id="svg1"
   inkscape:version="1.3 (0e150ed6c4, 2023-07-21)"
   sodipodi:docname="OpaqueLayerQty1.svg"
   xmlns:inkscape="http://www.inkscape.org/namespaces/inkscape"
   xmlns:sodipodi="http://sodipodi.sourceforge.net/DTD/sodipodi-0.dtd"
   xmlns="http://www.w3.org/2000/svg"
   xmlns:svg="http://www.w3.org/2000/svg">
  <sodipodi:namedview
     id="namedview1"
     pagecolor="#ffffff"
     bordercolor="#666666"
     borderopacity="1.0"
     inkscape:showpageshadow="2"
     inkscape:pageopacity="0.0"
     inkscape:pagecheckerboard="0"
     inkscape:deskcolor="#d1d1d1"
     inkscape:document-units="mm"
     inkscape:zoom="1.5471036"
     inkscape:cx="298.29935"
     inkscape:cy="133.79841"
     inkscape:window-width="2560"
     inkscape:window-height="1387"
     inkscape:window-x="-8"
     inkscape:window-y="892"
     inkscape:window-maximized="1"
     inkscape:current-layer="layer1" />
  <defs
     id="defs1" />
  <g
     inkscape:label="Layer 1"
     inkscape:groupmode="layer"
     id="layer1"
     transform="translate(-33.874803,-104.19308)">
    <g
       id="g8"
       transform="translate(-2.9022801,-0.84649837)">
      <g
         id="g7">
        <path
           style="fill:none;fill-opacity:1;fill-rule:evenodd;stroke:#0000ff;stroke-width:0.2;stroke-opacity:1"
           d="m 120.134,155.6197 c 3.51435,0 6.3438,-2.82892 6.3438,-6.34328 v -32.11277 c 0,-3.51436 -2.82945,-6.3438 -6.3438,-6.3438 h -8.66885 c -0.97985,-0.12651 -1.87745,-1.09837 -2.22816,-2.1084 -1.16175,-3.34574 -2.60218,-3.57187 -5.15937,-3.57187 -2.55719,0 -4.237766,0.40449 -5.159373,3.57187 -0.29871,1.02662 -1.248311,1.98189 -2.228158,2.1084 h -8.668851 c -3.514356,0 -6.343799,2.82944 -6.343799,6.3438 v 32.11277 c 0,3.51436 2.829443,6.34328 6.343799,6.34328 z"
           id="path14" />
        <path
           id="path7"
           style="fill:none;fill-rule:evenodd;stroke:#ff00ff;stroke-width:0.2;stroke-opacity:1"
           d="m 120.13224,116.16544 c 0,0.55229 0.44771,1 1,1 0.55228,0 1,-0.44771 1,-1 0,-0.55228 -0.44772,-1 -1,-1 -0.55229,0 -1,0.44772 -1,1 z m -14.17556,-6.92475 c 0,-0.5799 -0.4701,-1.05 -1.879,-1.05 -1.4089,0 -1.879,0.4701 -1.879,1.05 0,0.5799 0.4701,1.05 1.879,1.05 1.4089,0 1.879,-0.4701 1.879,-1.05 z m -18.465226,24.38959 c 8.142031,1.28216 14.677646,7.61337 16.266896,15.65363 0.1647,0.15052 0.33376,0.2912 0.69477,0 1.58925,-8.04026 8.12487,-14.37147 16.2669,-15.65363 0.25002,-0.20581 0.14559,-0.323 2.6e-4,-0.42997 -8.26737,-1.30179 -14.87856,-7.80927 -16.33696,-16.02586 -0.15997,-0.25089 -0.34502,-0.25087 -0.55516,0 -1.45841,8.21658 -8.069592,14.72407 -16.336967,16.02586 -0.343692,0.14333 -0.199645,0.28665 2.61e-4,0.42997 z m 33.640786,15.64399 c -0.55228,0 -0.99999,0.44772 -1,1 0,0.55228 0.44772,1 1,1 0.55229,0 1,-0.44772 1,-1 0,-0.55228 -0.44771,-1 -1,-1 z m -35.108824,1 c 0,0.55228 0.44771,1 1,1 0.55228,0 1,-0.44772 1,-1 -1e-5,-0.55228 -0.44772,-1 -1,-1 -0.55229,0 -1,0.44772 -1,1 z m 1.30463,-33.8042 c 0.253841,-0.25384 0.154151,-0.56506 -0.473866,-1.19307 -0.628021,-0.62802 -0.939887,-0.72836 -1.193728,-0.47452 -0.25384,0.25384 -0.154294,0.56549 0.473728,1.19352 0.628016,0.62801 0.940026,0.72791 1.193866,0.47407 z"
           sodipodi:nodetypes="sssssssssscccccccccsssssssssssssss" />
      </g>
      <g
         id="g6">
        <path
           style="fill:none;fill-opacity:1;fill-rule:evenodd;stroke:#0000ff;stroke-width:0.2;stroke-opacity:1"
           d="m 81.677441,149.27642 c 0,3.51436 -2.829443,6.34328 -6.343799,6.34328 h -32.11276 c -3.514356,0 -6.343799,-2.82892 -6.343799,-6.34328 v -32.11277 c 0,-3.51436 2.829443,-6.3438 6.343799,-6.3438 h 32.11276 c 3.514356,0 6.343799,2.82944 6.343799,6.3438"
           id="path16"
           sodipodi:nodetypes="cssssssc" />
        <path
           id="path36"
           style="fill:none;fill-rule:evenodd;stroke:#ff00ff;stroke-width:0.2;stroke-opacity:1"
           d="m 76.026834,116.47007 c -0.253841,-0.25384 -0.154151,-0.56506 0.473866,-1.19307 0.628021,-0.62802 0.939887,-0.72836 1.193728,-0.47452 0.25384,0.25384 0.154294,0.5655 -0.473728,1.19352 -0.628016,0.62801 -0.940026,0.72791 -1.193866,0.47407 z m -32.80419,-0.30463 c 0,0.55229 -0.44771,1 -1,1 -0.55228,0 -1,-0.44771 -1,-1 0,-0.55228 0.44772,-1 1,-1 0.55229,0 1,0.44772 1,1 z m 32.640782,17.46484 c -8.142031,1.28216 -14.677649,7.61337 -16.2669,15.65363 -0.164693,0.15052 -0.333757,0.2912 -0.694762,0 -1.589252,-8.04026 -8.124872,-14.37147 -16.2669,-15.65363 -0.250026,-0.20581 -0.145595,-0.323 -2.62e-4,-0.42997 8.267371,-1.30179 14.878556,-7.80927 16.336962,-16.02586 0.159971,-0.25089 0.34502,-0.25087 0.555159,0 1.458409,8.21658 8.069589,14.72407 16.336964,16.02586 0.343692,0.14333 0.199645,0.28665 -2.61e-4,0.42997 z m -33.640782,15.64399 c 0.55228,0 0.99999,0.44772 1,1 0,0.55228 -0.44772,1 -1,1 -0.55229,0 -1,-0.44772 -1,-1 0,-0.55228 0.44771,-1 1,-1 z m 35.10882,1 c 0,0.55228 -0.44771,1 -1,1 -0.55228,0 -1,-0.44772 -1,-1 1e-5,-0.55228 0.44772,-1 1,-1 0.55229,0 1,0.44772 1,1 z"
           sodipodi:nodetypes="sssssssssscccccccccssssssssss" />
      </g>
    </g>
  </g>
</svg>
