<?xml version="1.0" encoding="UTF-8" standalone="no"?>
<!-- Created with Inkscape (http://www.inkscape.org/) -->

<svg
   width="358.60287mm"
   height="293.63794mm"
   viewBox="0 0 358.60287 293.63794"
   version="1.1"
   id="svg1"
   inkscape:version="1.3 (0e150ed6c4, 2023-07-21)"
   sodipodi:docname="OpaqueLayerQty1.svg"
   xmlns:inkscape="http://www.inkscape.org/namespaces/inkscape"
   xmlns:sodipodi="http://sodipodi.sourceforge.net/DTD/sodipodi-0.dtd"
   xmlns="http://www.w3.org/2000/svg"
   xmlns:svg="http://www.w3.org/2000/svg">
  <sodipodi:namedview
     id="namedview1"
     pagecolor="#ffffff"
     bordercolor="#666666"
     borderopacity="1.0"
     inkscape:showpageshadow="2"
     inkscape:pageopacity="0.0"
     inkscape:pagecheckerboard="0"
     inkscape:deskcolor="#d1d1d1"
     inkscape:document-units="mm"
     inkscape:zoom="0.68709928"
     inkscape:cx="814.2928"
     inkscape:cy="452.62746"
     inkscape:window-width="2560"
     inkscape:window-height="1387"
     inkscape:window-x="-8"
     inkscape:window-y="892"
     inkscape:window-maximized="1"
     inkscape:current-layer="layer1" />
  <defs
     id="defs1" />
  <g
     inkscape:label="Layer 1"
     inkscape:groupmode="layer"
     id="layer1"
     transform="translate(-33.874802,-104.19308)">
    <g
       id="g39">
      <g
         id="g8"
         transform="translate(-2.9022801,-0.84649837)">
        <g
           id="g7">
          <path
             style="fill:none;fill-opacity:1;fill-rule:evenodd;stroke:#0000ff;stroke-width:0.2;stroke-opacity:1"
             d="m 120.134,155.6197 c 3.51435,0 6.3438,-2.82892 6.3438,-6.34328 v -32.11277 c 0,-3.51436 -2.82945,-6.3438 -6.3438,-6.3438 h -8.66885 c -0.97985,-0.12651 -1.87745,-1.09837 -2.22816,-2.1084 -1.16175,-3.34574 -2.60218,-3.57187 -5.15937,-3.57187 -2.55719,0 -4.237766,0.40449 -5.159373,3.57187 -0.29871,1.02662 -1.248311,1.98189 -2.228158,2.1084 h -8.668851 c -3.514356,0 -6.343799,2.82944 -6.343799,6.3438 v 32.11277 c 0,3.51436 2.829443,6.34328 6.343799,6.34328 z"
             id="path14" />
          <path
             id="path7"
             style="fill:none;fill-rule:evenodd;stroke:#ff00ff;stroke-width:0.2;stroke-opacity:1"
             d="m 120.13224,116.16544 c 0,0.55229 0.44771,1 1,1 0.55228,0 1,-0.44771 1,-1 0,-0.55228 -0.44772,-1 -1,-1 -0.55229,0 -1,0.44772 -1,1 z m -14.17556,-6.92475 c 0,-0.5799 -0.4701,-1.05 -1.879,-1.05 -1.4089,0 -1.879,0.4701 -1.879,1.05 0,0.5799 0.4701,1.05 1.879,1.05 1.4089,0 1.879,-0.4701 1.879,-1.05 z m -18.465226,24.38959 c 8.142031,1.28216 14.677646,7.61337 16.266896,15.65363 0.1647,0.15052 0.33376,0.2912 0.69477,0 1.58925,-8.04026 8.12487,-14.37147 16.2669,-15.65363 0.25002,-0.20581 0.14559,-0.323 2.6e-4,-0.42997 -8.26737,-1.30179 -14.87856,-7.80927 -16.33696,-16.02586 -0.15997,-0.25089 -0.34502,-0.25087 -0.55516,0 -1.45841,8.21658 -8.069592,14.72407 -16.336967,16.02586 -0.343692,0.14333 -0.199645,0.28665 2.61e-4,0.42997 z m 33.640786,15.64399 c -0.55228,0 -0.99999,0.44772 -1,1 0,0.55228 0.44772,1 1,1 0.55229,0 1,-0.44772 1,-1 0,-0.55228 -0.44771,-1 -1,-1 z m -35.108824,1 c 0,0.55228 0.44771,1 1,1 0.55228,0 1,-0.44772 1,-1 -1e-5,-0.55228 -0.44772,-1 -1,-1 -0.55229,0 -1,0.44772 -1,1 z m 1.30463,-33.8042 c 0.253841,-0.25384 0.154151,-0.56506 -0.473866,-1.19307 -0.628021,-0.62802 -0.939887,-0.72836 -1.193728,-0.47452 -0.25384,0.25384 -0.154294,0.56549 0.473728,1.19352 0.628016,0.62801 0.940026,0.72791 1.193866,0.47407 z"
             sodipodi:nodetypes="sssssssssscccccccccsssssssssssssss" />
        </g>
        <g
           id="g6">
          <path
             style="fill:none;fill-opacity:1;fill-rule:evenodd;stroke:#0000ff;stroke-width:0.2;stroke-opacity:1"
             d="m 81.677441,149.27642 c 0,3.51436 -2.829443,6.34328 -6.343799,6.34328 h -32.11276 c -3.514356,0 -6.343799,-2.82892 -6.343799,-6.34328 v -32.11277 c 0,-3.51436 2.829443,-6.3438 6.343799,-6.3438 h 32.11276 c 3.514356,0 6.343799,2.82944 6.343799,6.3438"
             id="path16"
             sodipodi:nodetypes="cssssssc" />
          <path
             id="path36"
             style="fill:none;fill-rule:evenodd;stroke:#ff00ff;stroke-width:0.2;stroke-opacity:1"
             d="m 76.026834,116.47007 c -0.253841,-0.25384 -0.154151,-0.56506 0.473866,-1.19307 0.628021,-0.62802 0.939887,-0.72836 1.193728,-0.47452 0.25384,0.25384 0.154294,0.5655 -0.473728,1.19352 -0.628016,0.62801 -0.940026,0.72791 -1.193866,0.47407 z m -32.80419,-0.30463 c 0,0.55229 -0.44771,1 -1,1 -0.55228,0 -1,-0.44771 -1,-1 0,-0.55228 0.44772,-1 1,-1 0.55229,0 1,0.44772 1,1 z m 32.640782,17.46484 c -8.142031,1.28216 -14.677649,7.61337 -16.2669,15.65363 -0.164693,0.15052 -0.333757,0.2912 -0.694762,0 -1.589252,-8.04026 -8.124872,-14.37147 -16.2669,-15.65363 -0.250026,-0.20581 -0.145595,-0.323 -2.62e-4,-0.42997 8.267371,-1.30179 14.878556,-7.80927 16.336962,-16.02586 0.159971,-0.25089 0.34502,-0.25087 0.555159,0 1.458409,8.21658 8.069589,14.72407 16.336964,16.02586 0.343692,0.14333 0.199645,0.28665 -2.61e-4,0.42997 z m -33.640782,15.64399 c 0.55228,0 0.99999,0.44772 1,1 0,0.55228 -0.44772,1 -1,1 -0.55229,0 -1,-0.44772 -1,-1 0,-0.55228 0.44771,-1 1,-1 z m 35.10882,1 c 0,0.55228 -0.44771,1 -1,1 -0.55228,0 -1,-0.44772 -1,-1 1e-5,-0.55228 0.44772,-1 1,-1 0.55229,0 1,0.44772 1,1 z"
             sodipodi:nodetypes="sssssssssscccccccccssssssssss" />
        </g>
      </g>
      <g
         id="g5"
         transform="translate(86.698437,-0.84649837)">
        <g
           id="g2">
          <path
             style="fill:none;fill-opacity:1;fill-rule:evenodd;stroke:#0000ff;stroke-width:0.2;stroke-opacity:1"
             d="m 120.134,155.6197 c 3.51435,0 6.3438,-2.82892 6.3438,-6.34328 v -32.11277 c 0,-3.51436 -2.82945,-6.3438 -6.3438,-6.3438 h -8.66885 c -0.97985,-0.12651 -1.87745,-1.09837 -2.22816,-2.1084 -1.16175,-3.34574 -2.60218,-3.57187 -5.15937,-3.57187 -2.55719,0 -4.237766,0.40449 -5.159373,3.57187 -0.29871,1.02662 -1.248311,1.98189 -2.228158,2.1084 h -8.668851 c -3.514356,0 -6.343799,2.82944 -6.343799,6.3438 v 32.11277 c 0,3.51436 2.829443,6.34328 6.343799,6.34328 z"
             id="path1" />
          <path
             id="path2"
             style="fill:none;fill-rule:evenodd;stroke:#ff00ff;stroke-width:0.2;stroke-opacity:1"
             d="m 120.13224,116.16544 c 0,0.55229 0.44771,1 1,1 0.55228,0 1,-0.44771 1,-1 0,-0.55228 -0.44772,-1 -1,-1 -0.55229,0 -1,0.44772 -1,1 z m -14.17556,-6.92475 c 0,-0.5799 -0.4701,-1.05 -1.879,-1.05 -1.4089,0 -1.879,0.4701 -1.879,1.05 0,0.5799 0.4701,1.05 1.879,1.05 1.4089,0 1.879,-0.4701 1.879,-1.05 z m -18.465226,24.38959 c 8.142031,1.28216 14.677646,7.61337 16.266896,15.65363 0.1647,0.15052 0.33376,0.2912 0.69477,0 1.58925,-8.04026 8.12487,-14.37147 16.2669,-15.65363 0.25002,-0.20581 0.14559,-0.323 2.6e-4,-0.42997 -8.26737,-1.30179 -14.87856,-7.80927 -16.33696,-16.02586 -0.15997,-0.25089 -0.34502,-0.25087 -0.55516,0 -1.45841,8.21658 -8.069592,14.72407 -16.336967,16.02586 -0.343692,0.14333 -0.199645,0.28665 2.61e-4,0.42997 z m 33.640786,15.64399 c -0.55228,0 -0.99999,0.44772 -1,1 0,0.55228 0.44772,1 1,1 0.55229,0 1,-0.44772 1,-1 0,-0.55228 -0.44771,-1 -1,-1 z m -35.108824,1 c 0,0.55228 0.44771,1 1,1 0.55228,0 1,-0.44772 1,-1 -1e-5,-0.55228 -0.44772,-1 -1,-1 -0.55229,0 -1,0.44772 -1,1 z m 1.30463,-33.8042 c 0.253841,-0.25384 0.154151,-0.56506 -0.473866,-1.19307 -0.628021,-0.62802 -0.939887,-0.72836 -1.193728,-0.47452 -0.25384,0.25384 -0.154294,0.56549 0.473728,1.19352 0.628016,0.62801 0.940026,0.72791 1.193866,0.47407 z"
             sodipodi:nodetypes="sssssssssscccccccccsssssssssssssss" />
        </g>
        <g
           id="g4">
          <path
             style="fill:none;fill-opacity:1;fill-rule:evenodd;stroke:#0000ff;stroke-width:0.2;stroke-opacity:1"
             d="m 81.677441,149.27642 c 0,3.51436 -2.829443,6.34328 -6.343799,6.34328 h -32.11276 c -3.514356,0 -6.343799,-2.82892 -6.343799,-6.34328 m 0,-32.11277 c 0,-3.51436 2.829443,-6.3438 6.343799,-6.3438 h 32.11276 c 3.514356,0 6.343799,2.82944 6.343799,6.3438"
             id="path3"
             sodipodi:nodetypes="cssccssc" />
          <path
             id="path4"
             style="fill:none;fill-rule:evenodd;stroke:#ff00ff;stroke-width:0.2;stroke-opacity:1"
             d="m 76.026834,116.47007 c -0.253841,-0.25384 -0.154151,-0.56506 0.473866,-1.19307 0.628021,-0.62802 0.939887,-0.72836 1.193728,-0.47452 0.25384,0.25384 0.154294,0.5655 -0.473728,1.19352 -0.628016,0.62801 -0.940026,0.72791 -1.193866,0.47407 z m -32.80419,-0.30463 c 0,0.55229 -0.44771,1 -1,1 -0.55228,0 -1,-0.44771 -1,-1 0,-0.55228 0.44772,-1 1,-1 0.55229,0 1,0.44772 1,1 z m 32.640782,17.46484 c -8.142031,1.28216 -14.677649,7.61337 -16.2669,15.65363 -0.164693,0.15052 -0.333757,0.2912 -0.694762,0 -1.589252,-8.04026 -8.124872,-14.37147 -16.2669,-15.65363 -0.250026,-0.20581 -0.145595,-0.323 -2.62e-4,-0.42997 8.267371,-1.30179 14.878556,-7.80927 16.336962,-16.02586 0.159971,-0.25089 0.34502,-0.25087 0.555159,0 1.458409,8.21658 8.069589,14.72407 16.336964,16.02586 0.343692,0.14333 0.199645,0.28665 -2.61e-4,0.42997 z m -33.640782,15.64399 c 0.55228,0 0.99999,0.44772 1,1 0,0.55228 -0.44772,1 -1,1 -0.55229,0 -1,-0.44772 -1,-1 0,-0.55228 0.44771,-1 1,-1 z m 35.10882,1 c 0,0.55228 -0.44771,1 -1,1 -0.55228,0 -1,-0.44772 -1,-1 1e-5,-0.55228 0.44772,-1 1,-1 0.55229,0 1,0.44772 1,1 z"
             sodipodi:nodetypes="sssssssssscccccccccssssssssss" />
        </g>
      </g>
      <g
         id="g11"
         transform="translate(176.29915,-0.84649837)">
        <g
           id="g9">
          <path
             style="fill:none;fill-opacity:1;fill-rule:evenodd;stroke:#0000ff;stroke-width:0.2;stroke-opacity:1"
             d="m 120.134,155.6197 c 3.51435,0 6.3438,-2.82892 6.3438,-6.34328 v -32.11277 c 0,-3.51436 -2.82945,-6.3438 -6.3438,-6.3438 h -8.66885 c -0.97985,-0.12651 -1.87745,-1.09837 -2.22816,-2.1084 -1.16175,-3.34574 -2.60218,-3.57187 -5.15937,-3.57187 -2.55719,0 -4.237766,0.40449 -5.159373,3.57187 -0.29871,1.02662 -1.248311,1.98189 -2.228158,2.1084 h -8.668851 c -3.514356,0 -6.343799,2.82944 -6.343799,6.3438 v 32.11277 c 0,3.51436 2.829443,6.34328 6.343799,6.34328 z"
             id="path5" />
          <path
             id="path6"
             style="fill:none;fill-rule:evenodd;stroke:#ff00ff;stroke-width:0.2;stroke-opacity:1"
             d="m 120.13224,116.16544 c 0,0.55229 0.44771,1 1,1 0.55228,0 1,-0.44771 1,-1 0,-0.55228 -0.44772,-1 -1,-1 -0.55229,0 -1,0.44772 -1,1 z m -14.17556,-6.92475 c 0,-0.5799 -0.4701,-1.05 -1.879,-1.05 -1.4089,0 -1.879,0.4701 -1.879,1.05 0,0.5799 0.4701,1.05 1.879,1.05 1.4089,0 1.879,-0.4701 1.879,-1.05 z m -18.465226,24.38959 c 8.142031,1.28216 14.677646,7.61337 16.266896,15.65363 0.1647,0.15052 0.33376,0.2912 0.69477,0 1.58925,-8.04026 8.12487,-14.37147 16.2669,-15.65363 0.25002,-0.20581 0.14559,-0.323 2.6e-4,-0.42997 -8.26737,-1.30179 -14.87856,-7.80927 -16.33696,-16.02586 -0.15997,-0.25089 -0.34502,-0.25087 -0.55516,0 -1.45841,8.21658 -8.069592,14.72407 -16.336967,16.02586 -0.343692,0.14333 -0.199645,0.28665 2.61e-4,0.42997 z m 33.640786,15.64399 c -0.55228,0 -0.99999,0.44772 -1,1 0,0.55228 0.44772,1 1,1 0.55229,0 1,-0.44772 1,-1 0,-0.55228 -0.44771,-1 -1,-1 z m -35.108824,1 c 0,0.55228 0.44771,1 1,1 0.55228,0 1,-0.44772 1,-1 -1e-5,-0.55228 -0.44772,-1 -1,-1 -0.55229,0 -1,0.44772 -1,1 z m 1.30463,-33.8042 c 0.253841,-0.25384 0.154151,-0.56506 -0.473866,-1.19307 -0.628021,-0.62802 -0.939887,-0.72836 -1.193728,-0.47452 -0.25384,0.25384 -0.154294,0.56549 0.473728,1.19352 0.628016,0.62801 0.940026,0.72791 1.193866,0.47407 z"
             sodipodi:nodetypes="sssssssssscccccccccsssssssssssssss" />
        </g>
        <g
           id="g10">
          <path
             style="fill:none;fill-opacity:1;fill-rule:evenodd;stroke:#0000ff;stroke-width:0.2;stroke-opacity:1"
             d="m 81.677441,149.27642 c 0,3.51436 -2.829443,6.34328 -6.343799,6.34328 h -32.11276 c -3.514356,0 -6.343799,-2.82892 -6.343799,-6.34328 m 0,-32.11277 c 0,-3.51436 2.829443,-6.3438 6.343799,-6.3438 h 32.11276 c 3.514356,0 6.343799,2.82944 6.343799,6.3438"
             id="path9"
             sodipodi:nodetypes="cssccssc" />
          <path
             id="path10"
             style="fill:none;fill-rule:evenodd;stroke:#ff00ff;stroke-width:0.2;stroke-opacity:1"
             d="m 76.026834,116.47007 c -0.253841,-0.25384 -0.154151,-0.56506 0.473866,-1.19307 0.628021,-0.62802 0.939887,-0.72836 1.193728,-0.47452 0.25384,0.25384 0.154294,0.5655 -0.473728,1.19352 -0.628016,0.62801 -0.940026,0.72791 -1.193866,0.47407 z m -32.80419,-0.30463 c 0,0.55229 -0.44771,1 -1,1 -0.55228,0 -1,-0.44771 -1,-1 0,-0.55228 0.44772,-1 1,-1 0.55229,0 1,0.44772 1,1 z m 32.640782,17.46484 c -8.142031,1.28216 -14.677649,7.61337 -16.2669,15.65363 -0.164693,0.15052 -0.333757,0.2912 -0.694762,0 -1.589252,-8.04026 -8.124872,-14.37147 -16.2669,-15.65363 -0.250026,-0.20581 -0.145595,-0.323 -2.62e-4,-0.42997 8.267371,-1.30179 14.878556,-7.80927 16.336962,-16.02586 0.159971,-0.25089 0.34502,-0.25087 0.555159,0 1.458409,8.21658 8.069589,14.72407 16.336964,16.02586 0.343692,0.14333 0.199645,0.28665 -2.61e-4,0.42997 z m -33.640782,15.64399 c 0.55228,0 0.99999,0.44772 1,1 0,0.55228 -0.44772,1 -1,1 -0.55229,0 -1,-0.44772 -1,-1 0,-0.55228 0.44771,-1 1,-1 z m 35.10882,1 c 0,0.55228 -0.44771,1 -1,1 -0.55228,0 -1,-0.44772 -1,-1 1e-5,-0.55228 0.44772,-1 1,-1 0.55229,0 1,0.44772 1,1 z"
             sodipodi:nodetypes="sssssssssscccccccccssssssssss" />
        </g>
      </g>
      <g
         id="g16"
         transform="translate(265.89987,-0.84649837)">
        <g
           id="g12">
          <path
             style="fill:none;fill-opacity:1;fill-rule:evenodd;stroke:#0000ff;stroke-width:0.2;stroke-opacity:1"
             d="m 120.134,155.6197 c 3.51435,0 6.3438,-2.82892 6.3438,-6.34328 v -32.11277 c 0,-3.51436 -2.82945,-6.3438 -6.3438,-6.3438 h -8.66885 c -0.97985,-0.12651 -1.87745,-1.09837 -2.22816,-2.1084 -1.16175,-3.34574 -2.60218,-3.57187 -5.15937,-3.57187 -2.55719,0 -4.237766,0.40449 -5.159373,3.57187 -0.29871,1.02662 -1.248311,1.98189 -2.228158,2.1084 h -8.668851 c -3.514356,0 -6.343799,2.82944 -6.343799,6.3438 v 32.11277 c 0,3.51436 2.829443,6.34328 6.343799,6.34328 z"
             id="path11" />
          <path
             id="path12"
             style="fill:none;fill-rule:evenodd;stroke:#ff00ff;stroke-width:0.2;stroke-opacity:1"
             d="m 120.13224,116.16544 c 0,0.55229 0.44771,1 1,1 0.55228,0 1,-0.44771 1,-1 0,-0.55228 -0.44772,-1 -1,-1 -0.55229,0 -1,0.44772 -1,1 z m -14.17556,-6.92475 c 0,-0.5799 -0.4701,-1.05 -1.879,-1.05 -1.4089,0 -1.879,0.4701 -1.879,1.05 0,0.5799 0.4701,1.05 1.879,1.05 1.4089,0 1.879,-0.4701 1.879,-1.05 z m -18.465226,24.38959 c 8.142031,1.28216 14.677646,7.61337 16.266896,15.65363 0.1647,0.15052 0.33376,0.2912 0.69477,0 1.58925,-8.04026 8.12487,-14.37147 16.2669,-15.65363 0.25002,-0.20581 0.14559,-0.323 2.6e-4,-0.42997 -8.26737,-1.30179 -14.87856,-7.80927 -16.33696,-16.02586 -0.15997,-0.25089 -0.34502,-0.25087 -0.55516,0 -1.45841,8.21658 -8.069592,14.72407 -16.336967,16.02586 -0.343692,0.14333 -0.199645,0.28665 2.61e-4,0.42997 z m 33.640786,15.64399 c -0.55228,0 -0.99999,0.44772 -1,1 0,0.55228 0.44772,1 1,1 0.55229,0 1,-0.44772 1,-1 0,-0.55228 -0.44771,-1 -1,-1 z m -35.108824,1 c 0,0.55228 0.44771,1 1,1 0.55228,0 1,-0.44772 1,-1 -1e-5,-0.55228 -0.44772,-1 -1,-1 -0.55229,0 -1,0.44772 -1,1 z m 1.30463,-33.8042 c 0.253841,-0.25384 0.154151,-0.56506 -0.473866,-1.19307 -0.628021,-0.62802 -0.939887,-0.72836 -1.193728,-0.47452 -0.25384,0.25384 -0.154294,0.56549 0.473728,1.19352 0.628016,0.62801 0.940026,0.72791 1.193866,0.47407 z"
             sodipodi:nodetypes="sssssssssscccccccccsssssssssssssss" />
        </g>
        <g
           id="g15">
          <path
             style="fill:none;fill-opacity:1;fill-rule:evenodd;stroke:#0000ff;stroke-width:0.2;stroke-opacity:1"
             d="m 81.677441,149.27642 c 0,3.51436 -2.829443,6.34328 -6.343799,6.34328 h -32.11276 c -3.514356,0 -6.343799,-2.82892 -6.343799,-6.34328 m 0,-32.11277 c 0,-3.51436 2.829443,-6.3438 6.343799,-6.3438 h 32.11276 c 3.514356,0 6.343799,2.82944 6.343799,6.3438"
             id="path13"
             sodipodi:nodetypes="cssccssc" />
          <path
             id="path15"
             style="fill:none;fill-rule:evenodd;stroke:#ff00ff;stroke-width:0.2;stroke-opacity:1"
             d="m 76.026834,116.47007 c -0.253841,-0.25384 -0.154151,-0.56506 0.473866,-1.19307 0.628021,-0.62802 0.939887,-0.72836 1.193728,-0.47452 0.25384,0.25384 0.154294,0.5655 -0.473728,1.19352 -0.628016,0.62801 -0.940026,0.72791 -1.193866,0.47407 z m -32.80419,-0.30463 c 0,0.55229 -0.44771,1 -1,1 -0.55228,0 -1,-0.44771 -1,-1 0,-0.55228 0.44772,-1 1,-1 0.55229,0 1,0.44772 1,1 z m 32.640782,17.46484 c -8.142031,1.28216 -14.677649,7.61337 -16.2669,15.65363 -0.164693,0.15052 -0.333757,0.2912 -0.694762,0 -1.589252,-8.04026 -8.124872,-14.37147 -16.2669,-15.65363 -0.250026,-0.20581 -0.145595,-0.323 -2.62e-4,-0.42997 8.267371,-1.30179 14.878556,-7.80927 16.336962,-16.02586 0.159971,-0.25089 0.34502,-0.25087 0.555159,0 1.458409,8.21658 8.069589,14.72407 16.336964,16.02586 0.343692,0.14333 0.199645,0.28665 -2.61e-4,0.42997 z m -33.640782,15.64399 c 0.55228,0 0.99999,0.44772 1,1 0,0.55228 -0.44772,1 -1,1 -0.55229,0 -1,-0.44772 -1,-1 0,-0.55228 0.44771,-1 1,-1 z m 35.10882,1 c 0,0.55228 -0.44771,1 -1,1 -0.55228,0 -1,-0.44772 -1,-1 1e-5,-0.55228 0.44772,-1 1,-1 0.55229,0 1,0.44772 1,1 z"
             sodipodi:nodetypes="sssssssssscccccccccssssssssss" />
        </g>
      </g>
      <g
         id="g25"
         transform="rotate(180,214.62738,155.19645)">
        <g
           id="g22">
          <path
             style="fill:none;fill-opacity:1;fill-rule:evenodd;stroke:#0000ff;stroke-width:0.2;stroke-opacity:1"
             d="m 120.134,155.6197 c 3.51435,0 6.3438,-2.82892 6.3438,-6.34328 v -32.11277 c 0,-3.51436 -2.82945,-6.3438 -6.3438,-6.3438 h -8.66885 c -0.97985,-0.12651 -1.87745,-1.09837 -2.22816,-2.1084 -1.16175,-3.34574 -2.60218,-3.57187 -5.15937,-3.57187 -2.55719,0 -4.237766,0.40449 -5.159373,3.57187 -0.29871,1.02662 -1.248311,1.98189 -2.228158,2.1084 h -8.668851 c -3.514356,0 -6.343799,2.82944 -6.343799,6.3438 v 32.11277 c 0,3.51436 2.829443,6.34328 6.343799,6.34328"
             id="path21"
             sodipodi:nodetypes="cssscssscsssc" />
          <path
             id="path22"
             style="fill:none;fill-rule:evenodd;stroke:#ff00ff;stroke-width:0.2;stroke-opacity:1"
             d="m 120.13224,116.16544 c 0,0.55229 0.44771,1 1,1 0.55228,0 1,-0.44771 1,-1 0,-0.55228 -0.44772,-1 -1,-1 -0.55229,0 -1,0.44772 -1,1 z m -14.17556,-6.92475 c 0,-0.5799 -0.4701,-1.05 -1.879,-1.05 -1.4089,0 -1.879,0.4701 -1.879,1.05 0,0.5799 0.4701,1.05 1.879,1.05 1.4089,0 1.879,-0.4701 1.879,-1.05 z m -18.465226,24.38959 c 8.142031,1.28216 14.677646,7.61337 16.266896,15.65363 0.1647,0.15052 0.33376,0.2912 0.69477,0 1.58925,-8.04026 8.12487,-14.37147 16.2669,-15.65363 0.25002,-0.20581 0.14559,-0.323 2.6e-4,-0.42997 -8.26737,-1.30179 -14.87856,-7.80927 -16.33696,-16.02586 -0.15997,-0.25089 -0.34502,-0.25087 -0.55516,0 -1.45841,8.21658 -8.069592,14.72407 -16.336967,16.02586 -0.343692,0.14333 -0.199645,0.28665 2.61e-4,0.42997 z m 33.640786,15.64399 c -0.55228,0 -0.99999,0.44772 -1,1 0,0.55228 0.44772,1 1,1 0.55229,0 1,-0.44772 1,-1 0,-0.55228 -0.44771,-1 -1,-1 z m -35.108824,1 c 0,0.55228 0.44771,1 1,1 0.55228,0 1,-0.44772 1,-1 -1e-5,-0.55228 -0.44772,-1 -1,-1 -0.55229,0 -1,0.44772 -1,1 z m 1.30463,-33.8042 c 0.253841,-0.25384 0.154151,-0.56506 -0.473866,-1.19307 -0.628021,-0.62802 -0.939887,-0.72836 -1.193728,-0.47452 -0.25384,0.25384 -0.154294,0.56549 0.473728,1.19352 0.628016,0.62801 0.940026,0.72791 1.193866,0.47407 z"
             sodipodi:nodetypes="sssssssssscccccccccsssssssssssssss" />
        </g>
        <g
           id="g24">
          <path
             style="fill:none;fill-opacity:1;fill-rule:evenodd;stroke:#0000ff;stroke-width:0.2;stroke-opacity:1"
             d="m 81.677441,149.27642 c 0,3.51436 -2.829443,6.34328 -6.343799,6.34328 m -32.11276,0 c -3.514356,0 -6.343799,-2.82892 -6.343799,-6.34328 v -32.11277 c 0,-3.51436 2.829443,-6.3438 6.343799,-6.3438 h 32.11276 c 3.514356,0 6.343799,2.82944 6.343799,6.3438"
             id="path23"
             sodipodi:nodetypes="cccssssc" />
          <path
             id="path24"
             style="fill:none;fill-rule:evenodd;stroke:#ff00ff;stroke-width:0.2;stroke-opacity:1"
             d="m 76.026834,116.47007 c -0.253841,-0.25384 -0.154151,-0.56506 0.473866,-1.19307 0.628021,-0.62802 0.939887,-0.72836 1.193728,-0.47452 0.25384,0.25384 0.154294,0.5655 -0.473728,1.19352 -0.628016,0.62801 -0.940026,0.72791 -1.193866,0.47407 z m -32.80419,-0.30463 c 0,0.55229 -0.44771,1 -1,1 -0.55228,0 -1,-0.44771 -1,-1 0,-0.55228 0.44772,-1 1,-1 0.55229,0 1,0.44772 1,1 z m 32.640782,17.46484 c -8.142031,1.28216 -14.677649,7.61337 -16.2669,15.65363 -0.164693,0.15052 -0.333757,0.2912 -0.694762,0 -1.589252,-8.04026 -8.124872,-14.37147 -16.2669,-15.65363 -0.250026,-0.20581 -0.145595,-0.323 -2.62e-4,-0.42997 8.267371,-1.30179 14.878556,-7.80927 16.336962,-16.02586 0.159971,-0.25089 0.34502,-0.25087 0.555159,0 1.458409,8.21658 8.069589,14.72407 16.336964,16.02586 0.343692,0.14333 0.199645,0.28665 -2.61e-4,0.42997 z m -33.640782,15.64399 c 0.55228,0 0.99999,0.44772 1,1 0,0.55228 -0.44772,1 -1,1 -0.55229,0 -1,-0.44772 -1,-1 0,-0.55228 0.44771,-1 1,-1 z m 35.10882,1 c 0,0.55228 -0.44771,1 -1,1 -0.55228,0 -1,-0.44772 -1,-1 1e-5,-0.55228 0.44772,-1 1,-1 0.55229,0 1,0.44772 1,1 z"
             sodipodi:nodetypes="sssssssssscccccccccssssssssss" />
        </g>
      </g>
      <g
         id="g29"
         transform="rotate(180,169.82702,155.19645)">
        <g
           id="g26">
          <path
             style="fill:none;fill-opacity:1;fill-rule:evenodd;stroke:#0000ff;stroke-width:0.2;stroke-opacity:1"
             d="m 120.134,155.6197 c 3.51435,0 6.3438,-2.82892 6.3438,-6.34328 v -32.11277 c 0,-3.51436 -2.82945,-6.3438 -6.3438,-6.3438 h -8.66885 c -0.97985,-0.12651 -1.87745,-1.09837 -2.22816,-2.1084 -1.16175,-3.34574 -2.60218,-3.57187 -5.15937,-3.57187 -2.55719,0 -4.237766,0.40449 -5.159373,3.57187 -0.29871,1.02662 -1.248311,1.98189 -2.228158,2.1084 h -8.668851 c -3.514356,0 -6.343799,2.82944 -6.343799,6.3438 v 32.11277 c 0,3.51436 2.829443,6.34328 6.343799,6.34328"
             id="path25"
             sodipodi:nodetypes="cssscssscsssc" />
          <path
             id="path26"
             style="fill:none;fill-rule:evenodd;stroke:#ff00ff;stroke-width:0.2;stroke-opacity:1"
             d="m 120.13224,116.16544 c 0,0.55229 0.44771,1 1,1 0.55228,0 1,-0.44771 1,-1 0,-0.55228 -0.44772,-1 -1,-1 -0.55229,0 -1,0.44772 -1,1 z m -14.17556,-6.92475 c 0,-0.5799 -0.4701,-1.05 -1.879,-1.05 -1.4089,0 -1.879,0.4701 -1.879,1.05 0,0.5799 0.4701,1.05 1.879,1.05 1.4089,0 1.879,-0.4701 1.879,-1.05 z m -18.465226,24.38959 c 8.142031,1.28216 14.677646,7.61337 16.266896,15.65363 0.1647,0.15052 0.33376,0.2912 0.69477,0 1.58925,-8.04026 8.12487,-14.37147 16.2669,-15.65363 0.25002,-0.20581 0.14559,-0.323 2.6e-4,-0.42997 -8.26737,-1.30179 -14.87856,-7.80927 -16.33696,-16.02586 -0.15997,-0.25089 -0.34502,-0.25087 -0.55516,0 -1.45841,8.21658 -8.069592,14.72407 -16.336967,16.02586 -0.343692,0.14333 -0.199645,0.28665 2.61e-4,0.42997 z m 33.640786,15.64399 c -0.55228,0 -0.99999,0.44772 -1,1 0,0.55228 0.44772,1 1,1 0.55229,0 1,-0.44772 1,-1 0,-0.55228 -0.44771,-1 -1,-1 z m -35.108824,1 c 0,0.55228 0.44771,1 1,1 0.55228,0 1,-0.44772 1,-1 -1e-5,-0.55228 -0.44772,-1 -1,-1 -0.55229,0 -1,0.44772 -1,1 z m 1.30463,-33.8042 c 0.253841,-0.25384 0.154151,-0.56506 -0.473866,-1.19307 -0.628021,-0.62802 -0.939887,-0.72836 -1.193728,-0.47452 -0.25384,0.25384 -0.154294,0.56549 0.473728,1.19352 0.628016,0.62801 0.940026,0.72791 1.193866,0.47407 z"
             sodipodi:nodetypes="sssssssssscccccccccsssssssssssssss" />
        </g>
        <g
           id="g28">
          <path
             style="fill:none;fill-opacity:1;fill-rule:evenodd;stroke:#0000ff;stroke-width:0.2;stroke-opacity:1"
             d="m 81.677441,149.27642 c 0,3.51436 -2.829443,6.34328 -6.343799,6.34328 m -32.11276,0 c -3.514356,0 -6.343799,-2.82892 -6.343799,-6.34328 m 0,-32.11277 c 0,-3.51436 2.829443,-6.3438 6.343799,-6.3438 h 32.11276 c 3.514356,0 6.343799,2.82944 6.343799,6.3438"
             id="path27"
             sodipodi:nodetypes="cccccssc" />
          <path
             id="path28"
             style="fill:none;fill-rule:evenodd;stroke:#ff00ff;stroke-width:0.2;stroke-opacity:1"
             d="m 76.026834,116.47007 c -0.253841,-0.25384 -0.154151,-0.56506 0.473866,-1.19307 0.628021,-0.62802 0.939887,-0.72836 1.193728,-0.47452 0.25384,0.25384 0.154294,0.5655 -0.473728,1.19352 -0.628016,0.62801 -0.940026,0.72791 -1.193866,0.47407 z m -32.80419,-0.30463 c 0,0.55229 -0.44771,1 -1,1 -0.55228,0 -1,-0.44771 -1,-1 0,-0.55228 0.44772,-1 1,-1 0.55229,0 1,0.44772 1,1 z m 32.640782,17.46484 c -8.142031,1.28216 -14.677649,7.61337 -16.2669,15.65363 -0.164693,0.15052 -0.333757,0.2912 -0.694762,0 -1.589252,-8.04026 -8.124872,-14.37147 -16.2669,-15.65363 -0.250026,-0.20581 -0.145595,-0.323 -2.62e-4,-0.42997 8.267371,-1.30179 14.878556,-7.80927 16.336962,-16.02586 0.159971,-0.25089 0.34502,-0.25087 0.555159,0 1.458409,8.21658 8.069589,14.72407 16.336964,16.02586 0.343692,0.14333 0.199645,0.28665 -2.61e-4,0.42997 z m -33.640782,15.64399 c 0.55228,0 0.99999,0.44772 1,1 0,0.55228 -0.44772,1 -1,1 -0.55229,0 -1,-0.44772 -1,-1 0,-0.55228 0.44771,-1 1,-1 z m 35.10882,1 c 0,0.55228 -0.44771,1 -1,1 -0.55228,0 -1,-0.44772 -1,-1 1e-5,-0.55228 0.44772,-1 1,-1 0.55229,0 1,0.44772 1,1 z"
             sodipodi:nodetypes="sssssssssscccccccccssssssssss" />
        </g>
      </g>
      <g
         id="g33"
         transform="rotate(180,125.02666,155.19645)">
        <g
           id="g30">
          <path
             style="fill:none;fill-opacity:1;fill-rule:evenodd;stroke:#0000ff;stroke-width:0.2;stroke-opacity:1"
             d="m 120.134,155.6197 c 3.51435,0 6.3438,-2.82892 6.3438,-6.34328 v -32.11277 c 0,-3.51436 -2.82945,-6.3438 -6.3438,-6.3438 h -8.66885 c -0.97985,-0.12651 -1.87745,-1.09837 -2.22816,-2.1084 -1.16175,-3.34574 -2.60218,-3.57187 -5.15937,-3.57187 -2.55719,0 -4.237766,0.40449 -5.159373,3.57187 -0.29871,1.02662 -1.248311,1.98189 -2.228158,2.1084 h -8.668851 c -3.514356,0 -6.343799,2.82944 -6.343799,6.3438 v 32.11277 c 0,3.51436 2.829443,6.34328 6.343799,6.34328"
             id="path29"
             sodipodi:nodetypes="cssscssscsssc" />
          <path
             id="path30"
             style="fill:none;fill-rule:evenodd;stroke:#ff00ff;stroke-width:0.2;stroke-opacity:1"
             d="m 120.13224,116.16544 c 0,0.55229 0.44771,1 1,1 0.55228,0 1,-0.44771 1,-1 0,-0.55228 -0.44772,-1 -1,-1 -0.55229,0 -1,0.44772 -1,1 z m -14.17556,-6.92475 c 0,-0.5799 -0.4701,-1.05 -1.879,-1.05 -1.4089,0 -1.879,0.4701 -1.879,1.05 0,0.5799 0.4701,1.05 1.879,1.05 1.4089,0 1.879,-0.4701 1.879,-1.05 z m -18.465226,24.38959 c 8.142031,1.28216 14.677646,7.61337 16.266896,15.65363 0.1647,0.15052 0.33376,0.2912 0.69477,0 1.58925,-8.04026 8.12487,-14.37147 16.2669,-15.65363 0.25002,-0.20581 0.14559,-0.323 2.6e-4,-0.42997 -8.26737,-1.30179 -14.87856,-7.80927 -16.33696,-16.02586 -0.15997,-0.25089 -0.34502,-0.25087 -0.55516,0 -1.45841,8.21658 -8.069592,14.72407 -16.336967,16.02586 -0.343692,0.14333 -0.199645,0.28665 2.61e-4,0.42997 z m 33.640786,15.64399 c -0.55228,0 -0.99999,0.44772 -1,1 0,0.55228 0.44772,1 1,1 0.55229,0 1,-0.44772 1,-1 0,-0.55228 -0.44771,-1 -1,-1 z m -35.108824,1 c 0,0.55228 0.44771,1 1,1 0.55228,0 1,-0.44772 1,-1 -1e-5,-0.55228 -0.44772,-1 -1,-1 -0.55229,0 -1,0.44772 -1,1 z m 1.30463,-33.8042 c 0.253841,-0.25384 0.154151,-0.56506 -0.473866,-1.19307 -0.628021,-0.62802 -0.939887,-0.72836 -1.193728,-0.47452 -0.25384,0.25384 -0.154294,0.56549 0.473728,1.19352 0.628016,0.62801 0.940026,0.72791 1.193866,0.47407 z"
             sodipodi:nodetypes="sssssssssscccccccccsssssssssssssss" />
        </g>
        <g
           id="g32">
          <path
             style="fill:none;fill-opacity:1;fill-rule:evenodd;stroke:#0000ff;stroke-width:0.2;stroke-opacity:1"
             d="m 81.677441,149.27642 c 0,3.51436 -2.829443,6.34328 -6.343799,6.34328 m -32.11276,0 c -3.514356,0 -6.343799,-2.82892 -6.343799,-6.34328 m 0,-32.11277 c 0,-3.51436 2.829443,-6.3438 6.343799,-6.3438 h 32.11276 c 3.514356,0 6.343799,2.82944 6.343799,6.3438"
             id="path31"
             sodipodi:nodetypes="cccccssc" />
          <path
             id="path32"
             style="fill:none;fill-rule:evenodd;stroke:#ff00ff;stroke-width:0.2;stroke-opacity:1"
             d="m 76.026834,116.47007 c -0.253841,-0.25384 -0.154151,-0.56506 0.473866,-1.19307 0.628021,-0.62802 0.939887,-0.72836 1.193728,-0.47452 0.25384,0.25384 0.154294,0.5655 -0.473728,1.19352 -0.628016,0.62801 -0.940026,0.72791 -1.193866,0.47407 z m -32.80419,-0.30463 c 0,0.55229 -0.44771,1 -1,1 -0.55228,0 -1,-0.44771 -1,-1 0,-0.55228 0.44772,-1 1,-1 0.55229,0 1,0.44772 1,1 z m 32.640782,17.46484 c -8.142031,1.28216 -14.677649,7.61337 -16.2669,15.65363 -0.164693,0.15052 -0.333757,0.2912 -0.694762,0 -1.589252,-8.04026 -8.124872,-14.37147 -16.2669,-15.65363 -0.250026,-0.20581 -0.145595,-0.323 -2.62e-4,-0.42997 8.267371,-1.30179 14.878556,-7.80927 16.336962,-16.02586 0.159971,-0.25089 0.34502,-0.25087 0.555159,0 1.458409,8.21658 8.069589,14.72407 16.336964,16.02586 0.343692,0.14333 0.199645,0.28665 -2.61e-4,0.42997 z m -33.640782,15.64399 c 0.55228,0 0.99999,0.44772 1,1 0,0.55228 -0.44772,1 -1,1 -0.55229,0 -1,-0.44772 -1,-1 0,-0.55228 0.44771,-1 1,-1 z m 35.10882,1 c 0,0.55228 -0.44771,1 -1,1 -0.55228,0 -1,-0.44772 -1,-1 1e-5,-0.55228 0.44772,-1 1,-1 0.55229,0 1,0.44772 1,1 z"
             sodipodi:nodetypes="sssssssssscccccccccssssssssss" />
        </g>
      </g>
      <g
         id="g38"
         transform="rotate(180,80.226301,155.19645)">
        <g
           id="g34">
          <path
             style="fill:none;fill-opacity:1;fill-rule:evenodd;stroke:#0000ff;stroke-width:0.2;stroke-opacity:1"
             d="m 120.134,155.6197 c 3.51435,0 6.3438,-2.82892 6.3438,-6.34328 v -32.11277 c 0,-3.51436 -2.82945,-6.3438 -6.3438,-6.3438 h -8.66885 c -0.97985,-0.12651 -1.87745,-1.09837 -2.22816,-2.1084 -1.16175,-3.34574 -2.60218,-3.57187 -5.15937,-3.57187 -2.55719,0 -4.237766,0.40449 -5.159373,3.57187 -0.29871,1.02662 -1.248311,1.98189 -2.228158,2.1084 h -8.668851 c -3.514356,0 -6.343799,2.82944 -6.343799,6.3438 v 32.11277 c 0,3.51436 2.829443,6.34328 6.343799,6.34328"
             id="path33"
             sodipodi:nodetypes="cssscssscsssc" />
          <path
             id="path34"
             style="fill:none;fill-rule:evenodd;stroke:#ff00ff;stroke-width:0.2;stroke-opacity:1"
             d="m 120.13224,116.16544 c 0,0.55229 0.44771,1 1,1 0.55228,0 1,-0.44771 1,-1 0,-0.55228 -0.44772,-1 -1,-1 -0.55229,0 -1,0.44772 -1,1 z m -14.17556,-6.92475 c 0,-0.5799 -0.4701,-1.05 -1.879,-1.05 -1.4089,0 -1.879,0.4701 -1.879,1.05 0,0.5799 0.4701,1.05 1.879,1.05 1.4089,0 1.879,-0.4701 1.879,-1.05 z m -18.465226,24.38959 c 8.142031,1.28216 14.677646,7.61337 16.266896,15.65363 0.1647,0.15052 0.33376,0.2912 0.69477,0 1.58925,-8.04026 8.12487,-14.37147 16.2669,-15.65363 0.25002,-0.20581 0.14559,-0.323 2.6e-4,-0.42997 -8.26737,-1.30179 -14.87856,-7.80927 -16.33696,-16.02586 -0.15997,-0.25089 -0.34502,-0.25087 -0.55516,0 -1.45841,8.21658 -8.069592,14.72407 -16.336967,16.02586 -0.343692,0.14333 -0.199645,0.28665 2.61e-4,0.42997 z m 33.640786,15.64399 c -0.55228,0 -0.99999,0.44772 -1,1 0,0.55228 0.44772,1 1,1 0.55229,0 1,-0.44772 1,-1 0,-0.55228 -0.44771,-1 -1,-1 z m -35.108824,1 c 0,0.55228 0.44771,1 1,1 0.55228,0 1,-0.44772 1,-1 -1e-5,-0.55228 -0.44772,-1 -1,-1 -0.55229,0 -1,0.44772 -1,1 z m 1.30463,-33.8042 c 0.253841,-0.25384 0.154151,-0.56506 -0.473866,-1.19307 -0.628021,-0.62802 -0.939887,-0.72836 -1.193728,-0.47452 -0.25384,0.25384 -0.154294,0.56549 0.473728,1.19352 0.628016,0.62801 0.940026,0.72791 1.193866,0.47407 z"
             sodipodi:nodetypes="sssssssssscccccccccsssssssssssssss" />
        </g>
        <g
           id="g37">
          <path
             style="fill:none;fill-opacity:1;fill-rule:evenodd;stroke:#0000ff;stroke-width:0.2;stroke-opacity:1"
             d="m 81.677441,149.27642 c 0,3.51436 -2.829443,6.34328 -6.343799,6.34328 m -32.11276,0 c -3.514356,0 -6.343799,-2.82892 -6.343799,-6.34328 m 0,-32.11277 c 0,-3.51436 2.829443,-6.3438 6.343799,-6.3438 h 32.11276 c 3.514356,0 6.343799,2.82944 6.343799,6.3438"
             id="path35"
             sodipodi:nodetypes="cccccssc" />
          <path
             id="path37"
             style="fill:none;fill-rule:evenodd;stroke:#ff00ff;stroke-width:0.2;stroke-opacity:1"
             d="m 76.026834,116.47007 c -0.253841,-0.25384 -0.154151,-0.56506 0.473866,-1.19307 0.628021,-0.62802 0.939887,-0.72836 1.193728,-0.47452 0.25384,0.25384 0.154294,0.5655 -0.473728,1.19352 -0.628016,0.62801 -0.940026,0.72791 -1.193866,0.47407 z m -32.80419,-0.30463 c 0,0.55229 -0.44771,1 -1,1 -0.55228,0 -1,-0.44771 -1,-1 0,-0.55228 0.44772,-1 1,-1 0.55229,0 1,0.44772 1,1 z m 32.640782,17.46484 c -8.142031,1.28216 -14.677649,7.61337 -16.2669,15.65363 -0.164693,0.15052 -0.333757,0.2912 -0.694762,0 -1.589252,-8.04026 -8.124872,-14.37147 -16.2669,-15.65363 -0.250026,-0.20581 -0.145595,-0.323 -2.62e-4,-0.42997 8.267371,-1.30179 14.878556,-7.80927 16.336962,-16.02586 0.159971,-0.25089 0.34502,-0.25087 0.555159,0 1.458409,8.21658 8.069589,14.72407 16.336964,16.02586 0.343692,0.14333 0.199645,0.28665 -2.61e-4,0.42997 z m -33.640782,15.64399 c 0.55228,0 0.99999,0.44772 1,1 0,0.55228 -0.44772,1 -1,1 -0.55229,0 -1,-0.44772 -1,-1 0,-0.55228 0.44771,-1 1,-1 z m 35.10882,1 c 0,0.55228 -0.44771,1 -1,1 -0.55228,0 -1,-0.44772 -1,-1 1e-5,-0.55228 0.44772,-1 1,-1 0.55229,0 1,0.44772 1,1 z"
             sodipodi:nodetypes="sssssssssscccccccccssssssssss" />
        </g>
      </g>
    </g>
    <g
       id="g72"
       transform="translate(1.0000004e-7,96.079998)">
      <g
         id="g43"
         transform="translate(-2.9022801,-0.84649837)">
        <g
           id="g40">
          <path
             style="fill:none;fill-opacity:1;fill-rule:evenodd;stroke:#0000ff;stroke-width:0.2;stroke-opacity:1"
             d="m 120.134,155.6197 c 3.51435,0 6.3438,-2.82892 6.3438,-6.34328 v -32.11277 c 0,-3.51436 -2.82945,-6.3438 -6.3438,-6.3438 h -8.66885 c -0.97985,-0.12651 -1.87745,-1.09837 -2.22816,-2.1084 -1.16175,-3.34574 -2.60218,-3.57187 -5.15937,-3.57187 -2.55719,0 -4.237766,0.40449 -5.159373,3.57187 -0.29871,1.02662 -1.248311,1.98189 -2.228158,2.1084 h -8.668851 c -3.514356,0 -6.343799,2.82944 -6.343799,6.3438 v 32.11277 c 0,3.51436 2.829443,6.34328 6.343799,6.34328 z"
             id="path39" />
          <path
             id="path40"
             style="fill:none;fill-rule:evenodd;stroke:#ff00ff;stroke-width:0.2;stroke-opacity:1"
             d="m 120.13224,116.16544 c 0,0.55229 0.44771,1 1,1 0.55228,0 1,-0.44771 1,-1 0,-0.55228 -0.44772,-1 -1,-1 -0.55229,0 -1,0.44772 -1,1 z m -14.17556,-6.92475 c 0,-0.5799 -0.4701,-1.05 -1.879,-1.05 -1.4089,0 -1.879,0.4701 -1.879,1.05 0,0.5799 0.4701,1.05 1.879,1.05 1.4089,0 1.879,-0.4701 1.879,-1.05 z m -18.465226,24.38959 c 8.142031,1.28216 14.677646,7.61337 16.266896,15.65363 0.1647,0.15052 0.33376,0.2912 0.69477,0 1.58925,-8.04026 8.12487,-14.37147 16.2669,-15.65363 0.25002,-0.20581 0.14559,-0.323 2.6e-4,-0.42997 -8.26737,-1.30179 -14.87856,-7.80927 -16.33696,-16.02586 -0.15997,-0.25089 -0.34502,-0.25087 -0.55516,0 -1.45841,8.21658 -8.069592,14.72407 -16.336967,16.02586 -0.343692,0.14333 -0.199645,0.28665 2.61e-4,0.42997 z m 33.640786,15.64399 c -0.55228,0 -0.99999,0.44772 -1,1 0,0.55228 0.44772,1 1,1 0.55229,0 1,-0.44772 1,-1 0,-0.55228 -0.44771,-1 -1,-1 z m -35.108824,1 c 0,0.55228 0.44771,1 1,1 0.55228,0 1,-0.44772 1,-1 -1e-5,-0.55228 -0.44772,-1 -1,-1 -0.55229,0 -1,0.44772 -1,1 z m 1.30463,-33.8042 c 0.253841,-0.25384 0.154151,-0.56506 -0.473866,-1.19307 -0.628021,-0.62802 -0.939887,-0.72836 -1.193728,-0.47452 -0.25384,0.25384 -0.154294,0.56549 0.473728,1.19352 0.628016,0.62801 0.940026,0.72791 1.193866,0.47407 z"
             sodipodi:nodetypes="sssssssssscccccccccsssssssssssssss" />
        </g>
        <g
           id="g42">
          <path
             style="fill:none;fill-opacity:1;fill-rule:evenodd;stroke:#0000ff;stroke-width:0.2;stroke-opacity:1"
             d="m 81.677441,149.27642 c 0,3.51436 -2.829443,6.34328 -6.343799,6.34328 h -32.11276 c -3.514356,0 -6.343799,-2.82892 -6.343799,-6.34328 v -32.11277 c 0,-3.51436 2.829443,-6.3438 6.343799,-6.3438 h 32.11276 c 3.514356,0 6.343799,2.82944 6.343799,6.3438"
             id="path41"
             sodipodi:nodetypes="cssssssc" />
          <path
             id="path42"
             style="fill:none;fill-rule:evenodd;stroke:#ff00ff;stroke-width:0.2;stroke-opacity:1"
             d="m 76.026834,116.47007 c -0.253841,-0.25384 -0.154151,-0.56506 0.473866,-1.19307 0.628021,-0.62802 0.939887,-0.72836 1.193728,-0.47452 0.25384,0.25384 0.154294,0.5655 -0.473728,1.19352 -0.628016,0.62801 -0.940026,0.72791 -1.193866,0.47407 z m -32.80419,-0.30463 c 0,0.55229 -0.44771,1 -1,1 -0.55228,0 -1,-0.44771 -1,-1 0,-0.55228 0.44772,-1 1,-1 0.55229,0 1,0.44772 1,1 z m 32.640782,17.46484 c -8.142031,1.28216 -14.677649,7.61337 -16.2669,15.65363 -0.164693,0.15052 -0.333757,0.2912 -0.694762,0 -1.589252,-8.04026 -8.124872,-14.37147 -16.2669,-15.65363 -0.250026,-0.20581 -0.145595,-0.323 -2.62e-4,-0.42997 8.267371,-1.30179 14.878556,-7.80927 16.336962,-16.02586 0.159971,-0.25089 0.34502,-0.25087 0.555159,0 1.458409,8.21658 8.069589,14.72407 16.336964,16.02586 0.343692,0.14333 0.199645,0.28665 -2.61e-4,0.42997 z m -33.640782,15.64399 c 0.55228,0 0.99999,0.44772 1,1 0,0.55228 -0.44772,1 -1,1 -0.55229,0 -1,-0.44772 -1,-1 0,-0.55228 0.44771,-1 1,-1 z m 35.10882,1 c 0,0.55228 -0.44771,1 -1,1 -0.55228,0 -1,-0.44772 -1,-1 1e-5,-0.55228 0.44772,-1 1,-1 0.55229,0 1,0.44772 1,1 z"
             sodipodi:nodetypes="sssssssssscccccccccssssssssss" />
        </g>
      </g>
      <g
         id="g47"
         transform="translate(86.698437,-0.84649837)">
        <g
           id="g44">
          <path
             style="fill:none;fill-opacity:1;fill-rule:evenodd;stroke:#0000ff;stroke-width:0.2;stroke-opacity:1"
             d="m 120.134,155.6197 c 3.51435,0 6.3438,-2.82892 6.3438,-6.34328 v -32.11277 c 0,-3.51436 -2.82945,-6.3438 -6.3438,-6.3438 h -8.66885 c -0.97985,-0.12651 -1.87745,-1.09837 -2.22816,-2.1084 -1.16175,-3.34574 -2.60218,-3.57187 -5.15937,-3.57187 -2.55719,0 -4.237766,0.40449 -5.159373,3.57187 -0.29871,1.02662 -1.248311,1.98189 -2.228158,2.1084 h -8.668851 c -3.514356,0 -6.343799,2.82944 -6.343799,6.3438 v 32.11277 c 0,3.51436 2.829443,6.34328 6.343799,6.34328 z"
             id="path43" />
          <path
             id="path44"
             style="fill:none;fill-rule:evenodd;stroke:#ff00ff;stroke-width:0.2;stroke-opacity:1"
             d="m 120.13224,116.16544 c 0,0.55229 0.44771,1 1,1 0.55228,0 1,-0.44771 1,-1 0,-0.55228 -0.44772,-1 -1,-1 -0.55229,0 -1,0.44772 -1,1 z m -14.17556,-6.92475 c 0,-0.5799 -0.4701,-1.05 -1.879,-1.05 -1.4089,0 -1.879,0.4701 -1.879,1.05 0,0.5799 0.4701,1.05 1.879,1.05 1.4089,0 1.879,-0.4701 1.879,-1.05 z m -18.465226,24.38959 c 8.142031,1.28216 14.677646,7.61337 16.266896,15.65363 0.1647,0.15052 0.33376,0.2912 0.69477,0 1.58925,-8.04026 8.12487,-14.37147 16.2669,-15.65363 0.25002,-0.20581 0.14559,-0.323 2.6e-4,-0.42997 -8.26737,-1.30179 -14.87856,-7.80927 -16.33696,-16.02586 -0.15997,-0.25089 -0.34502,-0.25087 -0.55516,0 -1.45841,8.21658 -8.069592,14.72407 -16.336967,16.02586 -0.343692,0.14333 -0.199645,0.28665 2.61e-4,0.42997 z m 33.640786,15.64399 c -0.55228,0 -0.99999,0.44772 -1,1 0,0.55228 0.44772,1 1,1 0.55229,0 1,-0.44772 1,-1 0,-0.55228 -0.44771,-1 -1,-1 z m -35.108824,1 c 0,0.55228 0.44771,1 1,1 0.55228,0 1,-0.44772 1,-1 -1e-5,-0.55228 -0.44772,-1 -1,-1 -0.55229,0 -1,0.44772 -1,1 z m 1.30463,-33.8042 c 0.253841,-0.25384 0.154151,-0.56506 -0.473866,-1.19307 -0.628021,-0.62802 -0.939887,-0.72836 -1.193728,-0.47452 -0.25384,0.25384 -0.154294,0.56549 0.473728,1.19352 0.628016,0.62801 0.940026,0.72791 1.193866,0.47407 z"
             sodipodi:nodetypes="sssssssssscccccccccsssssssssssssss" />
        </g>
        <g
           id="g46">
          <path
             style="fill:none;fill-opacity:1;fill-rule:evenodd;stroke:#0000ff;stroke-width:0.2;stroke-opacity:1"
             d="m 81.677441,149.27642 c 0,3.51436 -2.829443,6.34328 -6.343799,6.34328 h -32.11276 c -3.514356,0 -6.343799,-2.82892 -6.343799,-6.34328 m 0,-32.11277 c 0,-3.51436 2.829443,-6.3438 6.343799,-6.3438 h 32.11276 c 3.514356,0 6.343799,2.82944 6.343799,6.3438"
             id="path45"
             sodipodi:nodetypes="cssccssc" />
          <path
             id="path46"
             style="fill:none;fill-rule:evenodd;stroke:#ff00ff;stroke-width:0.2;stroke-opacity:1"
             d="m 76.026834,116.47007 c -0.253841,-0.25384 -0.154151,-0.56506 0.473866,-1.19307 0.628021,-0.62802 0.939887,-0.72836 1.193728,-0.47452 0.25384,0.25384 0.154294,0.5655 -0.473728,1.19352 -0.628016,0.62801 -0.940026,0.72791 -1.193866,0.47407 z m -32.80419,-0.30463 c 0,0.55229 -0.44771,1 -1,1 -0.55228,0 -1,-0.44771 -1,-1 0,-0.55228 0.44772,-1 1,-1 0.55229,0 1,0.44772 1,1 z m 32.640782,17.46484 c -8.142031,1.28216 -14.677649,7.61337 -16.2669,15.65363 -0.164693,0.15052 -0.333757,0.2912 -0.694762,0 -1.589252,-8.04026 -8.124872,-14.37147 -16.2669,-15.65363 -0.250026,-0.20581 -0.145595,-0.323 -2.62e-4,-0.42997 8.267371,-1.30179 14.878556,-7.80927 16.336962,-16.02586 0.159971,-0.25089 0.34502,-0.25087 0.555159,0 1.458409,8.21658 8.069589,14.72407 16.336964,16.02586 0.343692,0.14333 0.199645,0.28665 -2.61e-4,0.42997 z m -33.640782,15.64399 c 0.55228,0 0.99999,0.44772 1,1 0,0.55228 -0.44772,1 -1,1 -0.55229,0 -1,-0.44772 -1,-1 0,-0.55228 0.44771,-1 1,-1 z m 35.10882,1 c 0,0.55228 -0.44771,1 -1,1 -0.55228,0 -1,-0.44772 -1,-1 1e-5,-0.55228 0.44772,-1 1,-1 0.55229,0 1,0.44772 1,1 z"
             sodipodi:nodetypes="sssssssssscccccccccssssssssss" />
        </g>
      </g>
      <g
         id="g51"
         transform="translate(176.29915,-0.84649837)">
        <g
           id="g48">
          <path
             style="fill:none;fill-opacity:1;fill-rule:evenodd;stroke:#0000ff;stroke-width:0.2;stroke-opacity:1"
             d="m 120.134,155.6197 c 3.51435,0 6.3438,-2.82892 6.3438,-6.34328 v -32.11277 c 0,-3.51436 -2.82945,-6.3438 -6.3438,-6.3438 h -8.66885 c -0.97985,-0.12651 -1.87745,-1.09837 -2.22816,-2.1084 -1.16175,-3.34574 -2.60218,-3.57187 -5.15937,-3.57187 -2.55719,0 -4.237766,0.40449 -5.159373,3.57187 -0.29871,1.02662 -1.248311,1.98189 -2.228158,2.1084 h -8.668851 c -3.514356,0 -6.343799,2.82944 -6.343799,6.3438 v 32.11277 c 0,3.51436 2.829443,6.34328 6.343799,6.34328 z"
             id="path47" />
          <path
             id="path48"
             style="fill:none;fill-rule:evenodd;stroke:#ff00ff;stroke-width:0.2;stroke-opacity:1"
             d="m 120.13224,116.16544 c 0,0.55229 0.44771,1 1,1 0.55228,0 1,-0.44771 1,-1 0,-0.55228 -0.44772,-1 -1,-1 -0.55229,0 -1,0.44772 -1,1 z m -14.17556,-6.92475 c 0,-0.5799 -0.4701,-1.05 -1.879,-1.05 -1.4089,0 -1.879,0.4701 -1.879,1.05 0,0.5799 0.4701,1.05 1.879,1.05 1.4089,0 1.879,-0.4701 1.879,-1.05 z m -18.465226,24.38959 c 8.142031,1.28216 14.677646,7.61337 16.266896,15.65363 0.1647,0.15052 0.33376,0.2912 0.69477,0 1.58925,-8.04026 8.12487,-14.37147 16.2669,-15.65363 0.25002,-0.20581 0.14559,-0.323 2.6e-4,-0.42997 -8.26737,-1.30179 -14.87856,-7.80927 -16.33696,-16.02586 -0.15997,-0.25089 -0.34502,-0.25087 -0.55516,0 -1.45841,8.21658 -8.069592,14.72407 -16.336967,16.02586 -0.343692,0.14333 -0.199645,0.28665 2.61e-4,0.42997 z m 33.640786,15.64399 c -0.55228,0 -0.99999,0.44772 -1,1 0,0.55228 0.44772,1 1,1 0.55229,0 1,-0.44772 1,-1 0,-0.55228 -0.44771,-1 -1,-1 z m -35.108824,1 c 0,0.55228 0.44771,1 1,1 0.55228,0 1,-0.44772 1,-1 -1e-5,-0.55228 -0.44772,-1 -1,-1 -0.55229,0 -1,0.44772 -1,1 z m 1.30463,-33.8042 c 0.253841,-0.25384 0.154151,-0.56506 -0.473866,-1.19307 -0.628021,-0.62802 -0.939887,-0.72836 -1.193728,-0.47452 -0.25384,0.25384 -0.154294,0.56549 0.473728,1.19352 0.628016,0.62801 0.940026,0.72791 1.193866,0.47407 z"
             sodipodi:nodetypes="sssssssssscccccccccsssssssssssssss" />
        </g>
        <g
           id="g50">
          <path
             style="fill:none;fill-opacity:1;fill-rule:evenodd;stroke:#0000ff;stroke-width:0.2;stroke-opacity:1"
             d="m 81.677441,149.27642 c 0,3.51436 -2.829443,6.34328 -6.343799,6.34328 h -32.11276 c -3.514356,0 -6.343799,-2.82892 -6.343799,-6.34328 m 0,-32.11277 c 0,-3.51436 2.829443,-6.3438 6.343799,-6.3438 h 32.11276 c 3.514356,0 6.343799,2.82944 6.343799,6.3438"
             id="path49"
             sodipodi:nodetypes="cssccssc" />
          <path
             id="path50"
             style="fill:none;fill-rule:evenodd;stroke:#ff00ff;stroke-width:0.2;stroke-opacity:1"
             d="m 76.026834,116.47007 c -0.253841,-0.25384 -0.154151,-0.56506 0.473866,-1.19307 0.628021,-0.62802 0.939887,-0.72836 1.193728,-0.47452 0.25384,0.25384 0.154294,0.5655 -0.473728,1.19352 -0.628016,0.62801 -0.940026,0.72791 -1.193866,0.47407 z m -32.80419,-0.30463 c 0,0.55229 -0.44771,1 -1,1 -0.55228,0 -1,-0.44771 -1,-1 0,-0.55228 0.44772,-1 1,-1 0.55229,0 1,0.44772 1,1 z m 32.640782,17.46484 c -8.142031,1.28216 -14.677649,7.61337 -16.2669,15.65363 -0.164693,0.15052 -0.333757,0.2912 -0.694762,0 -1.589252,-8.04026 -8.124872,-14.37147 -16.2669,-15.65363 -0.250026,-0.20581 -0.145595,-0.323 -2.62e-4,-0.42997 8.267371,-1.30179 14.878556,-7.80927 16.336962,-16.02586 0.159971,-0.25089 0.34502,-0.25087 0.555159,0 1.458409,8.21658 8.069589,14.72407 16.336964,16.02586 0.343692,0.14333 0.199645,0.28665 -2.61e-4,0.42997 z m -33.640782,15.64399 c 0.55228,0 0.99999,0.44772 1,1 0,0.55228 -0.44772,1 -1,1 -0.55229,0 -1,-0.44772 -1,-1 0,-0.55228 0.44771,-1 1,-1 z m 35.10882,1 c 0,0.55228 -0.44771,1 -1,1 -0.55228,0 -1,-0.44772 -1,-1 1e-5,-0.55228 0.44772,-1 1,-1 0.55229,0 1,0.44772 1,1 z"
             sodipodi:nodetypes="sssssssssscccccccccssssssssss" />
        </g>
      </g>
      <g
         id="g55"
         transform="translate(265.89987,-0.84649837)">
        <g
           id="g52">
          <path
             style="fill:none;fill-opacity:1;fill-rule:evenodd;stroke:#0000ff;stroke-width:0.2;stroke-opacity:1"
             d="m 120.134,155.6197 c 3.51435,0 6.3438,-2.82892 6.3438,-6.34328 v -32.11277 c 0,-3.51436 -2.82945,-6.3438 -6.3438,-6.3438 h -8.66885 c -0.97985,-0.12651 -1.87745,-1.09837 -2.22816,-2.1084 -1.16175,-3.34574 -2.60218,-3.57187 -5.15937,-3.57187 -2.55719,0 -4.237766,0.40449 -5.159373,3.57187 -0.29871,1.02662 -1.248311,1.98189 -2.228158,2.1084 h -8.668851 c -3.514356,0 -6.343799,2.82944 -6.343799,6.3438 v 32.11277 c 0,3.51436 2.829443,6.34328 6.343799,6.34328 z"
             id="path51" />
          <path
             id="path52"
             style="fill:none;fill-rule:evenodd;stroke:#ff00ff;stroke-width:0.2;stroke-opacity:1"
             d="m 120.13224,116.16544 c 0,0.55229 0.44771,1 1,1 0.55228,0 1,-0.44771 1,-1 0,-0.55228 -0.44772,-1 -1,-1 -0.55229,0 -1,0.44772 -1,1 z m -14.17556,-6.92475 c 0,-0.5799 -0.4701,-1.05 -1.879,-1.05 -1.4089,0 -1.879,0.4701 -1.879,1.05 0,0.5799 0.4701,1.05 1.879,1.05 1.4089,0 1.879,-0.4701 1.879,-1.05 z m -18.465226,24.38959 c 8.142031,1.28216 14.677646,7.61337 16.266896,15.65363 0.1647,0.15052 0.33376,0.2912 0.69477,0 1.58925,-8.04026 8.12487,-14.37147 16.2669,-15.65363 0.25002,-0.20581 0.14559,-0.323 2.6e-4,-0.42997 -8.26737,-1.30179 -14.87856,-7.80927 -16.33696,-16.02586 -0.15997,-0.25089 -0.34502,-0.25087 -0.55516,0 -1.45841,8.21658 -8.069592,14.72407 -16.336967,16.02586 -0.343692,0.14333 -0.199645,0.28665 2.61e-4,0.42997 z m 33.640786,15.64399 c -0.55228,0 -0.99999,0.44772 -1,1 0,0.55228 0.44772,1 1,1 0.55229,0 1,-0.44772 1,-1 0,-0.55228 -0.44771,-1 -1,-1 z m -35.108824,1 c 0,0.55228 0.44771,1 1,1 0.55228,0 1,-0.44772 1,-1 -1e-5,-0.55228 -0.44772,-1 -1,-1 -0.55229,0 -1,0.44772 -1,1 z m 1.30463,-33.8042 c 0.253841,-0.25384 0.154151,-0.56506 -0.473866,-1.19307 -0.628021,-0.62802 -0.939887,-0.72836 -1.193728,-0.47452 -0.25384,0.25384 -0.154294,0.56549 0.473728,1.19352 0.628016,0.62801 0.940026,0.72791 1.193866,0.47407 z"
             sodipodi:nodetypes="sssssssssscccccccccsssssssssssssss" />
        </g>
        <g
           id="g54">
          <path
             style="fill:none;fill-opacity:1;fill-rule:evenodd;stroke:#0000ff;stroke-width:0.2;stroke-opacity:1"
             d="m 81.677441,149.27642 c 0,3.51436 -2.829443,6.34328 -6.343799,6.34328 h -32.11276 c -3.514356,0 -6.343799,-2.82892 -6.343799,-6.34328 m 0,-32.11277 c 0,-3.51436 2.829443,-6.3438 6.343799,-6.3438 h 32.11276 c 3.514356,0 6.343799,2.82944 6.343799,6.3438"
             id="path53"
             sodipodi:nodetypes="cssccssc" />
          <path
             id="path54"
             style="fill:none;fill-rule:evenodd;stroke:#ff00ff;stroke-width:0.2;stroke-opacity:1"
             d="m 76.026834,116.47007 c -0.253841,-0.25384 -0.154151,-0.56506 0.473866,-1.19307 0.628021,-0.62802 0.939887,-0.72836 1.193728,-0.47452 0.25384,0.25384 0.154294,0.5655 -0.473728,1.19352 -0.628016,0.62801 -0.940026,0.72791 -1.193866,0.47407 z m -32.80419,-0.30463 c 0,0.55229 -0.44771,1 -1,1 -0.55228,0 -1,-0.44771 -1,-1 0,-0.55228 0.44772,-1 1,-1 0.55229,0 1,0.44772 1,1 z m 32.640782,17.46484 c -8.142031,1.28216 -14.677649,7.61337 -16.2669,15.65363 -0.164693,0.15052 -0.333757,0.2912 -0.694762,0 -1.589252,-8.04026 -8.124872,-14.37147 -16.2669,-15.65363 -0.250026,-0.20581 -0.145595,-0.323 -2.62e-4,-0.42997 8.267371,-1.30179 14.878556,-7.80927 16.336962,-16.02586 0.159971,-0.25089 0.34502,-0.25087 0.555159,0 1.458409,8.21658 8.069589,14.72407 16.336964,16.02586 0.343692,0.14333 0.199645,0.28665 -2.61e-4,0.42997 z m -33.640782,15.64399 c 0.55228,0 0.99999,0.44772 1,1 0,0.55228 -0.44772,1 -1,1 -0.55229,0 -1,-0.44772 -1,-1 0,-0.55228 0.44771,-1 1,-1 z m 35.10882,1 c 0,0.55228 -0.44771,1 -1,1 -0.55228,0 -1,-0.44772 -1,-1 1e-5,-0.55228 0.44772,-1 1,-1 0.55229,0 1,0.44772 1,1 z"
             sodipodi:nodetypes="sssssssssscccccccccssssssssss" />
        </g>
      </g>
      <g
         id="g59"
         transform="rotate(180,214.62738,155.19645)">
        <g
           id="g56">
          <path
             style="fill:none;fill-opacity:1;fill-rule:evenodd;stroke:#0000ff;stroke-width:0.2;stroke-opacity:1"
             d="m 120.134,155.6197 c 3.51435,0 6.3438,-2.82892 6.3438,-6.34328 v -32.11277 c 0,-3.51436 -2.82945,-6.3438 -6.3438,-6.3438 h -8.66885 c -0.97985,-0.12651 -1.87745,-1.09837 -2.22816,-2.1084 -1.16175,-3.34574 -2.60218,-3.57187 -5.15937,-3.57187 -2.55719,0 -4.237766,0.40449 -5.159373,3.57187 -0.29871,1.02662 -1.248311,1.98189 -2.228158,2.1084 h -8.668851 c -3.514356,0 -6.343799,2.82944 -6.343799,6.3438 v 32.11277 c 0,3.51436 2.829443,6.34328 6.343799,6.34328"
             id="path55"
             sodipodi:nodetypes="cssscssscsssc" />
          <path
             id="path56"
             style="fill:none;fill-rule:evenodd;stroke:#ff00ff;stroke-width:0.2;stroke-opacity:1"
             d="m 120.13224,116.16544 c 0,0.55229 0.44771,1 1,1 0.55228,0 1,-0.44771 1,-1 0,-0.55228 -0.44772,-1 -1,-1 -0.55229,0 -1,0.44772 -1,1 z m -14.17556,-6.92475 c 0,-0.5799 -0.4701,-1.05 -1.879,-1.05 -1.4089,0 -1.879,0.4701 -1.879,1.05 0,0.5799 0.4701,1.05 1.879,1.05 1.4089,0 1.879,-0.4701 1.879,-1.05 z m -18.465226,24.38959 c 8.142031,1.28216 14.677646,7.61337 16.266896,15.65363 0.1647,0.15052 0.33376,0.2912 0.69477,0 1.58925,-8.04026 8.12487,-14.37147 16.2669,-15.65363 0.25002,-0.20581 0.14559,-0.323 2.6e-4,-0.42997 -8.26737,-1.30179 -14.87856,-7.80927 -16.33696,-16.02586 -0.15997,-0.25089 -0.34502,-0.25087 -0.55516,0 -1.45841,8.21658 -8.069592,14.72407 -16.336967,16.02586 -0.343692,0.14333 -0.199645,0.28665 2.61e-4,0.42997 z m 33.640786,15.64399 c -0.55228,0 -0.99999,0.44772 -1,1 0,0.55228 0.44772,1 1,1 0.55229,0 1,-0.44772 1,-1 0,-0.55228 -0.44771,-1 -1,-1 z m -35.108824,1 c 0,0.55228 0.44771,1 1,1 0.55228,0 1,-0.44772 1,-1 -1e-5,-0.55228 -0.44772,-1 -1,-1 -0.55229,0 -1,0.44772 -1,1 z m 1.30463,-33.8042 c 0.253841,-0.25384 0.154151,-0.56506 -0.473866,-1.19307 -0.628021,-0.62802 -0.939887,-0.72836 -1.193728,-0.47452 -0.25384,0.25384 -0.154294,0.56549 0.473728,1.19352 0.628016,0.62801 0.940026,0.72791 1.193866,0.47407 z"
             sodipodi:nodetypes="sssssssssscccccccccsssssssssssssss" />
        </g>
        <g
           id="g58">
          <path
             style="fill:none;fill-opacity:1;fill-rule:evenodd;stroke:#0000ff;stroke-width:0.2;stroke-opacity:1"
             d="m 81.677441,149.27642 c 0,3.51436 -2.829443,6.34328 -6.343799,6.34328 m -32.11276,0 c -3.514356,0 -6.343799,-2.82892 -6.343799,-6.34328 v -32.11277 c 0,-3.51436 2.829443,-6.3438 6.343799,-6.3438 h 32.11276 c 3.514356,0 6.343799,2.82944 6.343799,6.3438"
             id="path57"
             sodipodi:nodetypes="cccssssc" />
          <path
             id="path58"
             style="fill:none;fill-rule:evenodd;stroke:#ff00ff;stroke-width:0.2;stroke-opacity:1"
             d="m 76.026834,116.47007 c -0.253841,-0.25384 -0.154151,-0.56506 0.473866,-1.19307 0.628021,-0.62802 0.939887,-0.72836 1.193728,-0.47452 0.25384,0.25384 0.154294,0.5655 -0.473728,1.19352 -0.628016,0.62801 -0.940026,0.72791 -1.193866,0.47407 z m -32.80419,-0.30463 c 0,0.55229 -0.44771,1 -1,1 -0.55228,0 -1,-0.44771 -1,-1 0,-0.55228 0.44772,-1 1,-1 0.55229,0 1,0.44772 1,1 z m 32.640782,17.46484 c -8.142031,1.28216 -14.677649,7.61337 -16.2669,15.65363 -0.164693,0.15052 -0.333757,0.2912 -0.694762,0 -1.589252,-8.04026 -8.124872,-14.37147 -16.2669,-15.65363 -0.250026,-0.20581 -0.145595,-0.323 -2.62e-4,-0.42997 8.267371,-1.30179 14.878556,-7.80927 16.336962,-16.02586 0.159971,-0.25089 0.34502,-0.25087 0.555159,0 1.458409,8.21658 8.069589,14.72407 16.336964,16.02586 0.343692,0.14333 0.199645,0.28665 -2.61e-4,0.42997 z m -33.640782,15.64399 c 0.55228,0 0.99999,0.44772 1,1 0,0.55228 -0.44772,1 -1,1 -0.55229,0 -1,-0.44772 -1,-1 0,-0.55228 0.44771,-1 1,-1 z m 35.10882,1 c 0,0.55228 -0.44771,1 -1,1 -0.55228,0 -1,-0.44772 -1,-1 1e-5,-0.55228 0.44772,-1 1,-1 0.55229,0 1,0.44772 1,1 z"
             sodipodi:nodetypes="sssssssssscccccccccssssssssss" />
        </g>
      </g>
      <g
         id="g63"
         transform="rotate(180,169.82702,155.19645)">
        <g
           id="g60">
          <path
             style="fill:none;fill-opacity:1;fill-rule:evenodd;stroke:#0000ff;stroke-width:0.2;stroke-opacity:1"
             d="m 120.134,155.6197 c 3.51435,0 6.3438,-2.82892 6.3438,-6.34328 v -32.11277 c 0,-3.51436 -2.82945,-6.3438 -6.3438,-6.3438 h -8.66885 c -0.97985,-0.12651 -1.87745,-1.09837 -2.22816,-2.1084 -1.16175,-3.34574 -2.60218,-3.57187 -5.15937,-3.57187 -2.55719,0 -4.237766,0.40449 -5.159373,3.57187 -0.29871,1.02662 -1.248311,1.98189 -2.228158,2.1084 h -8.668851 c -3.514356,0 -6.343799,2.82944 -6.343799,6.3438 v 32.11277 c 0,3.51436 2.829443,6.34328 6.343799,6.34328"
             id="path59"
             sodipodi:nodetypes="cssscssscsssc" />
          <path
             id="path60"
             style="fill:none;fill-rule:evenodd;stroke:#ff00ff;stroke-width:0.2;stroke-opacity:1"
             d="m 120.13224,116.16544 c 0,0.55229 0.44771,1 1,1 0.55228,0 1,-0.44771 1,-1 0,-0.55228 -0.44772,-1 -1,-1 -0.55229,0 -1,0.44772 -1,1 z m -14.17556,-6.92475 c 0,-0.5799 -0.4701,-1.05 -1.879,-1.05 -1.4089,0 -1.879,0.4701 -1.879,1.05 0,0.5799 0.4701,1.05 1.879,1.05 1.4089,0 1.879,-0.4701 1.879,-1.05 z m -18.465226,24.38959 c 8.142031,1.28216 14.677646,7.61337 16.266896,15.65363 0.1647,0.15052 0.33376,0.2912 0.69477,0 1.58925,-8.04026 8.12487,-14.37147 16.2669,-15.65363 0.25002,-0.20581 0.14559,-0.323 2.6e-4,-0.42997 -8.26737,-1.30179 -14.87856,-7.80927 -16.33696,-16.02586 -0.15997,-0.25089 -0.34502,-0.25087 -0.55516,0 -1.45841,8.21658 -8.069592,14.72407 -16.336967,16.02586 -0.343692,0.14333 -0.199645,0.28665 2.61e-4,0.42997 z m 33.640786,15.64399 c -0.55228,0 -0.99999,0.44772 -1,1 0,0.55228 0.44772,1 1,1 0.55229,0 1,-0.44772 1,-1 0,-0.55228 -0.44771,-1 -1,-1 z m -35.108824,1 c 0,0.55228 0.44771,1 1,1 0.55228,0 1,-0.44772 1,-1 -1e-5,-0.55228 -0.44772,-1 -1,-1 -0.55229,0 -1,0.44772 -1,1 z m 1.30463,-33.8042 c 0.253841,-0.25384 0.154151,-0.56506 -0.473866,-1.19307 -0.628021,-0.62802 -0.939887,-0.72836 -1.193728,-0.47452 -0.25384,0.25384 -0.154294,0.56549 0.473728,1.19352 0.628016,0.62801 0.940026,0.72791 1.193866,0.47407 z"
             sodipodi:nodetypes="sssssssssscccccccccsssssssssssssss" />
        </g>
        <g
           id="g62">
          <path
             style="fill:none;fill-opacity:1;fill-rule:evenodd;stroke:#0000ff;stroke-width:0.2;stroke-opacity:1"
             d="m 81.677441,149.27642 c 0,3.51436 -2.829443,6.34328 -6.343799,6.34328 m -32.11276,0 c -3.514356,0 -6.343799,-2.82892 -6.343799,-6.34328 m 0,-32.11277 c 0,-3.51436 2.829443,-6.3438 6.343799,-6.3438 h 32.11276 c 3.514356,0 6.343799,2.82944 6.343799,6.3438"
             id="path61"
             sodipodi:nodetypes="cccccssc" />
          <path
             id="path62"
             style="fill:none;fill-rule:evenodd;stroke:#ff00ff;stroke-width:0.2;stroke-opacity:1"
             d="m 76.026834,116.47007 c -0.253841,-0.25384 -0.154151,-0.56506 0.473866,-1.19307 0.628021,-0.62802 0.939887,-0.72836 1.193728,-0.47452 0.25384,0.25384 0.154294,0.5655 -0.473728,1.19352 -0.628016,0.62801 -0.940026,0.72791 -1.193866,0.47407 z m -32.80419,-0.30463 c 0,0.55229 -0.44771,1 -1,1 -0.55228,0 -1,-0.44771 -1,-1 0,-0.55228 0.44772,-1 1,-1 0.55229,0 1,0.44772 1,1 z m 32.640782,17.46484 c -8.142031,1.28216 -14.677649,7.61337 -16.2669,15.65363 -0.164693,0.15052 -0.333757,0.2912 -0.694762,0 -1.589252,-8.04026 -8.124872,-14.37147 -16.2669,-15.65363 -0.250026,-0.20581 -0.145595,-0.323 -2.62e-4,-0.42997 8.267371,-1.30179 14.878556,-7.80927 16.336962,-16.02586 0.159971,-0.25089 0.34502,-0.25087 0.555159,0 1.458409,8.21658 8.069589,14.72407 16.336964,16.02586 0.343692,0.14333 0.199645,0.28665 -2.61e-4,0.42997 z m -33.640782,15.64399 c 0.55228,0 0.99999,0.44772 1,1 0,0.55228 -0.44772,1 -1,1 -0.55229,0 -1,-0.44772 -1,-1 0,-0.55228 0.44771,-1 1,-1 z m 35.10882,1 c 0,0.55228 -0.44771,1 -1,1 -0.55228,0 -1,-0.44772 -1,-1 1e-5,-0.55228 0.44772,-1 1,-1 0.55229,0 1,0.44772 1,1 z"
             sodipodi:nodetypes="sssssssssscccccccccssssssssss" />
        </g>
      </g>
      <g
         id="g67"
         transform="rotate(180,125.02666,155.19645)">
        <g
           id="g64">
          <path
             style="fill:none;fill-opacity:1;fill-rule:evenodd;stroke:#0000ff;stroke-width:0.2;stroke-opacity:1"
             d="m 120.134,155.6197 c 3.51435,0 6.3438,-2.82892 6.3438,-6.34328 v -32.11277 c 0,-3.51436 -2.82945,-6.3438 -6.3438,-6.3438 h -8.66885 c -0.97985,-0.12651 -1.87745,-1.09837 -2.22816,-2.1084 -1.16175,-3.34574 -2.60218,-3.57187 -5.15937,-3.57187 -2.55719,0 -4.237766,0.40449 -5.159373,3.57187 -0.29871,1.02662 -1.248311,1.98189 -2.228158,2.1084 h -8.668851 c -3.514356,0 -6.343799,2.82944 -6.343799,6.3438 v 32.11277 c 0,3.51436 2.829443,6.34328 6.343799,6.34328"
             id="path63"
             sodipodi:nodetypes="cssscssscsssc" />
          <path
             id="path64"
             style="fill:none;fill-rule:evenodd;stroke:#ff00ff;stroke-width:0.2;stroke-opacity:1"
             d="m 120.13224,116.16544 c 0,0.55229 0.44771,1 1,1 0.55228,0 1,-0.44771 1,-1 0,-0.55228 -0.44772,-1 -1,-1 -0.55229,0 -1,0.44772 -1,1 z m -14.17556,-6.92475 c 0,-0.5799 -0.4701,-1.05 -1.879,-1.05 -1.4089,0 -1.879,0.4701 -1.879,1.05 0,0.5799 0.4701,1.05 1.879,1.05 1.4089,0 1.879,-0.4701 1.879,-1.05 z m -18.465226,24.38959 c 8.142031,1.28216 14.677646,7.61337 16.266896,15.65363 0.1647,0.15052 0.33376,0.2912 0.69477,0 1.58925,-8.04026 8.12487,-14.37147 16.2669,-15.65363 0.25002,-0.20581 0.14559,-0.323 2.6e-4,-0.42997 -8.26737,-1.30179 -14.87856,-7.80927 -16.33696,-16.02586 -0.15997,-0.25089 -0.34502,-0.25087 -0.55516,0 -1.45841,8.21658 -8.069592,14.72407 -16.336967,16.02586 -0.343692,0.14333 -0.199645,0.28665 2.61e-4,0.42997 z m 33.640786,15.64399 c -0.55228,0 -0.99999,0.44772 -1,1 0,0.55228 0.44772,1 1,1 0.55229,0 1,-0.44772 1,-1 0,-0.55228 -0.44771,-1 -1,-1 z m -35.108824,1 c 0,0.55228 0.44771,1 1,1 0.55228,0 1,-0.44772 1,-1 -1e-5,-0.55228 -0.44772,-1 -1,-1 -0.55229,0 -1,0.44772 -1,1 z m 1.30463,-33.8042 c 0.253841,-0.25384 0.154151,-0.56506 -0.473866,-1.19307 -0.628021,-0.62802 -0.939887,-0.72836 -1.193728,-0.47452 -0.25384,0.25384 -0.154294,0.56549 0.473728,1.19352 0.628016,0.62801 0.940026,0.72791 1.193866,0.47407 z"
             sodipodi:nodetypes="sssssssssscccccccccsssssssssssssss" />
        </g>
        <g
           id="g66">
          <path
             style="fill:none;fill-opacity:1;fill-rule:evenodd;stroke:#0000ff;stroke-width:0.2;stroke-opacity:1"
             d="m 81.677441,149.27642 c 0,3.51436 -2.829443,6.34328 -6.343799,6.34328 m -32.11276,0 c -3.514356,0 -6.343799,-2.82892 -6.343799,-6.34328 m 0,-32.11277 c 0,-3.51436 2.829443,-6.3438 6.343799,-6.3438 h 32.11276 c 3.514356,0 6.343799,2.82944 6.343799,6.3438"
             id="path65"
             sodipodi:nodetypes="cccccssc" />
          <path
             id="path66"
             style="fill:none;fill-rule:evenodd;stroke:#ff00ff;stroke-width:0.2;stroke-opacity:1"
             d="m 76.026834,116.47007 c -0.253841,-0.25384 -0.154151,-0.56506 0.473866,-1.19307 0.628021,-0.62802 0.939887,-0.72836 1.193728,-0.47452 0.25384,0.25384 0.154294,0.5655 -0.473728,1.19352 -0.628016,0.62801 -0.940026,0.72791 -1.193866,0.47407 z m -32.80419,-0.30463 c 0,0.55229 -0.44771,1 -1,1 -0.55228,0 -1,-0.44771 -1,-1 0,-0.55228 0.44772,-1 1,-1 0.55229,0 1,0.44772 1,1 z m 32.640782,17.46484 c -8.142031,1.28216 -14.677649,7.61337 -16.2669,15.65363 -0.164693,0.15052 -0.333757,0.2912 -0.694762,0 -1.589252,-8.04026 -8.124872,-14.37147 -16.2669,-15.65363 -0.250026,-0.20581 -0.145595,-0.323 -2.62e-4,-0.42997 8.267371,-1.30179 14.878556,-7.80927 16.336962,-16.02586 0.159971,-0.25089 0.34502,-0.25087 0.555159,0 1.458409,8.21658 8.069589,14.72407 16.336964,16.02586 0.343692,0.14333 0.199645,0.28665 -2.61e-4,0.42997 z m -33.640782,15.64399 c 0.55228,0 0.99999,0.44772 1,1 0,0.55228 -0.44772,1 -1,1 -0.55229,0 -1,-0.44772 -1,-1 0,-0.55228 0.44771,-1 1,-1 z m 35.10882,1 c 0,0.55228 -0.44771,1 -1,1 -0.55228,0 -1,-0.44772 -1,-1 1e-5,-0.55228 0.44772,-1 1,-1 0.55229,0 1,0.44772 1,1 z"
             sodipodi:nodetypes="sssssssssscccccccccssssssssss" />
        </g>
      </g>
      <g
         id="g71"
         transform="rotate(180,80.226301,155.19645)">
        <g
           id="g68">
          <path
             style="fill:none;fill-opacity:1;fill-rule:evenodd;stroke:#0000ff;stroke-width:0.2;stroke-opacity:1"
             d="m 120.134,155.6197 c 3.51435,0 6.3438,-2.82892 6.3438,-6.34328 v -32.11277 c 0,-3.51436 -2.82945,-6.3438 -6.3438,-6.3438 h -8.66885 c -0.97985,-0.12651 -1.87745,-1.09837 -2.22816,-2.1084 -1.16175,-3.34574 -2.60218,-3.57187 -5.15937,-3.57187 -2.55719,0 -4.237766,0.40449 -5.159373,3.57187 -0.29871,1.02662 -1.248311,1.98189 -2.228158,2.1084 h -8.668851 c -3.514356,0 -6.343799,2.82944 -6.343799,6.3438 v 32.11277 c 0,3.51436 2.829443,6.34328 6.343799,6.34328"
             id="path67"
             sodipodi:nodetypes="cssscssscsssc" />
          <path
             id="path68"
             style="fill:none;fill-rule:evenodd;stroke:#ff00ff;stroke-width:0.2;stroke-opacity:1"
             d="m 120.13224,116.16544 c 0,0.55229 0.44771,1 1,1 0.55228,0 1,-0.44771 1,-1 0,-0.55228 -0.44772,-1 -1,-1 -0.55229,0 -1,0.44772 -1,1 z m -14.17556,-6.92475 c 0,-0.5799 -0.4701,-1.05 -1.879,-1.05 -1.4089,0 -1.879,0.4701 -1.879,1.05 0,0.5799 0.4701,1.05 1.879,1.05 1.4089,0 1.879,-0.4701 1.879,-1.05 z m -18.465226,24.38959 c 8.142031,1.28216 14.677646,7.61337 16.266896,15.65363 0.1647,0.15052 0.33376,0.2912 0.69477,0 1.58925,-8.04026 8.12487,-14.37147 16.2669,-15.65363 0.25002,-0.20581 0.14559,-0.323 2.6e-4,-0.42997 -8.26737,-1.30179 -14.87856,-7.80927 -16.33696,-16.02586 -0.15997,-0.25089 -0.34502,-0.25087 -0.55516,0 -1.45841,8.21658 -8.069592,14.72407 -16.336967,16.02586 -0.343692,0.14333 -0.199645,0.28665 2.61e-4,0.42997 z m 33.640786,15.64399 c -0.55228,0 -0.99999,0.44772 -1,1 0,0.55228 0.44772,1 1,1 0.55229,0 1,-0.44772 1,-1 0,-0.55228 -0.44771,-1 -1,-1 z m -35.108824,1 c 0,0.55228 0.44771,1 1,1 0.55228,0 1,-0.44772 1,-1 -1e-5,-0.55228 -0.44772,-1 -1,-1 -0.55229,0 -1,0.44772 -1,1 z m 1.30463,-33.8042 c 0.253841,-0.25384 0.154151,-0.56506 -0.473866,-1.19307 -0.628021,-0.62802 -0.939887,-0.72836 -1.193728,-0.47452 -0.25384,0.25384 -0.154294,0.56549 0.473728,1.19352 0.628016,0.62801 0.940026,0.72791 1.193866,0.47407 z"
             sodipodi:nodetypes="sssssssssscccccccccsssssssssssssss" />
        </g>
        <g
           id="g70">
          <path
             style="fill:none;fill-opacity:1;fill-rule:evenodd;stroke:#0000ff;stroke-width:0.2;stroke-opacity:1"
             d="m 81.677441,149.27642 c 0,3.51436 -2.829443,6.34328 -6.343799,6.34328 m -32.11276,0 c -3.514356,0 -6.343799,-2.82892 -6.343799,-6.34328 m 0,-32.11277 c 0,-3.51436 2.829443,-6.3438 6.343799,-6.3438 h 32.11276 c 3.514356,0 6.343799,2.82944 6.343799,6.3438"
             id="path69"
             sodipodi:nodetypes="cccccssc" />
          <path
             id="path70"
             style="fill:none;fill-rule:evenodd;stroke:#ff00ff;stroke-width:0.2;stroke-opacity:1"
             d="m 76.026834,116.47007 c -0.253841,-0.25384 -0.154151,-0.56506 0.473866,-1.19307 0.628021,-0.62802 0.939887,-0.72836 1.193728,-0.47452 0.25384,0.25384 0.154294,0.5655 -0.473728,1.19352 -0.628016,0.62801 -0.940026,0.72791 -1.193866,0.47407 z m -32.80419,-0.30463 c 0,0.55229 -0.44771,1 -1,1 -0.55228,0 -1,-0.44771 -1,-1 0,-0.55228 0.44772,-1 1,-1 0.55229,0 1,0.44772 1,1 z m 32.640782,17.46484 c -8.142031,1.28216 -14.677649,7.61337 -16.2669,15.65363 -0.164693,0.15052 -0.333757,0.2912 -0.694762,0 -1.589252,-8.04026 -8.124872,-14.37147 -16.2669,-15.65363 -0.250026,-0.20581 -0.145595,-0.323 -2.62e-4,-0.42997 8.267371,-1.30179 14.878556,-7.80927 16.336962,-16.02586 0.159971,-0.25089 0.34502,-0.25087 0.555159,0 1.458409,8.21658 8.069589,14.72407 16.336964,16.02586 0.343692,0.14333 0.199645,0.28665 -2.61e-4,0.42997 z m -33.640782,15.64399 c 0.55228,0 0.99999,0.44772 1,1 0,0.55228 -0.44772,1 -1,1 -0.55229,0 -1,-0.44772 -1,-1 0,-0.55228 0.44771,-1 1,-1 z m 35.10882,1 c 0,0.55228 -0.44771,1 -1,1 -0.55228,0 -1,-0.44772 -1,-1 1e-5,-0.55228 0.44772,-1 1,-1 0.55229,0 1,0.44772 1,1 z"
             sodipodi:nodetypes="sssssssssscccccccccssssssssss" />
        </g>
      </g>
    </g>
    <g
       id="g105"
       transform="translate(1.0000004e-7,192.47771)">
      <g
         id="g76"
         transform="translate(-2.9022801,-0.84649837)">
        <g
           id="g73">
          <path
             style="fill:none;fill-opacity:1;fill-rule:evenodd;stroke:#0000ff;stroke-width:0.2;stroke-opacity:1"
             d="m 120.134,155.6197 c 3.51435,0 6.3438,-2.82892 6.3438,-6.34328 v -32.11277 c 0,-3.51436 -2.82945,-6.3438 -6.3438,-6.3438 h -8.66885 c -0.97985,-0.12651 -1.87745,-1.09837 -2.22816,-2.1084 -1.16175,-3.34574 -2.60218,-3.57187 -5.15937,-3.57187 -2.55719,0 -4.237766,0.40449 -5.159373,3.57187 -0.29871,1.02662 -1.248311,1.98189 -2.228158,2.1084 h -8.668851 c -3.514356,0 -6.343799,2.82944 -6.343799,6.3438 v 32.11277 c 0,3.51436 2.829443,6.34328 6.343799,6.34328 z"
             id="path72" />
          <path
             id="path73"
             style="fill:none;fill-rule:evenodd;stroke:#ff00ff;stroke-width:0.2;stroke-opacity:1"
             d="m 120.13224,116.16544 c 0,0.55229 0.44771,1 1,1 0.55228,0 1,-0.44771 1,-1 0,-0.55228 -0.44772,-1 -1,-1 -0.55229,0 -1,0.44772 -1,1 z m -14.17556,-6.92475 c 0,-0.5799 -0.4701,-1.05 -1.879,-1.05 -1.4089,0 -1.879,0.4701 -1.879,1.05 0,0.5799 0.4701,1.05 1.879,1.05 1.4089,0 1.879,-0.4701 1.879,-1.05 z m -18.465226,24.38959 c 8.142031,1.28216 14.677646,7.61337 16.266896,15.65363 0.1647,0.15052 0.33376,0.2912 0.69477,0 1.58925,-8.04026 8.12487,-14.37147 16.2669,-15.65363 0.25002,-0.20581 0.14559,-0.323 2.6e-4,-0.42997 -8.26737,-1.30179 -14.87856,-7.80927 -16.33696,-16.02586 -0.15997,-0.25089 -0.34502,-0.25087 -0.55516,0 -1.45841,8.21658 -8.069592,14.72407 -16.336967,16.02586 -0.343692,0.14333 -0.199645,0.28665 2.61e-4,0.42997 z m 33.640786,15.64399 c -0.55228,0 -0.99999,0.44772 -1,1 0,0.55228 0.44772,1 1,1 0.55229,0 1,-0.44772 1,-1 0,-0.55228 -0.44771,-1 -1,-1 z m -35.108824,1 c 0,0.55228 0.44771,1 1,1 0.55228,0 1,-0.44772 1,-1 -1e-5,-0.55228 -0.44772,-1 -1,-1 -0.55229,0 -1,0.44772 -1,1 z m 1.30463,-33.8042 c 0.253841,-0.25384 0.154151,-0.56506 -0.473866,-1.19307 -0.628021,-0.62802 -0.939887,-0.72836 -1.193728,-0.47452 -0.25384,0.25384 -0.154294,0.56549 0.473728,1.19352 0.628016,0.62801 0.940026,0.72791 1.193866,0.47407 z"
             sodipodi:nodetypes="sssssssssscccccccccsssssssssssssss" />
        </g>
        <g
           id="g75">
          <path
             style="fill:none;fill-opacity:1;fill-rule:evenodd;stroke:#0000ff;stroke-width:0.2;stroke-opacity:1"
             d="m 81.677441,149.27642 c 0,3.51436 -2.829443,6.34328 -6.343799,6.34328 h -32.11276 c -3.514356,0 -6.343799,-2.82892 -6.343799,-6.34328 v -32.11277 c 0,-3.51436 2.829443,-6.3438 6.343799,-6.3438 h 32.11276 c 3.514356,0 6.343799,2.82944 6.343799,6.3438"
             id="path74"
             sodipodi:nodetypes="cssssssc" />
          <path
             id="path75"
             style="fill:none;fill-rule:evenodd;stroke:#ff00ff;stroke-width:0.2;stroke-opacity:1"
             d="m 76.026834,116.47007 c -0.253841,-0.25384 -0.154151,-0.56506 0.473866,-1.19307 0.628021,-0.62802 0.939887,-0.72836 1.193728,-0.47452 0.25384,0.25384 0.154294,0.5655 -0.473728,1.19352 -0.628016,0.62801 -0.940026,0.72791 -1.193866,0.47407 z m -32.80419,-0.30463 c 0,0.55229 -0.44771,1 -1,1 -0.55228,0 -1,-0.44771 -1,-1 0,-0.55228 0.44772,-1 1,-1 0.55229,0 1,0.44772 1,1 z m 32.640782,17.46484 c -8.142031,1.28216 -14.677649,7.61337 -16.2669,15.65363 -0.164693,0.15052 -0.333757,0.2912 -0.694762,0 -1.589252,-8.04026 -8.124872,-14.37147 -16.2669,-15.65363 -0.250026,-0.20581 -0.145595,-0.323 -2.62e-4,-0.42997 8.267371,-1.30179 14.878556,-7.80927 16.336962,-16.02586 0.159971,-0.25089 0.34502,-0.25087 0.555159,0 1.458409,8.21658 8.069589,14.72407 16.336964,16.02586 0.343692,0.14333 0.199645,0.28665 -2.61e-4,0.42997 z m -33.640782,15.64399 c 0.55228,0 0.99999,0.44772 1,1 0,0.55228 -0.44772,1 -1,1 -0.55229,0 -1,-0.44772 -1,-1 0,-0.55228 0.44771,-1 1,-1 z m 35.10882,1 c 0,0.55228 -0.44771,1 -1,1 -0.55228,0 -1,-0.44772 -1,-1 1e-5,-0.55228 0.44772,-1 1,-1 0.55229,0 1,0.44772 1,1 z"
             sodipodi:nodetypes="sssssssssscccccccccssssssssss" />
        </g>
      </g>
      <g
         id="g80"
         transform="translate(86.698437,-0.84649837)">
        <g
           id="g77">
          <path
             style="fill:none;fill-opacity:1;fill-rule:evenodd;stroke:#0000ff;stroke-width:0.2;stroke-opacity:1"
             d="m 120.134,155.6197 c 3.51435,0 6.3438,-2.82892 6.3438,-6.34328 v -32.11277 c 0,-3.51436 -2.82945,-6.3438 -6.3438,-6.3438 h -8.66885 c -0.97985,-0.12651 -1.87745,-1.09837 -2.22816,-2.1084 -1.16175,-3.34574 -2.60218,-3.57187 -5.15937,-3.57187 -2.55719,0 -4.237766,0.40449 -5.159373,3.57187 -0.29871,1.02662 -1.248311,1.98189 -2.228158,2.1084 h -8.668851 c -3.514356,0 -6.343799,2.82944 -6.343799,6.3438 v 32.11277 c 0,3.51436 2.829443,6.34328 6.343799,6.34328 z"
             id="path76" />
          <path
             id="path77"
             style="fill:none;fill-rule:evenodd;stroke:#ff00ff;stroke-width:0.2;stroke-opacity:1"
             d="m 120.13224,116.16544 c 0,0.55229 0.44771,1 1,1 0.55228,0 1,-0.44771 1,-1 0,-0.55228 -0.44772,-1 -1,-1 -0.55229,0 -1,0.44772 -1,1 z m -14.17556,-6.92475 c 0,-0.5799 -0.4701,-1.05 -1.879,-1.05 -1.4089,0 -1.879,0.4701 -1.879,1.05 0,0.5799 0.4701,1.05 1.879,1.05 1.4089,0 1.879,-0.4701 1.879,-1.05 z m -18.465226,24.38959 c 8.142031,1.28216 14.677646,7.61337 16.266896,15.65363 0.1647,0.15052 0.33376,0.2912 0.69477,0 1.58925,-8.04026 8.12487,-14.37147 16.2669,-15.65363 0.25002,-0.20581 0.14559,-0.323 2.6e-4,-0.42997 -8.26737,-1.30179 -14.87856,-7.80927 -16.33696,-16.02586 -0.15997,-0.25089 -0.34502,-0.25087 -0.55516,0 -1.45841,8.21658 -8.069592,14.72407 -16.336967,16.02586 -0.343692,0.14333 -0.199645,0.28665 2.61e-4,0.42997 z m 33.640786,15.64399 c -0.55228,0 -0.99999,0.44772 -1,1 0,0.55228 0.44772,1 1,1 0.55229,0 1,-0.44772 1,-1 0,-0.55228 -0.44771,-1 -1,-1 z m -35.108824,1 c 0,0.55228 0.44771,1 1,1 0.55228,0 1,-0.44772 1,-1 -1e-5,-0.55228 -0.44772,-1 -1,-1 -0.55229,0 -1,0.44772 -1,1 z m 1.30463,-33.8042 c 0.253841,-0.25384 0.154151,-0.56506 -0.473866,-1.19307 -0.628021,-0.62802 -0.939887,-0.72836 -1.193728,-0.47452 -0.25384,0.25384 -0.154294,0.56549 0.473728,1.19352 0.628016,0.62801 0.940026,0.72791 1.193866,0.47407 z"
             sodipodi:nodetypes="sssssssssscccccccccsssssssssssssss" />
        </g>
        <g
           id="g79">
          <path
             style="fill:none;fill-opacity:1;fill-rule:evenodd;stroke:#0000ff;stroke-width:0.2;stroke-opacity:1"
             d="m 81.677441,149.27642 c 0,3.51436 -2.829443,6.34328 -6.343799,6.34328 h -32.11276 c -3.514356,0 -6.343799,-2.82892 -6.343799,-6.34328 m 0,-32.11277 c 0,-3.51436 2.829443,-6.3438 6.343799,-6.3438 h 32.11276 c 3.514356,0 6.343799,2.82944 6.343799,6.3438"
             id="path78"
             sodipodi:nodetypes="cssccssc" />
          <path
             id="path79"
             style="fill:none;fill-rule:evenodd;stroke:#ff00ff;stroke-width:0.2;stroke-opacity:1"
             d="m 76.026834,116.47007 c -0.253841,-0.25384 -0.154151,-0.56506 0.473866,-1.19307 0.628021,-0.62802 0.939887,-0.72836 1.193728,-0.47452 0.25384,0.25384 0.154294,0.5655 -0.473728,1.19352 -0.628016,0.62801 -0.940026,0.72791 -1.193866,0.47407 z m -32.80419,-0.30463 c 0,0.55229 -0.44771,1 -1,1 -0.55228,0 -1,-0.44771 -1,-1 0,-0.55228 0.44772,-1 1,-1 0.55229,0 1,0.44772 1,1 z m 32.640782,17.46484 c -8.142031,1.28216 -14.677649,7.61337 -16.2669,15.65363 -0.164693,0.15052 -0.333757,0.2912 -0.694762,0 -1.589252,-8.04026 -8.124872,-14.37147 -16.2669,-15.65363 -0.250026,-0.20581 -0.145595,-0.323 -2.62e-4,-0.42997 8.267371,-1.30179 14.878556,-7.80927 16.336962,-16.02586 0.159971,-0.25089 0.34502,-0.25087 0.555159,0 1.458409,8.21658 8.069589,14.72407 16.336964,16.02586 0.343692,0.14333 0.199645,0.28665 -2.61e-4,0.42997 z m -33.640782,15.64399 c 0.55228,0 0.99999,0.44772 1,1 0,0.55228 -0.44772,1 -1,1 -0.55229,0 -1,-0.44772 -1,-1 0,-0.55228 0.44771,-1 1,-1 z m 35.10882,1 c 0,0.55228 -0.44771,1 -1,1 -0.55228,0 -1,-0.44772 -1,-1 1e-5,-0.55228 0.44772,-1 1,-1 0.55229,0 1,0.44772 1,1 z"
             sodipodi:nodetypes="sssssssssscccccccccssssssssss" />
        </g>
      </g>
      <g
         id="g84"
         transform="translate(176.29915,-0.84649837)">
        <g
           id="g81">
          <path
             style="fill:none;fill-opacity:1;fill-rule:evenodd;stroke:#0000ff;stroke-width:0.2;stroke-opacity:1"
             d="m 120.134,155.6197 c 3.51435,0 6.3438,-2.82892 6.3438,-6.34328 v -32.11277 c 0,-3.51436 -2.82945,-6.3438 -6.3438,-6.3438 h -8.66885 c -0.97985,-0.12651 -1.87745,-1.09837 -2.22816,-2.1084 -1.16175,-3.34574 -2.60218,-3.57187 -5.15937,-3.57187 -2.55719,0 -4.237766,0.40449 -5.159373,3.57187 -0.29871,1.02662 -1.248311,1.98189 -2.228158,2.1084 h -8.668851 c -3.514356,0 -6.343799,2.82944 -6.343799,6.3438 v 32.11277 c 0,3.51436 2.829443,6.34328 6.343799,6.34328 z"
             id="path80" />
          <path
             id="path81"
             style="fill:none;fill-rule:evenodd;stroke:#ff00ff;stroke-width:0.2;stroke-opacity:1"
             d="m 120.13224,116.16544 c 0,0.55229 0.44771,1 1,1 0.55228,0 1,-0.44771 1,-1 0,-0.55228 -0.44772,-1 -1,-1 -0.55229,0 -1,0.44772 -1,1 z m -14.17556,-6.92475 c 0,-0.5799 -0.4701,-1.05 -1.879,-1.05 -1.4089,0 -1.879,0.4701 -1.879,1.05 0,0.5799 0.4701,1.05 1.879,1.05 1.4089,0 1.879,-0.4701 1.879,-1.05 z m -18.465226,24.38959 c 8.142031,1.28216 14.677646,7.61337 16.266896,15.65363 0.1647,0.15052 0.33376,0.2912 0.69477,0 1.58925,-8.04026 8.12487,-14.37147 16.2669,-15.65363 0.25002,-0.20581 0.14559,-0.323 2.6e-4,-0.42997 -8.26737,-1.30179 -14.87856,-7.80927 -16.33696,-16.02586 -0.15997,-0.25089 -0.34502,-0.25087 -0.55516,0 -1.45841,8.21658 -8.069592,14.72407 -16.336967,16.02586 -0.343692,0.14333 -0.199645,0.28665 2.61e-4,0.42997 z m 33.640786,15.64399 c -0.55228,0 -0.99999,0.44772 -1,1 0,0.55228 0.44772,1 1,1 0.55229,0 1,-0.44772 1,-1 0,-0.55228 -0.44771,-1 -1,-1 z m -35.108824,1 c 0,0.55228 0.44771,1 1,1 0.55228,0 1,-0.44772 1,-1 -1e-5,-0.55228 -0.44772,-1 -1,-1 -0.55229,0 -1,0.44772 -1,1 z m 1.30463,-33.8042 c 0.253841,-0.25384 0.154151,-0.56506 -0.473866,-1.19307 -0.628021,-0.62802 -0.939887,-0.72836 -1.193728,-0.47452 -0.25384,0.25384 -0.154294,0.56549 0.473728,1.19352 0.628016,0.62801 0.940026,0.72791 1.193866,0.47407 z"
             sodipodi:nodetypes="sssssssssscccccccccsssssssssssssss" />
        </g>
        <g
           id="g83">
          <path
             style="fill:none;fill-opacity:1;fill-rule:evenodd;stroke:#0000ff;stroke-width:0.2;stroke-opacity:1"
             d="m 81.677441,149.27642 c 0,3.51436 -2.829443,6.34328 -6.343799,6.34328 h -32.11276 c -3.514356,0 -6.343799,-2.82892 -6.343799,-6.34328 m 0,-32.11277 c 0,-3.51436 2.829443,-6.3438 6.343799,-6.3438 h 32.11276 c 3.514356,0 6.343799,2.82944 6.343799,6.3438"
             id="path82"
             sodipodi:nodetypes="cssccssc" />
          <path
             id="path83"
             style="fill:none;fill-rule:evenodd;stroke:#ff00ff;stroke-width:0.2;stroke-opacity:1"
             d="m 76.026834,116.47007 c -0.253841,-0.25384 -0.154151,-0.56506 0.473866,-1.19307 0.628021,-0.62802 0.939887,-0.72836 1.193728,-0.47452 0.25384,0.25384 0.154294,0.5655 -0.473728,1.19352 -0.628016,0.62801 -0.940026,0.72791 -1.193866,0.47407 z m -32.80419,-0.30463 c 0,0.55229 -0.44771,1 -1,1 -0.55228,0 -1,-0.44771 -1,-1 0,-0.55228 0.44772,-1 1,-1 0.55229,0 1,0.44772 1,1 z m 32.640782,17.46484 c -8.142031,1.28216 -14.677649,7.61337 -16.2669,15.65363 -0.164693,0.15052 -0.333757,0.2912 -0.694762,0 -1.589252,-8.04026 -8.124872,-14.37147 -16.2669,-15.65363 -0.250026,-0.20581 -0.145595,-0.323 -2.62e-4,-0.42997 8.267371,-1.30179 14.878556,-7.80927 16.336962,-16.02586 0.159971,-0.25089 0.34502,-0.25087 0.555159,0 1.458409,8.21658 8.069589,14.72407 16.336964,16.02586 0.343692,0.14333 0.199645,0.28665 -2.61e-4,0.42997 z m -33.640782,15.64399 c 0.55228,0 0.99999,0.44772 1,1 0,0.55228 -0.44772,1 -1,1 -0.55229,0 -1,-0.44772 -1,-1 0,-0.55228 0.44771,-1 1,-1 z m 35.10882,1 c 0,0.55228 -0.44771,1 -1,1 -0.55228,0 -1,-0.44772 -1,-1 1e-5,-0.55228 0.44772,-1 1,-1 0.55229,0 1,0.44772 1,1 z"
             sodipodi:nodetypes="sssssssssscccccccccssssssssss" />
        </g>
      </g>
      <g
         id="g88"
         transform="translate(265.89987,-0.84649837)">
        <g
           id="g85">
          <path
             style="fill:none;fill-opacity:1;fill-rule:evenodd;stroke:#0000ff;stroke-width:0.2;stroke-opacity:1"
             d="m 120.134,155.6197 c 3.51435,0 6.3438,-2.82892 6.3438,-6.34328 v -32.11277 c 0,-3.51436 -2.82945,-6.3438 -6.3438,-6.3438 h -8.66885 c -0.97985,-0.12651 -1.87745,-1.09837 -2.22816,-2.1084 -1.16175,-3.34574 -2.60218,-3.57187 -5.15937,-3.57187 -2.55719,0 -4.237766,0.40449 -5.159373,3.57187 -0.29871,1.02662 -1.248311,1.98189 -2.228158,2.1084 h -8.668851 c -3.514356,0 -6.343799,2.82944 -6.343799,6.3438 v 32.11277 c 0,3.51436 2.829443,6.34328 6.343799,6.34328 z"
             id="path84" />
          <path
             id="path85"
             style="fill:none;fill-rule:evenodd;stroke:#ff00ff;stroke-width:0.2;stroke-opacity:1"
             d="m 120.13224,116.16544 c 0,0.55229 0.44771,1 1,1 0.55228,0 1,-0.44771 1,-1 0,-0.55228 -0.44772,-1 -1,-1 -0.55229,0 -1,0.44772 -1,1 z m -14.17556,-6.92475 c 0,-0.5799 -0.4701,-1.05 -1.879,-1.05 -1.4089,0 -1.879,0.4701 -1.879,1.05 0,0.5799 0.4701,1.05 1.879,1.05 1.4089,0 1.879,-0.4701 1.879,-1.05 z m -18.465226,24.38959 c 8.142031,1.28216 14.677646,7.61337 16.266896,15.65363 0.1647,0.15052 0.33376,0.2912 0.69477,0 1.58925,-8.04026 8.12487,-14.37147 16.2669,-15.65363 0.25002,-0.20581 0.14559,-0.323 2.6e-4,-0.42997 -8.26737,-1.30179 -14.87856,-7.80927 -16.33696,-16.02586 -0.15997,-0.25089 -0.34502,-0.25087 -0.55516,0 -1.45841,8.21658 -8.069592,14.72407 -16.336967,16.02586 -0.343692,0.14333 -0.199645,0.28665 2.61e-4,0.42997 z m 33.640786,15.64399 c -0.55228,0 -0.99999,0.44772 -1,1 0,0.55228 0.44772,1 1,1 0.55229,0 1,-0.44772 1,-1 0,-0.55228 -0.44771,-1 -1,-1 z m -35.108824,1 c 0,0.55228 0.44771,1 1,1 0.55228,0 1,-0.44772 1,-1 -1e-5,-0.55228 -0.44772,-1 -1,-1 -0.55229,0 -1,0.44772 -1,1 z m 1.30463,-33.8042 c 0.253841,-0.25384 0.154151,-0.56506 -0.473866,-1.19307 -0.628021,-0.62802 -0.939887,-0.72836 -1.193728,-0.47452 -0.25384,0.25384 -0.154294,0.56549 0.473728,1.19352 0.628016,0.62801 0.940026,0.72791 1.193866,0.47407 z"
             sodipodi:nodetypes="sssssssssscccccccccsssssssssssssss" />
        </g>
        <g
           id="g87">
          <path
             style="fill:none;fill-opacity:1;fill-rule:evenodd;stroke:#0000ff;stroke-width:0.2;stroke-opacity:1"
             d="m 81.677441,149.27642 c 0,3.51436 -2.829443,6.34328 -6.343799,6.34328 h -32.11276 c -3.514356,0 -6.343799,-2.82892 -6.343799,-6.34328 m 0,-32.11277 c 0,-3.51436 2.829443,-6.3438 6.343799,-6.3438 h 32.11276 c 3.514356,0 6.343799,2.82944 6.343799,6.3438"
             id="path86"
             sodipodi:nodetypes="cssccssc" />
          <path
             id="path87"
             style="fill:none;fill-rule:evenodd;stroke:#ff00ff;stroke-width:0.2;stroke-opacity:1"
             d="m 76.026834,116.47007 c -0.253841,-0.25384 -0.154151,-0.56506 0.473866,-1.19307 0.628021,-0.62802 0.939887,-0.72836 1.193728,-0.47452 0.25384,0.25384 0.154294,0.5655 -0.473728,1.19352 -0.628016,0.62801 -0.940026,0.72791 -1.193866,0.47407 z m -32.80419,-0.30463 c 0,0.55229 -0.44771,1 -1,1 -0.55228,0 -1,-0.44771 -1,-1 0,-0.55228 0.44772,-1 1,-1 0.55229,0 1,0.44772 1,1 z m 32.640782,17.46484 c -8.142031,1.28216 -14.677649,7.61337 -16.2669,15.65363 -0.164693,0.15052 -0.333757,0.2912 -0.694762,0 -1.589252,-8.04026 -8.124872,-14.37147 -16.2669,-15.65363 -0.250026,-0.20581 -0.145595,-0.323 -2.62e-4,-0.42997 8.267371,-1.30179 14.878556,-7.80927 16.336962,-16.02586 0.159971,-0.25089 0.34502,-0.25087 0.555159,0 1.458409,8.21658 8.069589,14.72407 16.336964,16.02586 0.343692,0.14333 0.199645,0.28665 -2.61e-4,0.42997 z m -33.640782,15.64399 c 0.55228,0 0.99999,0.44772 1,1 0,0.55228 -0.44772,1 -1,1 -0.55229,0 -1,-0.44772 -1,-1 0,-0.55228 0.44771,-1 1,-1 z m 35.10882,1 c 0,0.55228 -0.44771,1 -1,1 -0.55228,0 -1,-0.44772 -1,-1 1e-5,-0.55228 0.44772,-1 1,-1 0.55229,0 1,0.44772 1,1 z"
             sodipodi:nodetypes="sssssssssscccccccccssssssssss" />
        </g>
      </g>
      <g
         id="g92"
         transform="rotate(180,214.62738,155.19645)">
        <g
           id="g89">
          <path
             style="fill:none;fill-opacity:1;fill-rule:evenodd;stroke:#0000ff;stroke-width:0.2;stroke-opacity:1"
             d="m 120.134,155.6197 c 3.51435,0 6.3438,-2.82892 6.3438,-6.34328 v -32.11277 c 0,-3.51436 -2.82945,-6.3438 -6.3438,-6.3438 h -8.66885 c -0.97985,-0.12651 -1.87745,-1.09837 -2.22816,-2.1084 -1.16175,-3.34574 -2.60218,-3.57187 -5.15937,-3.57187 -2.55719,0 -4.237766,0.40449 -5.159373,3.57187 -0.29871,1.02662 -1.248311,1.98189 -2.228158,2.1084 h -8.668851 c -3.514356,0 -6.343799,2.82944 -6.343799,6.3438 v 32.11277 c 0,3.51436 2.829443,6.34328 6.343799,6.34328"
             id="path88"
             sodipodi:nodetypes="cssscssscsssc" />
          <path
             id="path89"
             style="fill:none;fill-rule:evenodd;stroke:#ff00ff;stroke-width:0.2;stroke-opacity:1"
             d="m 120.13224,116.16544 c 0,0.55229 0.44771,1 1,1 0.55228,0 1,-0.44771 1,-1 0,-0.55228 -0.44772,-1 -1,-1 -0.55229,0 -1,0.44772 -1,1 z m -14.17556,-6.92475 c 0,-0.5799 -0.4701,-1.05 -1.879,-1.05 -1.4089,0 -1.879,0.4701 -1.879,1.05 0,0.5799 0.4701,1.05 1.879,1.05 1.4089,0 1.879,-0.4701 1.879,-1.05 z m -18.465226,24.38959 c 8.142031,1.28216 14.677646,7.61337 16.266896,15.65363 0.1647,0.15052 0.33376,0.2912 0.69477,0 1.58925,-8.04026 8.12487,-14.37147 16.2669,-15.65363 0.25002,-0.20581 0.14559,-0.323 2.6e-4,-0.42997 -8.26737,-1.30179 -14.87856,-7.80927 -16.33696,-16.02586 -0.15997,-0.25089 -0.34502,-0.25087 -0.55516,0 -1.45841,8.21658 -8.069592,14.72407 -16.336967,16.02586 -0.343692,0.14333 -0.199645,0.28665 2.61e-4,0.42997 z m 33.640786,15.64399 c -0.55228,0 -0.99999,0.44772 -1,1 0,0.55228 0.44772,1 1,1 0.55229,0 1,-0.44772 1,-1 0,-0.55228 -0.44771,-1 -1,-1 z m -35.108824,1 c 0,0.55228 0.44771,1 1,1 0.55228,0 1,-0.44772 1,-1 -1e-5,-0.55228 -0.44772,-1 -1,-1 -0.55229,0 -1,0.44772 -1,1 z m 1.30463,-33.8042 c 0.253841,-0.25384 0.154151,-0.56506 -0.473866,-1.19307 -0.628021,-0.62802 -0.939887,-0.72836 -1.193728,-0.47452 -0.25384,0.25384 -0.154294,0.56549 0.473728,1.19352 0.628016,0.62801 0.940026,0.72791 1.193866,0.47407 z"
             sodipodi:nodetypes="sssssssssscccccccccsssssssssssssss" />
        </g>
        <g
           id="g91">
          <path
             style="fill:none;fill-opacity:1;fill-rule:evenodd;stroke:#0000ff;stroke-width:0.2;stroke-opacity:1"
             d="m 81.677441,149.27642 c 0,3.51436 -2.829443,6.34328 -6.343799,6.34328 m -32.11276,0 c -3.514356,0 -6.343799,-2.82892 -6.343799,-6.34328 v -32.11277 c 0,-3.51436 2.829443,-6.3438 6.343799,-6.3438 h 32.11276 c 3.514356,0 6.343799,2.82944 6.343799,6.3438"
             id="path90"
             sodipodi:nodetypes="cccssssc" />
          <path
             id="path91"
             style="fill:none;fill-rule:evenodd;stroke:#ff00ff;stroke-width:0.2;stroke-opacity:1"
             d="m 76.026834,116.47007 c -0.253841,-0.25384 -0.154151,-0.56506 0.473866,-1.19307 0.628021,-0.62802 0.939887,-0.72836 1.193728,-0.47452 0.25384,0.25384 0.154294,0.5655 -0.473728,1.19352 -0.628016,0.62801 -0.940026,0.72791 -1.193866,0.47407 z m -32.80419,-0.30463 c 0,0.55229 -0.44771,1 -1,1 -0.55228,0 -1,-0.44771 -1,-1 0,-0.55228 0.44772,-1 1,-1 0.55229,0 1,0.44772 1,1 z m 32.640782,17.46484 c -8.142031,1.28216 -14.677649,7.61337 -16.2669,15.65363 -0.164693,0.15052 -0.333757,0.2912 -0.694762,0 -1.589252,-8.04026 -8.124872,-14.37147 -16.2669,-15.65363 -0.250026,-0.20581 -0.145595,-0.323 -2.62e-4,-0.42997 8.267371,-1.30179 14.878556,-7.80927 16.336962,-16.02586 0.159971,-0.25089 0.34502,-0.25087 0.555159,0 1.458409,8.21658 8.069589,14.72407 16.336964,16.02586 0.343692,0.14333 0.199645,0.28665 -2.61e-4,0.42997 z m -33.640782,15.64399 c 0.55228,0 0.99999,0.44772 1,1 0,0.55228 -0.44772,1 -1,1 -0.55229,0 -1,-0.44772 -1,-1 0,-0.55228 0.44771,-1 1,-1 z m 35.10882,1 c 0,0.55228 -0.44771,1 -1,1 -0.55228,0 -1,-0.44772 -1,-1 1e-5,-0.55228 0.44772,-1 1,-1 0.55229,0 1,0.44772 1,1 z"
             sodipodi:nodetypes="sssssssssscccccccccssssssssss" />
        </g>
      </g>
      <g
         id="g96"
         transform="rotate(180,169.82702,155.19645)">
        <g
           id="g93">
          <path
             style="fill:none;fill-opacity:1;fill-rule:evenodd;stroke:#0000ff;stroke-width:0.2;stroke-opacity:1"
             d="m 120.134,155.6197 c 3.51435,0 6.3438,-2.82892 6.3438,-6.34328 v -32.11277 c 0,-3.51436 -2.82945,-6.3438 -6.3438,-6.3438 h -8.66885 c -0.97985,-0.12651 -1.87745,-1.09837 -2.22816,-2.1084 -1.16175,-3.34574 -2.60218,-3.57187 -5.15937,-3.57187 -2.55719,0 -4.237766,0.40449 -5.159373,3.57187 -0.29871,1.02662 -1.248311,1.98189 -2.228158,2.1084 h -8.668851 c -3.514356,0 -6.343799,2.82944 -6.343799,6.3438 v 32.11277 c 0,3.51436 2.829443,6.34328 6.343799,6.34328"
             id="path92"
             sodipodi:nodetypes="cssscssscsssc" />
          <path
             id="path93"
             style="fill:none;fill-rule:evenodd;stroke:#ff00ff;stroke-width:0.2;stroke-opacity:1"
             d="m 120.13224,116.16544 c 0,0.55229 0.44771,1 1,1 0.55228,0 1,-0.44771 1,-1 0,-0.55228 -0.44772,-1 -1,-1 -0.55229,0 -1,0.44772 -1,1 z m -14.17556,-6.92475 c 0,-0.5799 -0.4701,-1.05 -1.879,-1.05 -1.4089,0 -1.879,0.4701 -1.879,1.05 0,0.5799 0.4701,1.05 1.879,1.05 1.4089,0 1.879,-0.4701 1.879,-1.05 z m -18.465226,24.38959 c 8.142031,1.28216 14.677646,7.61337 16.266896,15.65363 0.1647,0.15052 0.33376,0.2912 0.69477,0 1.58925,-8.04026 8.12487,-14.37147 16.2669,-15.65363 0.25002,-0.20581 0.14559,-0.323 2.6e-4,-0.42997 -8.26737,-1.30179 -14.87856,-7.80927 -16.33696,-16.02586 -0.15997,-0.25089 -0.34502,-0.25087 -0.55516,0 -1.45841,8.21658 -8.069592,14.72407 -16.336967,16.02586 -0.343692,0.14333 -0.199645,0.28665 2.61e-4,0.42997 z m 33.640786,15.64399 c -0.55228,0 -0.99999,0.44772 -1,1 0,0.55228 0.44772,1 1,1 0.55229,0 1,-0.44772 1,-1 0,-0.55228 -0.44771,-1 -1,-1 z m -35.108824,1 c 0,0.55228 0.44771,1 1,1 0.55228,0 1,-0.44772 1,-1 -1e-5,-0.55228 -0.44772,-1 -1,-1 -0.55229,0 -1,0.44772 -1,1 z m 1.30463,-33.8042 c 0.253841,-0.25384 0.154151,-0.56506 -0.473866,-1.19307 -0.628021,-0.62802 -0.939887,-0.72836 -1.193728,-0.47452 -0.25384,0.25384 -0.154294,0.56549 0.473728,1.19352 0.628016,0.62801 0.940026,0.72791 1.193866,0.47407 z"
             sodipodi:nodetypes="sssssssssscccccccccsssssssssssssss" />
        </g>
        <g
           id="g95">
          <path
             style="fill:none;fill-opacity:1;fill-rule:evenodd;stroke:#0000ff;stroke-width:0.2;stroke-opacity:1"
             d="m 81.677441,149.27642 c 0,3.51436 -2.829443,6.34328 -6.343799,6.34328 m -32.11276,0 c -3.514356,0 -6.343799,-2.82892 -6.343799,-6.34328 m 0,-32.11277 c 0,-3.51436 2.829443,-6.3438 6.343799,-6.3438 h 32.11276 c 3.514356,0 6.343799,2.82944 6.343799,6.3438"
             id="path94"
             sodipodi:nodetypes="cccccssc" />
          <path
             id="path95"
             style="fill:none;fill-rule:evenodd;stroke:#ff00ff;stroke-width:0.2;stroke-opacity:1"
             d="m 76.026834,116.47007 c -0.253841,-0.25384 -0.154151,-0.56506 0.473866,-1.19307 0.628021,-0.62802 0.939887,-0.72836 1.193728,-0.47452 0.25384,0.25384 0.154294,0.5655 -0.473728,1.19352 -0.628016,0.62801 -0.940026,0.72791 -1.193866,0.47407 z m -32.80419,-0.30463 c 0,0.55229 -0.44771,1 -1,1 -0.55228,0 -1,-0.44771 -1,-1 0,-0.55228 0.44772,-1 1,-1 0.55229,0 1,0.44772 1,1 z m 32.640782,17.46484 c -8.142031,1.28216 -14.677649,7.61337 -16.2669,15.65363 -0.164693,0.15052 -0.333757,0.2912 -0.694762,0 -1.589252,-8.04026 -8.124872,-14.37147 -16.2669,-15.65363 -0.250026,-0.20581 -0.145595,-0.323 -2.62e-4,-0.42997 8.267371,-1.30179 14.878556,-7.80927 16.336962,-16.02586 0.159971,-0.25089 0.34502,-0.25087 0.555159,0 1.458409,8.21658 8.069589,14.72407 16.336964,16.02586 0.343692,0.14333 0.199645,0.28665 -2.61e-4,0.42997 z m -33.640782,15.64399 c 0.55228,0 0.99999,0.44772 1,1 0,0.55228 -0.44772,1 -1,1 -0.55229,0 -1,-0.44772 -1,-1 0,-0.55228 0.44771,-1 1,-1 z m 35.10882,1 c 0,0.55228 -0.44771,1 -1,1 -0.55228,0 -1,-0.44772 -1,-1 1e-5,-0.55228 0.44772,-1 1,-1 0.55229,0 1,0.44772 1,1 z"
             sodipodi:nodetypes="sssssssssscccccccccssssssssss" />
        </g>
      </g>
      <g
         id="g100"
         transform="rotate(180,125.02666,155.19645)">
        <g
           id="g97">
          <path
             style="fill:none;fill-opacity:1;fill-rule:evenodd;stroke:#0000ff;stroke-width:0.2;stroke-opacity:1"
             d="m 120.134,155.6197 c 3.51435,0 6.3438,-2.82892 6.3438,-6.34328 v -32.11277 c 0,-3.51436 -2.82945,-6.3438 -6.3438,-6.3438 h -8.66885 c -0.97985,-0.12651 -1.87745,-1.09837 -2.22816,-2.1084 -1.16175,-3.34574 -2.60218,-3.57187 -5.15937,-3.57187 -2.55719,0 -4.237766,0.40449 -5.159373,3.57187 -0.29871,1.02662 -1.248311,1.98189 -2.228158,2.1084 h -8.668851 c -3.514356,0 -6.343799,2.82944 -6.343799,6.3438 v 32.11277 c 0,3.51436 2.829443,6.34328 6.343799,6.34328"
             id="path96"
             sodipodi:nodetypes="cssscssscsssc" />
          <path
             id="path97"
             style="fill:none;fill-rule:evenodd;stroke:#ff00ff;stroke-width:0.2;stroke-opacity:1"
             d="m 120.13224,116.16544 c 0,0.55229 0.44771,1 1,1 0.55228,0 1,-0.44771 1,-1 0,-0.55228 -0.44772,-1 -1,-1 -0.55229,0 -1,0.44772 -1,1 z m -14.17556,-6.92475 c 0,-0.5799 -0.4701,-1.05 -1.879,-1.05 -1.4089,0 -1.879,0.4701 -1.879,1.05 0,0.5799 0.4701,1.05 1.879,1.05 1.4089,0 1.879,-0.4701 1.879,-1.05 z m -18.465226,24.38959 c 8.142031,1.28216 14.677646,7.61337 16.266896,15.65363 0.1647,0.15052 0.33376,0.2912 0.69477,0 1.58925,-8.04026 8.12487,-14.37147 16.2669,-15.65363 0.25002,-0.20581 0.14559,-0.323 2.6e-4,-0.42997 -8.26737,-1.30179 -14.87856,-7.80927 -16.33696,-16.02586 -0.15997,-0.25089 -0.34502,-0.25087 -0.55516,0 -1.45841,8.21658 -8.069592,14.72407 -16.336967,16.02586 -0.343692,0.14333 -0.199645,0.28665 2.61e-4,0.42997 z m 33.640786,15.64399 c -0.55228,0 -0.99999,0.44772 -1,1 0,0.55228 0.44772,1 1,1 0.55229,0 1,-0.44772 1,-1 0,-0.55228 -0.44771,-1 -1,-1 z m -35.108824,1 c 0,0.55228 0.44771,1 1,1 0.55228,0 1,-0.44772 1,-1 -1e-5,-0.55228 -0.44772,-1 -1,-1 -0.55229,0 -1,0.44772 -1,1 z m 1.30463,-33.8042 c 0.253841,-0.25384 0.154151,-0.56506 -0.473866,-1.19307 -0.628021,-0.62802 -0.939887,-0.72836 -1.193728,-0.47452 -0.25384,0.25384 -0.154294,0.56549 0.473728,1.19352 0.628016,0.62801 0.940026,0.72791 1.193866,0.47407 z"
             sodipodi:nodetypes="sssssssssscccccccccsssssssssssssss" />
        </g>
        <g
           id="g99">
          <path
             style="fill:none;fill-opacity:1;fill-rule:evenodd;stroke:#0000ff;stroke-width:0.2;stroke-opacity:1"
             d="m 81.677441,149.27642 c 0,3.51436 -2.829443,6.34328 -6.343799,6.34328 m -32.11276,0 c -3.514356,0 -6.343799,-2.82892 -6.343799,-6.34328 m 0,-32.11277 c 0,-3.51436 2.829443,-6.3438 6.343799,-6.3438 h 32.11276 c 3.514356,0 6.343799,2.82944 6.343799,6.3438"
             id="path98"
             sodipodi:nodetypes="cccccssc" />
          <path
             id="path99"
             style="fill:none;fill-rule:evenodd;stroke:#ff00ff;stroke-width:0.2;stroke-opacity:1"
             d="m 76.026834,116.47007 c -0.253841,-0.25384 -0.154151,-0.56506 0.473866,-1.19307 0.628021,-0.62802 0.939887,-0.72836 1.193728,-0.47452 0.25384,0.25384 0.154294,0.5655 -0.473728,1.19352 -0.628016,0.62801 -0.940026,0.72791 -1.193866,0.47407 z m -32.80419,-0.30463 c 0,0.55229 -0.44771,1 -1,1 -0.55228,0 -1,-0.44771 -1,-1 0,-0.55228 0.44772,-1 1,-1 0.55229,0 1,0.44772 1,1 z m 32.640782,17.46484 c -8.142031,1.28216 -14.677649,7.61337 -16.2669,15.65363 -0.164693,0.15052 -0.333757,0.2912 -0.694762,0 -1.589252,-8.04026 -8.124872,-14.37147 -16.2669,-15.65363 -0.250026,-0.20581 -0.145595,-0.323 -2.62e-4,-0.42997 8.267371,-1.30179 14.878556,-7.80927 16.336962,-16.02586 0.159971,-0.25089 0.34502,-0.25087 0.555159,0 1.458409,8.21658 8.069589,14.72407 16.336964,16.02586 0.343692,0.14333 0.199645,0.28665 -2.61e-4,0.42997 z m -33.640782,15.64399 c 0.55228,0 0.99999,0.44772 1,1 0,0.55228 -0.44772,1 -1,1 -0.55229,0 -1,-0.44772 -1,-1 0,-0.55228 0.44771,-1 1,-1 z m 35.10882,1 c 0,0.55228 -0.44771,1 -1,1 -0.55228,0 -1,-0.44772 -1,-1 1e-5,-0.55228 0.44772,-1 1,-1 0.55229,0 1,0.44772 1,1 z"
             sodipodi:nodetypes="sssssssssscccccccccssssssssss" />
        </g>
      </g>
      <g
         id="g104"
         transform="rotate(180,80.226301,155.19645)">
        <g
           id="g101">
          <path
             style="fill:none;fill-opacity:1;fill-rule:evenodd;stroke:#0000ff;stroke-width:0.2;stroke-opacity:1"
             d="m 120.134,155.6197 c 3.51435,0 6.3438,-2.82892 6.3438,-6.34328 v -32.11277 c 0,-3.51436 -2.82945,-6.3438 -6.3438,-6.3438 h -8.66885 c -0.97985,-0.12651 -1.87745,-1.09837 -2.22816,-2.1084 -1.16175,-3.34574 -2.60218,-3.57187 -5.15937,-3.57187 -2.55719,0 -4.237766,0.40449 -5.159373,3.57187 -0.29871,1.02662 -1.248311,1.98189 -2.228158,2.1084 h -8.668851 c -3.514356,0 -6.343799,2.82944 -6.343799,6.3438 v 32.11277 c 0,3.51436 2.829443,6.34328 6.343799,6.34328"
             id="path100"
             sodipodi:nodetypes="cssscssscsssc" />
          <path
             id="path101"
             style="fill:none;fill-rule:evenodd;stroke:#ff00ff;stroke-width:0.2;stroke-opacity:1"
             d="m 120.13224,116.16544 c 0,0.55229 0.44771,1 1,1 0.55228,0 1,-0.44771 1,-1 0,-0.55228 -0.44772,-1 -1,-1 -0.55229,0 -1,0.44772 -1,1 z m -14.17556,-6.92475 c 0,-0.5799 -0.4701,-1.05 -1.879,-1.05 -1.4089,0 -1.879,0.4701 -1.879,1.05 0,0.5799 0.4701,1.05 1.879,1.05 1.4089,0 1.879,-0.4701 1.879,-1.05 z m -18.465226,24.38959 c 8.142031,1.28216 14.677646,7.61337 16.266896,15.65363 0.1647,0.15052 0.33376,0.2912 0.69477,0 1.58925,-8.04026 8.12487,-14.37147 16.2669,-15.65363 0.25002,-0.20581 0.14559,-0.323 2.6e-4,-0.42997 -8.26737,-1.30179 -14.87856,-7.80927 -16.33696,-16.02586 -0.15997,-0.25089 -0.34502,-0.25087 -0.55516,0 -1.45841,8.21658 -8.069592,14.72407 -16.336967,16.02586 -0.343692,0.14333 -0.199645,0.28665 2.61e-4,0.42997 z m 33.640786,15.64399 c -0.55228,0 -0.99999,0.44772 -1,1 0,0.55228 0.44772,1 1,1 0.55229,0 1,-0.44772 1,-1 0,-0.55228 -0.44771,-1 -1,-1 z m -35.108824,1 c 0,0.55228 0.44771,1 1,1 0.55228,0 1,-0.44772 1,-1 -1e-5,-0.55228 -0.44772,-1 -1,-1 -0.55229,0 -1,0.44772 -1,1 z m 1.30463,-33.8042 c 0.253841,-0.25384 0.154151,-0.56506 -0.473866,-1.19307 -0.628021,-0.62802 -0.939887,-0.72836 -1.193728,-0.47452 -0.25384,0.25384 -0.154294,0.56549 0.473728,1.19352 0.628016,0.62801 0.940026,0.72791 1.193866,0.47407 z"
             sodipodi:nodetypes="sssssssssscccccccccsssssssssssssss" />
        </g>
        <g
           id="g103">
          <path
             style="fill:none;fill-opacity:1;fill-rule:evenodd;stroke:#0000ff;stroke-width:0.2;stroke-opacity:1"
             d="m 81.677441,149.27642 c 0,3.51436 -2.829443,6.34328 -6.343799,6.34328 m -32.11276,0 c -3.514356,0 -6.343799,-2.82892 -6.343799,-6.34328 m 0,-32.11277 c 0,-3.51436 2.829443,-6.3438 6.343799,-6.3438 h 32.11276 c 3.514356,0 6.343799,2.82944 6.343799,6.3438"
             id="path102"
             sodipodi:nodetypes="cccccssc" />
          <path
             id="path103"
             style="fill:none;fill-rule:evenodd;stroke:#ff00ff;stroke-width:0.2;stroke-opacity:1"
             d="m 76.026834,116.47007 c -0.253841,-0.25384 -0.154151,-0.56506 0.473866,-1.19307 0.628021,-0.62802 0.939887,-0.72836 1.193728,-0.47452 0.25384,0.25384 0.154294,0.5655 -0.473728,1.19352 -0.628016,0.62801 -0.940026,0.72791 -1.193866,0.47407 z m -32.80419,-0.30463 c 0,0.55229 -0.44771,1 -1,1 -0.55228,0 -1,-0.44771 -1,-1 0,-0.55228 0.44772,-1 1,-1 0.55229,0 1,0.44772 1,1 z m 32.640782,17.46484 c -8.142031,1.28216 -14.677649,7.61337 -16.2669,15.65363 -0.164693,0.15052 -0.333757,0.2912 -0.694762,0 -1.589252,-8.04026 -8.124872,-14.37147 -16.2669,-15.65363 -0.250026,-0.20581 -0.145595,-0.323 -2.62e-4,-0.42997 8.267371,-1.30179 14.878556,-7.80927 16.336962,-16.02586 0.159971,-0.25089 0.34502,-0.25087 0.555159,0 1.458409,8.21658 8.069589,14.72407 16.336964,16.02586 0.343692,0.14333 0.199645,0.28665 -2.61e-4,0.42997 z m -33.640782,15.64399 c 0.55228,0 0.99999,0.44772 1,1 0,0.55228 -0.44772,1 -1,1 -0.55229,0 -1,-0.44772 -1,-1 0,-0.55228 0.44771,-1 1,-1 z m 35.10882,1 c 0,0.55228 -0.44771,1 -1,1 -0.55228,0 -1,-0.44772 -1,-1 1e-5,-0.55228 0.44772,-1 1,-1 0.55229,0 1,0.44772 1,1 z"
             sodipodi:nodetypes="sssssssssscccccccccssssssssss" />
        </g>
      </g>
    </g>
  </g>
</svg>
