<?xml version="1.0" encoding="UTF-8" standalone="no"?>
<!-- Created with Inkscape (http://www.inkscape.org/) -->

<svg
   width="179.40335mm"
   height="269.19916mm"
   viewBox="0 0 179.40335 269.19916"
   version="1.1"
   id="svg1"
   inkscape:version="1.3 (0e150ed6c4, 2023-07-21)"
   sodipodi:docname="TranslucentLayerQty20.svg"
   xmlns:inkscape="http://www.inkscape.org/namespaces/inkscape"
   xmlns:sodipodi="http://sodipodi.sourceforge.net/DTD/sodipodi-0.dtd"
   xmlns="http://www.w3.org/2000/svg"
   xmlns:svg="http://www.w3.org/2000/svg">
  <sodipodi:namedview
     id="namedview1"
     pagecolor="#ffffff"
     bordercolor="#666666"
     borderopacity="1.0"
     inkscape:showpageshadow="2"
     inkscape:pageopacity="0.0"
     inkscape:pagecheckerboard="0"
     inkscape:deskcolor="#d1d1d1"
     inkscape:document-units="mm"
     inkscape:zoom="0.70710678"
     inkscape:cx="239.7092"
     inkscape:cy="613.76869"
     inkscape:window-width="2560"
     inkscape:window-height="1387"
     inkscape:window-x="-8"
     inkscape:window-y="892"
     inkscape:window-maximized="1"
     inkscape:current-layer="layer1" />
  <defs
     id="defs1" />
  <g
     inkscape:label="Layer 1"
     inkscape:groupmode="layer"
     id="layer1"
     transform="translate(-9.4896049,-13.380114)">
    <g
       id="g2"
       transform="translate(-87.80043,-39.09033)">
      <path
         style="fill:none;fill-rule:evenodd;stroke:#ff0000;stroke-width:0.2;stroke-opacity:1"
         d="m 111.23421,53.000277 c 0.81259,1.455563 1.24582,3.095402 1.2556,4.767782 -0.003,2.327208 -0.82606,4.575402 -2.31841,6.352547 -0.16288,0.183413 -0.23848,0.199572 -0.0596,0.378495 l 0.64485,0.503973 c 0.189,0.158348 0.2775,0.06545 0.39096,0.03495 0.26298,-0.280908 0.37726,-0.22725 0.48199,-0.152092 l 2.74848,2.748934 c 0.20194,0.11343 0.28129,0.260295 0.0419,0.49409 l -0.64955,0.649924 -0.63303,0.63303 c -0.19696,0.132308 -0.36242,0.07556 -0.51939,-0.03208 l -2.71848,-2.718482 c -0.041,-0.128237 -0.12109,-0.239767 0.10894,-0.484181 0.11988,-0.166482 0.18853,-0.386545 0.0264,-0.512734 l -0.50639,-0.506387 c -0.15346,-0.115632 -0.27588,-0.07607 -0.38932,0.0084 -1.80239,1.602791 -4.13112,2.494706 -6.54953,2.501794 -1.6618,-0.0097 -3.291456,-0.437542 -4.740122,-1.240215 -0.19974,-0.06431 -0.48304,-0.323585 -0.45748,0.13781 v 24.460666 c 0,3.51437 2.828912,6.3438 6.343272,6.3438 h 32.11277 c 3.51436,0 6.3438,-2.82943 6.3438,-6.3438 V 58.913726 c 0,-3.514362 -2.82944,-6.343282 -6.3438,-6.343282 h -24.23558 c -0.35393,0.0066 -0.42592,0.182324 -0.3783,0.429833 z"
         id="path25" />
      <path
         id="path10"
         style="fill:none;fill-rule:evenodd;stroke:#00ffff;stroke-width:0.2;stroke-opacity:1"
         d="m 102.73746,91.024523 c 0.55228,0 0.99999,0.447712 1,0.999994 0,0.552285 -0.44772,1 -1,1 -0.55229,0 -1,-0.447715 -1,-1 0,-0.552282 0.44771,-0.999994 1,-0.999994 z m 35.10882,0.999994 c 0,0.552285 -0.44771,1 -1,1 -0.55228,0 -1,-0.447715 -1,-1 1e-5,-0.552282 0.44772,-0.999994 1,-0.999994 0.55229,0 1,0.447712 1,0.999994 z m 0,-34.108825 c 0,0.552284 -0.44771,1 -1,1 -0.55228,0 -1,-0.447716 -1,-1 0,-0.552285 0.44772,-1 1,-1 0.55229,0 1,0.447715 1,1 z" />
    </g>
    <g
       id="g3"
       transform="matrix(-1,0,0,1,196.58331,-39.09033)">
      <path
         style="fill:none;fill-rule:evenodd;stroke:#ff0000;stroke-width:0.2;stroke-opacity:1"
         d="m 142.19187,58.913726 c 0,-3.514362 -2.82944,-6.343282 -6.3438,-6.343282 h -24.23558 c -0.35393,0.0066 -0.42592,0.182324 -0.3783,0.429833 h 2e-5 c 0.81259,1.455563 1.24582,3.095402 1.2556,4.767782 -0.003,2.327208 -0.82606,4.575402 -2.31841,6.352547 -0.16288,0.183413 -0.23848,0.199572 -0.0596,0.378495 l 0.64485,0.503973 c 0.189,0.158348 0.2775,0.06545 0.39096,0.03495 0.26298,-0.280908 0.37726,-0.22725 0.48199,-0.152092 l 2.74848,2.748934 c 0.20194,0.11343 0.28129,0.260295 0.0419,0.49409 l -0.64955,0.649924 -0.63303,0.63303 c -0.19696,0.132308 -0.36242,0.07556 -0.51939,-0.03208 l -2.71848,-2.718482 c -0.041,-0.128237 -0.12109,-0.239767 0.10894,-0.484181 0.11988,-0.166482 0.18853,-0.386545 0.0264,-0.512734 l -0.50639,-0.506387 c -0.15346,-0.115632 -0.27588,-0.07607 -0.38932,0.0084 -1.80239,1.602791 -4.13112,2.494706 -6.54953,2.501794 -1.6618,-0.0097 -3.291456,-0.437542 -4.740122,-1.240215 -0.19974,-0.06431 -0.48304,-0.323585 -0.45748,0.13781 v 24.460666 c 0,3.51437 2.828912,6.3438 6.343272,6.3438 h 32.11277 c 3.51436,0 6.3438,-2.82943 6.3438,-6.3438"
         id="path1"
         sodipodi:nodetypes="csccccccccccccccccccccccsssc" />
      <path
         id="path2"
         style="fill:none;fill-rule:evenodd;stroke:#00ffff;stroke-width:0.2;stroke-opacity:1"
         d="m 102.73746,91.024523 c 0.55228,0 0.99999,0.447712 1,0.999994 0,0.552285 -0.44772,1 -1,1 -0.55229,0 -1,-0.447715 -1,-1 0,-0.552282 0.44771,-0.999994 1,-0.999994 z m 35.10882,0.999994 c 0,0.552285 -0.44771,1 -1,1 -0.55228,0 -1,-0.447715 -1,-1 1e-5,-0.552282 0.44772,-0.999994 1,-0.999994 0.55229,0 1,0.447712 1,0.999994 z m 0,-34.108825 c 0,0.552284 -0.44771,1 -1,1 -0.55228,0 -1,-0.447716 -1,-1 0,-0.552285 0.44772,-1 1,-1 0.55229,0 1,0.447715 1,1 z" />
    </g>
    <g
       id="g4"
       transform="translate(1.7992499,-39.09033)">
      <path
         style="fill:none;fill-rule:evenodd;stroke:#ff0000;stroke-width:0.2;stroke-opacity:1"
         d="m 97.392028,91.026501 c 0,3.51437 2.828912,6.3438 6.343272,6.3438 h 32.11277 c 3.51436,0 6.3438,-2.82943 6.3438,-6.3438 V 58.913726 c 0,-3.514362 -2.82944,-6.343282 -6.3438,-6.343282 h -24.23558 c -0.35393,0.0066 -0.42592,0.182324 -0.3783,0.429833 h 2e-5 c 0.81259,1.455563 1.24582,3.095402 1.2556,4.767782 -0.003,2.327208 -0.82606,4.575402 -2.31841,6.352547 -0.16288,0.183413 -0.23848,0.199572 -0.0596,0.378495 l 0.64485,0.503973 c 0.189,0.158348 0.2775,0.06545 0.39096,0.03495 0.26298,-0.280908 0.37726,-0.22725 0.48199,-0.152092 l 2.74848,2.748934 c 0.20194,0.11343 0.28129,0.260295 0.0419,0.49409 l -0.64955,0.649924 -0.63303,0.63303 c -0.19696,0.132308 -0.36242,0.07556 -0.51939,-0.03208 l -2.71848,-2.718482 c -0.041,-0.128237 -0.12109,-0.239767 0.10894,-0.484181 0.11988,-0.166482 0.18853,-0.386545 0.0264,-0.512734 l -0.50639,-0.506387 c -0.15346,-0.115632 -0.27588,-0.07607 -0.38932,0.0084 -1.80239,1.602791 -4.13112,2.494706 -6.54953,2.501794 -1.6618,-0.0097 -3.291456,-0.437542 -4.740122,-1.240215 -0.19974,-0.06431 -0.48304,-0.323585 -0.45748,0.13781"
         id="path3"
         sodipodi:nodetypes="cssssscssccccccccccccccccccc" />
      <path
         id="path4"
         style="fill:none;fill-rule:evenodd;stroke:#00ffff;stroke-width:0.2;stroke-opacity:1"
         d="m 102.73746,91.024523 c 0.55228,0 0.99999,0.447712 1,0.999994 0,0.552285 -0.44772,1 -1,1 -0.55229,0 -1,-0.447715 -1,-1 0,-0.552282 0.44771,-0.999994 1,-0.999994 z m 35.10882,0.999994 c 0,0.552285 -0.44771,1 -1,1 -0.55228,0 -1,-0.447715 -1,-1 1e-5,-0.552282 0.44772,-0.999994 1,-0.999994 0.55229,0 1,0.447712 1,0.999994 z m 0,-34.108825 c 0,0.552284 -0.44771,1 -1,1 -0.55228,0 -1,-0.447716 -1,-1 0,-0.552285 0.44772,-1 1,-1 0.55229,0 1,0.447715 1,1 z" />
    </g>
    <g
       id="g6"
       transform="matrix(-1,0,0,1,286.18299,-39.09033)">
      <path
         style="fill:none;fill-rule:evenodd;stroke:#ff0000;stroke-width:0.2;stroke-opacity:1"
         d="m 142.19187,58.913726 c 0,-3.514362 -2.82944,-6.343282 -6.3438,-6.343282 h -24.23558 c -0.35393,0.0066 -0.42592,0.182324 -0.3783,0.429833 h 2e-5 c 0.81259,1.455563 1.24582,3.095402 1.2556,4.767782 -0.003,2.327208 -0.82606,4.575402 -2.31841,6.352547 -0.16288,0.183413 -0.23848,0.199572 -0.0596,0.378495 l 0.64485,0.503973 c 0.189,0.158348 0.2775,0.06545 0.39096,0.03495 0.26298,-0.280908 0.37726,-0.22725 0.48199,-0.152092 l 2.74848,2.748934 c 0.20194,0.11343 0.28129,0.260295 0.0419,0.49409 l -0.64955,0.649924 -0.63303,0.63303 c -0.19696,0.132308 -0.36242,0.07556 -0.51939,-0.03208 l -2.71848,-2.718482 c -0.041,-0.128237 -0.12109,-0.239767 0.10894,-0.484181 0.11988,-0.166482 0.18853,-0.386545 0.0264,-0.512734 l -0.50639,-0.506387 c -0.15346,-0.115632 -0.27588,-0.07607 -0.38932,0.0084 -1.80239,1.602791 -4.13112,2.494706 -6.54953,2.501794 -1.6618,-0.0097 -3.291456,-0.437542 -4.740122,-1.240215 -0.19974,-0.06431 -0.48304,-0.323585 -0.45748,0.13781 v 24.460666 c 0,3.51437 2.828912,6.3438 6.343272,6.3438 h 32.11277 c 3.51436,0 6.3438,-2.82943 6.3438,-6.3438"
         id="path5"
         sodipodi:nodetypes="csccccccccccccccccccccccsssc" />
      <path
         id="path6"
         style="fill:none;fill-rule:evenodd;stroke:#00ffff;stroke-width:0.2;stroke-opacity:1"
         d="m 102.73746,91.024523 c 0.55228,0 0.99999,0.447712 1,0.999994 0,0.552285 -0.44772,1 -1,1 -0.55229,0 -1,-0.447715 -1,-1 0,-0.552282 0.44771,-0.999994 1,-0.999994 z m 35.10882,0.999994 c 0,0.552285 -0.44771,1 -1,1 -0.55228,0 -1,-0.447715 -1,-1 1e-5,-0.552282 0.44772,-0.999994 1,-0.999994 0.55229,0 1,0.447712 1,0.999994 z m 0,-34.108825 c 0,0.552284 -0.44771,1 -1,1 -0.55228,0 -1,-0.447716 -1,-1 0,-0.552285 0.44772,-1 1,-1 0.55229,0 1,0.447715 1,1 z" />
    </g>
    <g
       id="g8"
       transform="matrix(1,0,0,-1,-87.80043,155.65027)">
      <path
         style="fill:none;fill-rule:evenodd;stroke:#ff0000;stroke-width:0.2;stroke-opacity:1"
         d="m 135.84807,97.370301 c 3.51436,0 6.3438,-2.82943 6.3438,-6.3438 V 58.913726 c 0,-3.514362 -2.82944,-6.343282 -6.3438,-6.343282 h -24.23558 c -0.35393,0.0066 -0.42592,0.182324 -0.3783,0.429833 h 2e-5 c 0.81259,1.455563 1.24582,3.095402 1.2556,4.767782 -0.003,2.327208 -0.82606,4.575402 -2.31841,6.352547 -0.16288,0.183413 -0.23848,0.199572 -0.0596,0.378495 l 0.64485,0.503973 c 0.189,0.158348 0.2775,0.06545 0.39096,0.03495 0.26298,-0.280908 0.37726,-0.22725 0.48199,-0.152092 l 2.74848,2.748934 c 0.20194,0.11343 0.28129,0.260295 0.0419,0.49409 l -0.64955,0.649924 -0.63303,0.63303 c -0.19696,0.132308 -0.36242,0.07556 -0.51939,-0.03208 l -2.71848,-2.718482 c -0.041,-0.128237 -0.12109,-0.239767 0.10894,-0.484181 0.11988,-0.166482 0.18853,-0.386545 0.0264,-0.512734 l -0.50639,-0.506387 c -0.15346,-0.115632 -0.27588,-0.07607 -0.38932,0.0084 -1.80239,1.602791 -4.13112,2.494706 -6.54953,2.501794 -1.6618,-0.0097 -3.291456,-0.437542 -4.740122,-1.240215 -0.19974,-0.06431 -0.48304,-0.323585 -0.45748,0.13781 v 24.460666 c 0,3.51437 2.828912,6.3438 6.343272,6.3438"
         id="path7"
         sodipodi:nodetypes="cssscsscccccccccccccccccccsc" />
      <path
         id="path8"
         style="fill:none;fill-rule:evenodd;stroke:#00ffff;stroke-width:0.2;stroke-opacity:1"
         d="m 102.73746,91.024523 c 0.55228,0 0.99999,0.447712 1,0.999994 0,0.552285 -0.44772,1 -1,1 -0.55229,0 -1,-0.447715 -1,-1 0,-0.552282 0.44771,-0.999994 1,-0.999994 z m 35.10882,0.999994 c 0,0.552285 -0.44771,1 -1,1 -0.55228,0 -1,-0.447715 -1,-1 1e-5,-0.552282 0.44772,-0.999994 1,-0.999994 0.55229,0 1,0.447712 1,0.999994 z m 0,-34.108825 c 0,0.552284 -0.44771,1 -1,1 -0.55228,0 -1,-0.447716 -1,-1 0,-0.552285 0.44772,-1 1,-1 0.55229,0 1,0.447715 1,1 z" />
    </g>
    <g
       id="g11"
       transform="rotate(180,98.291653,77.825136)">
      <path
         style="fill:none;fill-rule:evenodd;stroke:#ff0000;stroke-width:0.2;stroke-opacity:1"
         d="m 142.19187,58.913726 c 0,-3.514362 -2.82944,-6.343282 -6.3438,-6.343282 h -24.23558 c -0.35393,0.0066 -0.42592,0.182324 -0.3783,0.429833 h 2e-5 c 0.81259,1.455563 1.24582,3.095402 1.2556,4.767782 -0.003,2.327208 -0.82606,4.575402 -2.31841,6.352547 -0.16288,0.183413 -0.23848,0.199572 -0.0596,0.378495 l 0.64485,0.503973 c 0.189,0.158348 0.2775,0.06545 0.39096,0.03495 0.26298,-0.280908 0.37726,-0.22725 0.48199,-0.152092 l 2.74848,2.748934 c 0.20194,0.11343 0.28129,0.260295 0.0419,0.49409 l -0.64955,0.649924 -0.63303,0.63303 c -0.19696,0.132308 -0.36242,0.07556 -0.51939,-0.03208 l -2.71848,-2.718482 c -0.041,-0.128237 -0.12109,-0.239767 0.10894,-0.484181 0.11988,-0.166482 0.18853,-0.386545 0.0264,-0.512734 l -0.50639,-0.506387 c -0.15346,-0.115632 -0.27588,-0.07607 -0.38932,0.0084 -1.80239,1.602791 -4.13112,2.494706 -6.54953,2.501794 -1.6618,-0.0097 -3.291456,-0.437542 -4.740122,-1.240215 -0.19974,-0.06431 -0.48304,-0.323585 -0.45748,0.13781 v 24.460666 c 0,3.51437 2.828912,6.3438 6.343272,6.3438 m 32.11277,0 c 3.51436,0 6.3438,-2.82943 6.3438,-6.3438"
         id="path9"
         sodipodi:nodetypes="csccccccccccccccccccccccsccc" />
      <path
         id="path11"
         style="fill:none;fill-rule:evenodd;stroke:#00ffff;stroke-width:0.2;stroke-opacity:1"
         d="m 102.73746,91.024523 c 0.55228,0 0.99999,0.447712 1,0.999994 0,0.552285 -0.44772,1 -1,1 -0.55229,0 -1,-0.447715 -1,-1 0,-0.552282 0.44771,-0.999994 1,-0.999994 z m 35.10882,0.999994 c 0,0.552285 -0.44771,1 -1,1 -0.55228,0 -1,-0.447715 -1,-1 1e-5,-0.552282 0.44772,-0.999994 1,-0.999994 0.55229,0 1,0.447712 1,0.999994 z m 0,-34.108825 c 0,0.552284 -0.44771,1 -1,1 -0.55228,0 -1,-0.447716 -1,-1 0,-0.552285 0.44772,-1 1,-1 0.55229,0 1,0.447715 1,1 z" />
    </g>
    <g
       id="g13"
       transform="matrix(1,0,0,-1,1.7992499,155.65027)">
      <path
         style="fill:none;fill-rule:evenodd;stroke:#ff0000;stroke-width:0.2;stroke-opacity:1"
         d="m 97.392028,91.026501 c 0,3.51437 2.828912,6.3438 6.343272,6.3438 m 32.11277,0 c 3.51436,0 6.3438,-2.82943 6.3438,-6.3438 V 58.913726 c 0,-3.514362 -2.82944,-6.343282 -6.3438,-6.343282 h -24.23558 c -0.35393,0.0066 -0.42592,0.182324 -0.3783,0.429833 h 2e-5 c 0.81259,1.455563 1.24582,3.095402 1.2556,4.767782 -0.003,2.327208 -0.82606,4.575402 -2.31841,6.352547 -0.16288,0.183413 -0.23848,0.199572 -0.0596,0.378495 l 0.64485,0.503973 c 0.189,0.158348 0.2775,0.06545 0.39096,0.03495 0.26298,-0.280908 0.37726,-0.22725 0.48199,-0.152092 l 2.74848,2.748934 c 0.20194,0.11343 0.28129,0.260295 0.0419,0.49409 l -0.64955,0.649924 -0.63303,0.63303 c -0.19696,0.132308 -0.36242,0.07556 -0.51939,-0.03208 l -2.71848,-2.718482 c -0.041,-0.128237 -0.12109,-0.239767 0.10894,-0.484181 0.11988,-0.166482 0.18853,-0.386545 0.0264,-0.512734 l -0.50639,-0.506387 c -0.15346,-0.115632 -0.27588,-0.07607 -0.38932,0.0084 -1.80239,1.602791 -4.13112,2.494706 -6.54953,2.501794 -1.6618,-0.0097 -3.291456,-0.437542 -4.740122,-1.240215 -0.19974,-0.06431 -0.48304,-0.323585 -0.45748,0.13781"
         id="path12"
         sodipodi:nodetypes="cccssscssccccccccccccccccccc" />
      <path
         id="path13"
         style="fill:none;fill-rule:evenodd;stroke:#00ffff;stroke-width:0.2;stroke-opacity:1"
         d="m 102.73746,91.024523 c 0.55228,0 0.99999,0.447712 1,0.999994 0,0.552285 -0.44772,1 -1,1 -0.55229,0 -1,-0.447715 -1,-1 0,-0.552282 0.44771,-0.999994 1,-0.999994 z m 35.10882,0.999994 c 0,0.552285 -0.44771,1 -1,1 -0.55228,0 -1,-0.447715 -1,-1 1e-5,-0.552282 0.44772,-0.999994 1,-0.999994 0.55229,0 1,0.447712 1,0.999994 z m 0,-34.108825 c 0,0.552284 -0.44771,1 -1,1 -0.55228,0 -1,-0.447716 -1,-1 0,-0.552285 0.44772,-1 1,-1 0.55229,0 1,0.447715 1,1 z" />
    </g>
    <g
       id="g15"
       transform="rotate(180,143.09149,77.825136)">
      <path
         style="fill:none;fill-rule:evenodd;stroke:#ff0000;stroke-width:0.2;stroke-opacity:1"
         d="m 142.19187,58.913726 c 0,-3.514362 -2.82944,-6.343282 -6.3438,-6.343282 h -24.23558 c -0.35393,0.0066 -0.42592,0.182324 -0.3783,0.429833 h 2e-5 c 0.81259,1.455563 1.24582,3.095402 1.2556,4.767782 -0.003,2.327208 -0.82606,4.575402 -2.31841,6.352547 -0.16288,0.183413 -0.23848,0.199572 -0.0596,0.378495 l 0.64485,0.503973 c 0.189,0.158348 0.2775,0.06545 0.39096,0.03495 0.26298,-0.280908 0.37726,-0.22725 0.48199,-0.152092 l 2.74848,2.748934 c 0.20194,0.11343 0.28129,0.260295 0.0419,0.49409 l -0.64955,0.649924 -0.63303,0.63303 c -0.19696,0.132308 -0.36242,0.07556 -0.51939,-0.03208 l -2.71848,-2.718482 c -0.041,-0.128237 -0.12109,-0.239767 0.10894,-0.484181 0.11988,-0.166482 0.18853,-0.386545 0.0264,-0.512734 l -0.50639,-0.506387 c -0.15346,-0.115632 -0.27588,-0.07607 -0.38932,0.0084 -1.80239,1.602791 -4.13112,2.494706 -6.54953,2.501794 -1.6618,-0.0097 -3.291456,-0.437542 -4.740122,-1.240215 -0.19974,-0.06431 -0.48304,-0.323585 -0.45748,0.13781 v 24.460666 c 0,3.51437 2.828912,6.3438 6.343272,6.3438 m 32.11277,0 c 3.51436,0 6.3438,-2.82943 6.3438,-6.3438"
         id="path14"
         sodipodi:nodetypes="csccccccccccccccccccccccsccc" />
      <path
         id="path15"
         style="fill:none;fill-rule:evenodd;stroke:#00ffff;stroke-width:0.2;stroke-opacity:1"
         d="m 102.73746,91.024523 c 0.55228,0 0.99999,0.447712 1,0.999994 0,0.552285 -0.44772,1 -1,1 -0.55229,0 -1,-0.447715 -1,-1 0,-0.552282 0.44771,-0.999994 1,-0.999994 z m 35.10882,0.999994 c 0,0.552285 -0.44771,1 -1,1 -0.55228,0 -1,-0.447715 -1,-1 1e-5,-0.552282 0.44772,-0.999994 1,-0.999994 0.55229,0 1,0.447712 1,0.999994 z m 0,-34.108825 c 0,0.552284 -0.44771,1 -1,1 -0.55228,0 -1,-0.447716 -1,-1 0,-0.552285 0.44772,-1 1,-1 0.55229,0 1,0.447715 1,1 z" />
    </g>
    <g
       id="g17"
       transform="translate(-87.80043,50.509388)">
      <path
         style="fill:none;fill-rule:evenodd;stroke:#ff0000;stroke-width:0.2;stroke-opacity:1"
         d="m 111.61249,52.570444 c -0.35393,0.0066 -0.42592,0.182324 -0.3783,0.429833 h 2e-5 c 0.81259,1.455563 1.24582,3.095402 1.2556,4.767782 -0.003,2.327208 -0.82606,4.575402 -2.31841,6.352547 -0.16288,0.183413 -0.23848,0.199572 -0.0596,0.378495 l 0.64485,0.503973 c 0.189,0.158348 0.2775,0.06545 0.39096,0.03495 0.26298,-0.280908 0.37726,-0.22725 0.48199,-0.152092 l 2.74848,2.748934 c 0.20194,0.11343 0.28129,0.260295 0.0419,0.49409 l -0.64955,0.649924 -0.63303,0.63303 c -0.19696,0.132308 -0.36242,0.07556 -0.51939,-0.03208 l -2.71848,-2.718482 c -0.041,-0.128237 -0.12109,-0.239767 0.10894,-0.484181 0.11988,-0.166482 0.18853,-0.386545 0.0264,-0.512734 l -0.50639,-0.506387 c -0.15346,-0.115632 -0.27588,-0.07607 -0.38932,0.0084 -1.80239,1.602791 -4.13112,2.494706 -6.54953,2.501794 -1.6618,-0.0097 -3.291456,-0.437542 -4.740122,-1.240215 -0.19974,-0.06431 -0.48304,-0.323585 -0.45748,0.13781 v 24.460666 c 0,3.51437 2.828912,6.3438 6.343272,6.3438 h 32.11277 c 3.51436,0 6.3438,-2.82943 6.3438,-6.3438 V 58.913726 c 0,-3.514362 -2.82944,-6.343282 -6.3438,-6.343282"
         id="path16"
         sodipodi:nodetypes="csscccccccccccccccccccsssssc" />
      <path
         id="path17"
         style="fill:none;fill-rule:evenodd;stroke:#00ffff;stroke-width:0.2;stroke-opacity:1"
         d="m 102.73746,91.024523 c 0.55228,0 0.99999,0.447712 1,0.999994 0,0.552285 -0.44772,1 -1,1 -0.55229,0 -1,-0.447715 -1,-1 0,-0.552282 0.44771,-0.999994 1,-0.999994 z m 35.10882,0.999994 c 0,0.552285 -0.44771,1 -1,1 -0.55228,0 -1,-0.447715 -1,-1 1e-5,-0.552282 0.44772,-0.999994 1,-0.999994 0.55229,0 1,0.447712 1,0.999994 z m 0,-34.108825 c 0,0.552284 -0.44771,1 -1,1 -0.55228,0 -1,-0.447716 -1,-1 0,-0.552285 0.44772,-1 1,-1 0.55229,0 1,0.447715 1,1 z" />
    </g>
    <g
       id="g19"
       transform="matrix(-1,0,0,1,196.58331,50.509388)">
      <path
         style="fill:none;fill-rule:evenodd;stroke:#ff0000;stroke-width:0.2;stroke-opacity:1"
         d="m 142.19187,58.913726 c 0,-3.514362 -2.82944,-6.343282 -6.3438,-6.343282 m -24.23558,0 c -0.35393,0.0066 -0.42592,0.182324 -0.3783,0.429833 h 2e-5 c 0.81259,1.455563 1.24582,3.095402 1.2556,4.767782 -0.003,2.327208 -0.82606,4.575402 -2.31841,6.352547 -0.16288,0.183413 -0.23848,0.199572 -0.0596,0.378495 l 0.64485,0.503973 c 0.189,0.158348 0.2775,0.06545 0.39096,0.03495 0.26298,-0.280908 0.37726,-0.22725 0.48199,-0.152092 l 2.74848,2.748934 c 0.20194,0.11343 0.28129,0.260295 0.0419,0.49409 l -0.64955,0.649924 -0.63303,0.63303 c -0.19696,0.132308 -0.36242,0.07556 -0.51939,-0.03208 l -2.71848,-2.718482 c -0.041,-0.128237 -0.12109,-0.239767 0.10894,-0.484181 0.11988,-0.166482 0.18853,-0.386545 0.0264,-0.512734 l -0.50639,-0.506387 c -0.15346,-0.115632 -0.27588,-0.07607 -0.38932,0.0084 -1.80239,1.602791 -4.13112,2.494706 -6.54953,2.501794 -1.6618,-0.0097 -3.291456,-0.437542 -4.740122,-1.240215 -0.19974,-0.06431 -0.48304,-0.323585 -0.45748,0.13781 v 24.460666 c 0,3.51437 2.828912,6.3438 6.343272,6.3438 h 32.11277 c 3.51436,0 6.3438,-2.82943 6.3438,-6.3438"
         id="path18"
         sodipodi:nodetypes="ccccccccccccccccccccccccsssc" />
      <path
         id="path19"
         style="fill:none;fill-rule:evenodd;stroke:#00ffff;stroke-width:0.2;stroke-opacity:1"
         d="m 102.73746,91.024523 c 0.55228,0 0.99999,0.447712 1,0.999994 0,0.552285 -0.44772,1 -1,1 -0.55229,0 -1,-0.447715 -1,-1 0,-0.552282 0.44771,-0.999994 1,-0.999994 z m 35.10882,0.999994 c 0,0.552285 -0.44771,1 -1,1 -0.55228,0 -1,-0.447715 -1,-1 1e-5,-0.552282 0.44772,-0.999994 1,-0.999994 0.55229,0 1,0.447712 1,0.999994 z m 0,-34.108825 c 0,0.552284 -0.44771,1 -1,1 -0.55228,0 -1,-0.447716 -1,-1 0,-0.552285 0.44772,-1 1,-1 0.55229,0 1,0.447715 1,1 z" />
    </g>
    <g
       id="g21"
       transform="translate(1.7992499,50.509388)">
      <path
         style="fill:none;fill-rule:evenodd;stroke:#ff0000;stroke-width:0.2;stroke-opacity:1"
         d="m 97.392028,91.026501 c 0,3.51437 2.828912,6.3438 6.343272,6.3438 h 32.11277 c 3.51436,0 6.3438,-2.82943 6.3438,-6.3438 V 58.913726 c 0,-3.514362 -2.82944,-6.343282 -6.3438,-6.343282 m -24.23558,0 c -0.35393,0.0066 -0.42592,0.182324 -0.3783,0.429833 h 2e-5 c 0.81259,1.455563 1.24582,3.095402 1.2556,4.767782 -0.003,2.327208 -0.82606,4.575402 -2.31841,6.352547 -0.16288,0.183413 -0.23848,0.199572 -0.0596,0.378495 l 0.64485,0.503973 c 0.189,0.158348 0.2775,0.06545 0.39096,0.03495 0.26298,-0.280908 0.37726,-0.22725 0.48199,-0.152092 l 2.74848,2.748934 c 0.20194,0.11343 0.28129,0.260295 0.0419,0.49409 l -0.64955,0.649924 -0.63303,0.63303 c -0.19696,0.132308 -0.36242,0.07556 -0.51939,-0.03208 l -2.71848,-2.718482 c -0.041,-0.128237 -0.12109,-0.239767 0.10894,-0.484181 0.11988,-0.166482 0.18853,-0.386545 0.0264,-0.512734 l -0.50639,-0.506387 c -0.15346,-0.115632 -0.27588,-0.07607 -0.38932,0.0084 -1.80239,1.602791 -4.13112,2.494706 -6.54953,2.501794 -1.6618,-0.0097 -3.291456,-0.437542 -4.740122,-1.240215 -0.19974,-0.06431 -0.48304,-0.323585 -0.45748,0.13781"
         id="path20"
         sodipodi:nodetypes="cssssccssccccccccccccccccccc" />
      <path
         id="path21"
         style="fill:none;fill-rule:evenodd;stroke:#00ffff;stroke-width:0.2;stroke-opacity:1"
         d="m 102.73746,91.024523 c 0.55228,0 0.99999,0.447712 1,0.999994 0,0.552285 -0.44772,1 -1,1 -0.55229,0 -1,-0.447715 -1,-1 0,-0.552282 0.44771,-0.999994 1,-0.999994 z m 35.10882,0.999994 c 0,0.552285 -0.44771,1 -1,1 -0.55228,0 -1,-0.447715 -1,-1 1e-5,-0.552282 0.44772,-0.999994 1,-0.999994 0.55229,0 1,0.447712 1,0.999994 z m 0,-34.108825 c 0,0.552284 -0.44771,1 -1,1 -0.55228,0 -1,-0.447716 -1,-1 0,-0.552285 0.44772,-1 1,-1 0.55229,0 1,0.447715 1,1 z" />
    </g>
    <g
       id="g23"
       transform="matrix(-1,0,0,1,286.18299,50.509388)">
      <path
         style="fill:none;fill-rule:evenodd;stroke:#ff0000;stroke-width:0.2;stroke-opacity:1"
         d="m 142.19187,58.913726 c 0,-3.514362 -2.82944,-6.343282 -6.3438,-6.343282 m -24.23558,0 c -0.35393,0.0066 -0.42592,0.182324 -0.3783,0.429833 h 2e-5 c 0.81259,1.455563 1.24582,3.095402 1.2556,4.767782 -0.003,2.327208 -0.82606,4.575402 -2.31841,6.352547 -0.16288,0.183413 -0.23848,0.199572 -0.0596,0.378495 l 0.64485,0.503973 c 0.189,0.158348 0.2775,0.06545 0.39096,0.03495 0.26298,-0.280908 0.37726,-0.22725 0.48199,-0.152092 l 2.74848,2.748934 c 0.20194,0.11343 0.28129,0.260295 0.0419,0.49409 l -0.64955,0.649924 -0.63303,0.63303 c -0.19696,0.132308 -0.36242,0.07556 -0.51939,-0.03208 l -2.71848,-2.718482 c -0.041,-0.128237 -0.12109,-0.239767 0.10894,-0.484181 0.11988,-0.166482 0.18853,-0.386545 0.0264,-0.512734 l -0.50639,-0.506387 c -0.15346,-0.115632 -0.27588,-0.07607 -0.38932,0.0084 -1.80239,1.602791 -4.13112,2.494706 -6.54953,2.501794 -1.6618,-0.0097 -3.291456,-0.437542 -4.740122,-1.240215 -0.19974,-0.06431 -0.48304,-0.323585 -0.45748,0.13781 v 24.460666 c 0,3.51437 2.828912,6.3438 6.343272,6.3438 h 32.11277 c 3.51436,0 6.3438,-2.82943 6.3438,-6.3438"
         id="path22"
         sodipodi:nodetypes="ccccccccccccccccccccccccsssc" />
      <path
         id="path23"
         style="fill:none;fill-rule:evenodd;stroke:#00ffff;stroke-width:0.2;stroke-opacity:1"
         d="m 102.73746,91.024523 c 0.55228,0 0.99999,0.447712 1,0.999994 0,0.552285 -0.44772,1 -1,1 -0.55229,0 -1,-0.447715 -1,-1 0,-0.552282 0.44771,-0.999994 1,-0.999994 z m 35.10882,0.999994 c 0,0.552285 -0.44771,1 -1,1 -0.55228,0 -1,-0.447715 -1,-1 1e-5,-0.552282 0.44772,-0.999994 1,-0.999994 0.55229,0 1,0.447712 1,0.999994 z m 0,-34.108825 c 0,0.552284 -0.44771,1 -1,1 -0.55228,0 -1,-0.447716 -1,-1 0,-0.552285 0.44772,-1 1,-1 0.55229,0 1,0.447715 1,1 z" />
    </g>
    <g
       id="g26"
       transform="matrix(1,0,0,-1,-87.80043,245.24999)">
      <path
         style="fill:none;fill-rule:evenodd;stroke:#ff0000;stroke-width:0.2;stroke-opacity:1"
         d="m 135.84807,97.370301 c 3.51436,0 6.3438,-2.82943 6.3438,-6.3438 V 58.913726 c 0,-3.514362 -2.82944,-6.343282 -6.3438,-6.343282 h -24.23558 c -0.35393,0.0066 -0.42592,0.182324 -0.3783,0.429833 h 2e-5 c 0.81259,1.455563 1.24582,3.095402 1.2556,4.767782 -0.003,2.327208 -0.82606,4.575402 -2.31841,6.352547 -0.16288,0.183413 -0.23848,0.199572 -0.0596,0.378495 l 0.64485,0.503973 c 0.189,0.158348 0.2775,0.06545 0.39096,0.03495 0.26298,-0.280908 0.37726,-0.22725 0.48199,-0.152092 l 2.74848,2.748934 c 0.20194,0.11343 0.28129,0.260295 0.0419,0.49409 l -0.64955,0.649924 -0.63303,0.63303 c -0.19696,0.132308 -0.36242,0.07556 -0.51939,-0.03208 l -2.71848,-2.718482 c -0.041,-0.128237 -0.12109,-0.239767 0.10894,-0.484181 0.11988,-0.166482 0.18853,-0.386545 0.0264,-0.512734 l -0.50639,-0.506387 c -0.15346,-0.115632 -0.27588,-0.07607 -0.38932,0.0084 -1.80239,1.602791 -4.13112,2.494706 -6.54953,2.501794 -1.6618,-0.0097 -3.291456,-0.437542 -4.740122,-1.240215 -0.19974,-0.06431 -0.48304,-0.323585 -0.45748,0.13781 v 24.460666 c 0,3.51437 2.828912,6.3438 6.343272,6.3438"
         id="path24"
         sodipodi:nodetypes="cssscsscccccccccccccccccccsc" />
      <path
         id="path26"
         style="fill:none;fill-rule:evenodd;stroke:#00ffff;stroke-width:0.2;stroke-opacity:1"
         d="m 102.73746,91.024523 c 0.55228,0 0.99999,0.447712 1,0.999994 0,0.552285 -0.44772,1 -1,1 -0.55229,0 -1,-0.447715 -1,-1 0,-0.552282 0.44771,-0.999994 1,-0.999994 z m 35.10882,0.999994 c 0,0.552285 -0.44771,1 -1,1 -0.55228,0 -1,-0.447715 -1,-1 1e-5,-0.552282 0.44772,-0.999994 1,-0.999994 0.55229,0 1,0.447712 1,0.999994 z m 0,-34.108825 c 0,0.552284 -0.44771,1 -1,1 -0.55228,0 -1,-0.447716 -1,-1 0,-0.552285 0.44772,-1 1,-1 0.55229,0 1,0.447715 1,1 z" />
    </g>
    <g
       id="g28"
       transform="rotate(180,98.291653,122.625)">
      <path
         style="fill:none;fill-rule:evenodd;stroke:#ff0000;stroke-width:0.2;stroke-opacity:1"
         d="m 142.19187,58.913726 c 0,-3.514362 -2.82944,-6.343282 -6.3438,-6.343282 h -24.23558 c -0.35393,0.0066 -0.42592,0.182324 -0.3783,0.429833 h 2e-5 c 0.81259,1.455563 1.24582,3.095402 1.2556,4.767782 -0.003,2.327208 -0.82606,4.575402 -2.31841,6.352547 -0.16288,0.183413 -0.23848,0.199572 -0.0596,0.378495 l 0.64485,0.503973 c 0.189,0.158348 0.2775,0.06545 0.39096,0.03495 0.26298,-0.280908 0.37726,-0.22725 0.48199,-0.152092 l 2.74848,2.748934 c 0.20194,0.11343 0.28129,0.260295 0.0419,0.49409 l -0.64955,0.649924 -0.63303,0.63303 c -0.19696,0.132308 -0.36242,0.07556 -0.51939,-0.03208 l -2.71848,-2.718482 c -0.041,-0.128237 -0.12109,-0.239767 0.10894,-0.484181 0.11988,-0.166482 0.18853,-0.386545 0.0264,-0.512734 l -0.50639,-0.506387 c -0.15346,-0.115632 -0.27588,-0.07607 -0.38932,0.0084 -1.80239,1.602791 -4.13112,2.494706 -6.54953,2.501794 -1.6618,-0.0097 -3.291456,-0.437542 -4.740122,-1.240215 -0.19974,-0.06431 -0.48304,-0.323585 -0.45748,0.13781 v 24.460666 c 0,3.51437 2.828912,6.3438 6.343272,6.3438 m 32.11277,0 c 3.51436,0 6.3438,-2.82943 6.3438,-6.3438"
         id="path27"
         sodipodi:nodetypes="csccccccccccccccccccccccsccc" />
      <path
         id="path28"
         style="fill:none;fill-rule:evenodd;stroke:#00ffff;stroke-width:0.2;stroke-opacity:1"
         d="m 102.73746,91.024523 c 0.55228,0 0.99999,0.447712 1,0.999994 0,0.552285 -0.44772,1 -1,1 -0.55229,0 -1,-0.447715 -1,-1 0,-0.552282 0.44771,-0.999994 1,-0.999994 z m 35.10882,0.999994 c 0,0.552285 -0.44771,1 -1,1 -0.55228,0 -1,-0.447715 -1,-1 1e-5,-0.552282 0.44772,-0.999994 1,-0.999994 0.55229,0 1,0.447712 1,0.999994 z m 0,-34.108825 c 0,0.552284 -0.44771,1 -1,1 -0.55228,0 -1,-0.447716 -1,-1 0,-0.552285 0.44772,-1 1,-1 0.55229,0 1,0.447715 1,1 z" />
    </g>
    <g
       id="g30"
       transform="matrix(1,0,0,-1,1.7992499,245.24999)">
      <path
         style="fill:none;fill-rule:evenodd;stroke:#ff0000;stroke-width:0.2;stroke-opacity:1"
         d="m 97.392028,91.026501 c 0,3.51437 2.828912,6.3438 6.343272,6.3438 m 32.11277,0 c 3.51436,0 6.3438,-2.82943 6.3438,-6.3438 V 58.913726 c 0,-3.514362 -2.82944,-6.343282 -6.3438,-6.343282 h -24.23558 c -0.35393,0.0066 -0.42592,0.182324 -0.3783,0.429833 h 2e-5 c 0.81259,1.455563 1.24582,3.095402 1.2556,4.767782 -0.003,2.327208 -0.82606,4.575402 -2.31841,6.352547 -0.16288,0.183413 -0.23848,0.199572 -0.0596,0.378495 l 0.64485,0.503973 c 0.189,0.158348 0.2775,0.06545 0.39096,0.03495 0.26298,-0.280908 0.37726,-0.22725 0.48199,-0.152092 l 2.74848,2.748934 c 0.20194,0.11343 0.28129,0.260295 0.0419,0.49409 l -0.64955,0.649924 -0.63303,0.63303 c -0.19696,0.132308 -0.36242,0.07556 -0.51939,-0.03208 l -2.71848,-2.718482 c -0.041,-0.128237 -0.12109,-0.239767 0.10894,-0.484181 0.11988,-0.166482 0.18853,-0.386545 0.0264,-0.512734 l -0.50639,-0.506387 c -0.15346,-0.115632 -0.27588,-0.07607 -0.38932,0.0084 -1.80239,1.602791 -4.13112,2.494706 -6.54953,2.501794 -1.6618,-0.0097 -3.291456,-0.437542 -4.740122,-1.240215 -0.19974,-0.06431 -0.48304,-0.323585 -0.45748,0.13781"
         id="path29"
         sodipodi:nodetypes="cccssscssccccccccccccccccccc" />
      <path
         id="path30"
         style="fill:none;fill-rule:evenodd;stroke:#00ffff;stroke-width:0.2;stroke-opacity:1"
         d="m 102.73746,91.024523 c 0.55228,0 0.99999,0.447712 1,0.999994 0,0.552285 -0.44772,1 -1,1 -0.55229,0 -1,-0.447715 -1,-1 0,-0.552282 0.44771,-0.999994 1,-0.999994 z m 35.10882,0.999994 c 0,0.552285 -0.44771,1 -1,1 -0.55228,0 -1,-0.447715 -1,-1 1e-5,-0.552282 0.44772,-0.999994 1,-0.999994 0.55229,0 1,0.447712 1,0.999994 z m 0,-34.108825 c 0,0.552284 -0.44771,1 -1,1 -0.55228,0 -1,-0.447716 -1,-1 0,-0.552285 0.44772,-1 1,-1 0.55229,0 1,0.447715 1,1 z" />
    </g>
    <g
       id="g32"
       transform="rotate(180,143.09149,122.625)">
      <path
         style="fill:none;fill-rule:evenodd;stroke:#ff0000;stroke-width:0.2;stroke-opacity:1"
         d="m 142.19187,58.913726 c 0,-3.514362 -2.82944,-6.343282 -6.3438,-6.343282 h -24.23558 c -0.35393,0.0066 -0.42592,0.182324 -0.3783,0.429833 h 2e-5 c 0.81259,1.455563 1.24582,3.095402 1.2556,4.767782 -0.003,2.327208 -0.82606,4.575402 -2.31841,6.352547 -0.16288,0.183413 -0.23848,0.199572 -0.0596,0.378495 l 0.64485,0.503973 c 0.189,0.158348 0.2775,0.06545 0.39096,0.03495 0.26298,-0.280908 0.37726,-0.22725 0.48199,-0.152092 l 2.74848,2.748934 c 0.20194,0.11343 0.28129,0.260295 0.0419,0.49409 l -0.64955,0.649924 -0.63303,0.63303 c -0.19696,0.132308 -0.36242,0.07556 -0.51939,-0.03208 l -2.71848,-2.718482 c -0.041,-0.128237 -0.12109,-0.239767 0.10894,-0.484181 0.11988,-0.166482 0.18853,-0.386545 0.0264,-0.512734 l -0.50639,-0.506387 c -0.15346,-0.115632 -0.27588,-0.07607 -0.38932,0.0084 -1.80239,1.602791 -4.13112,2.494706 -6.54953,2.501794 -1.6618,-0.0097 -3.291456,-0.437542 -4.740122,-1.240215 -0.19974,-0.06431 -0.48304,-0.323585 -0.45748,0.13781 v 24.460666 c 0,3.51437 2.828912,6.3438 6.343272,6.3438 m 32.11277,0 c 3.51436,0 6.3438,-2.82943 6.3438,-6.3438"
         id="path31"
         sodipodi:nodetypes="csccccccccccccccccccccccsccc" />
      <path
         id="path32"
         style="fill:none;fill-rule:evenodd;stroke:#00ffff;stroke-width:0.2;stroke-opacity:1"
         d="m 102.73746,91.024523 c 0.55228,0 0.99999,0.447712 1,0.999994 0,0.552285 -0.44772,1 -1,1 -0.55229,0 -1,-0.447715 -1,-1 0,-0.552282 0.44771,-0.999994 1,-0.999994 z m 35.10882,0.999994 c 0,0.552285 -0.44771,1 -1,1 -0.55228,0 -1,-0.447715 -1,-1 1e-5,-0.552282 0.44772,-0.999994 1,-0.999994 0.55229,0 1,0.447712 1,0.999994 z m 0,-34.108825 c 0,0.552284 -0.44771,1 -1,1 -0.55228,0 -1,-0.447716 -1,-1 0,-0.552285 0.44772,-1 1,-1 0.55229,0 1,0.447715 1,1 z" />
    </g>
    <g
       id="g34"
       transform="translate(-87.80043,140.30911)">
      <path
         style="fill:none;fill-rule:evenodd;stroke:#ff0000;stroke-width:0.2;stroke-opacity:1"
         d="m 111.61249,52.570444 c -0.35393,0.0066 -0.42592,0.182324 -0.3783,0.429833 h 2e-5 c 0.81259,1.455563 1.24582,3.095402 1.2556,4.767782 -0.003,2.327208 -0.82606,4.575402 -2.31841,6.352547 -0.16288,0.183413 -0.23848,0.199572 -0.0596,0.378495 l 0.64485,0.503973 c 0.189,0.158348 0.2775,0.06545 0.39096,0.03495 0.26298,-0.280908 0.37726,-0.22725 0.48199,-0.152092 l 2.74848,2.748934 c 0.20194,0.11343 0.28129,0.260295 0.0419,0.49409 l -0.64955,0.649924 -0.63303,0.63303 c -0.19696,0.132308 -0.36242,0.07556 -0.51939,-0.03208 l -2.71848,-2.718482 c -0.041,-0.128237 -0.12109,-0.239767 0.10894,-0.484181 0.11988,-0.166482 0.18853,-0.386545 0.0264,-0.512734 l -0.50639,-0.506387 c -0.15346,-0.115632 -0.27588,-0.07607 -0.38932,0.0084 -1.80239,1.602791 -4.13112,2.494706 -6.54953,2.501794 -1.6618,-0.0097 -3.291456,-0.437542 -4.740122,-1.240215 -0.19974,-0.06431 -0.48304,-0.323585 -0.45748,0.13781 v 24.460666 c 0,3.51437 2.828912,6.3438 6.343272,6.3438 h 32.11277 c 3.51436,0 6.3438,-2.82943 6.3438,-6.3438 V 58.913726 c 0,-3.514362 -2.82944,-6.343282 -6.3438,-6.343282"
         id="path33"
         sodipodi:nodetypes="csscccccccccccccccccccsssssc" />
      <path
         id="path34"
         style="fill:none;fill-rule:evenodd;stroke:#00ffff;stroke-width:0.2;stroke-opacity:1"
         d="m 102.73746,91.024523 c 0.55228,0 0.99999,0.447712 1,0.999994 0,0.552285 -0.44772,1 -1,1 -0.55229,0 -1,-0.447715 -1,-1 0,-0.552282 0.44771,-0.999994 1,-0.999994 z m 35.10882,0.999994 c 0,0.552285 -0.44771,1 -1,1 -0.55228,0 -1,-0.447715 -1,-1 1e-5,-0.552282 0.44772,-0.999994 1,-0.999994 0.55229,0 1,0.447712 1,0.999994 z m 0,-34.108825 c 0,0.552284 -0.44771,1 -1,1 -0.55228,0 -1,-0.447716 -1,-1 0,-0.552285 0.44772,-1 1,-1 0.55229,0 1,0.447715 1,1 z" />
    </g>
    <g
       id="g36"
       transform="matrix(-1,0,0,1,196.58331,140.30911)">
      <path
         style="fill:none;fill-rule:evenodd;stroke:#ff0000;stroke-width:0.2;stroke-opacity:1"
         d="m 142.19187,58.913726 c 0,-3.514362 -2.82944,-6.343282 -6.3438,-6.343282 m -24.23558,0 c -0.35393,0.0066 -0.42592,0.182324 -0.3783,0.429833 h 2e-5 c 0.81259,1.455563 1.24582,3.095402 1.2556,4.767782 -0.003,2.327208 -0.82606,4.575402 -2.31841,6.352547 -0.16288,0.183413 -0.23848,0.199572 -0.0596,0.378495 l 0.64485,0.503973 c 0.189,0.158348 0.2775,0.06545 0.39096,0.03495 0.26298,-0.280908 0.37726,-0.22725 0.48199,-0.152092 l 2.74848,2.748934 c 0.20194,0.11343 0.28129,0.260295 0.0419,0.49409 l -0.64955,0.649924 -0.63303,0.63303 c -0.19696,0.132308 -0.36242,0.07556 -0.51939,-0.03208 l -2.71848,-2.718482 c -0.041,-0.128237 -0.12109,-0.239767 0.10894,-0.484181 0.11988,-0.166482 0.18853,-0.386545 0.0264,-0.512734 l -0.50639,-0.506387 c -0.15346,-0.115632 -0.27588,-0.07607 -0.38932,0.0084 -1.80239,1.602791 -4.13112,2.494706 -6.54953,2.501794 -1.6618,-0.0097 -3.291456,-0.437542 -4.740122,-1.240215 -0.19974,-0.06431 -0.48304,-0.323585 -0.45748,0.13781 v 24.460666 c 0,3.51437 2.828912,6.3438 6.343272,6.3438 h 32.11277 c 3.51436,0 6.3438,-2.82943 6.3438,-6.3438"
         id="path35"
         sodipodi:nodetypes="ccccccccccccccccccccccccsssc" />
      <path
         id="path36"
         style="fill:none;fill-rule:evenodd;stroke:#00ffff;stroke-width:0.2;stroke-opacity:1"
         d="m 102.73746,91.024523 c 0.55228,0 0.99999,0.447712 1,0.999994 0,0.552285 -0.44772,1 -1,1 -0.55229,0 -1,-0.447715 -1,-1 0,-0.552282 0.44771,-0.999994 1,-0.999994 z m 35.10882,0.999994 c 0,0.552285 -0.44771,1 -1,1 -0.55228,0 -1,-0.447715 -1,-1 1e-5,-0.552282 0.44772,-0.999994 1,-0.999994 0.55229,0 1,0.447712 1,0.999994 z m 0,-34.108825 c 0,0.552284 -0.44771,1 -1,1 -0.55228,0 -1,-0.447716 -1,-1 0,-0.552285 0.44772,-1 1,-1 0.55229,0 1,0.447715 1,1 z" />
    </g>
    <g
       id="g38"
       transform="translate(1.7992499,140.30911)">
      <path
         style="fill:none;fill-rule:evenodd;stroke:#ff0000;stroke-width:0.2;stroke-opacity:1"
         d="m 97.392028,91.026501 c 0,3.51437 2.828912,6.3438 6.343272,6.3438 h 32.11277 c 3.51436,0 6.3438,-2.82943 6.3438,-6.3438 V 58.913726 c 0,-3.514362 -2.82944,-6.343282 -6.3438,-6.343282 m -24.23558,0 c -0.35393,0.0066 -0.42592,0.182324 -0.3783,0.429833 h 2e-5 c 0.81259,1.455563 1.24582,3.095402 1.2556,4.767782 -0.003,2.327208 -0.82606,4.575402 -2.31841,6.352547 -0.16288,0.183413 -0.23848,0.199572 -0.0596,0.378495 l 0.64485,0.503973 c 0.189,0.158348 0.2775,0.06545 0.39096,0.03495 0.26298,-0.280908 0.37726,-0.22725 0.48199,-0.152092 l 2.74848,2.748934 c 0.20194,0.11343 0.28129,0.260295 0.0419,0.49409 l -0.64955,0.649924 -0.63303,0.63303 c -0.19696,0.132308 -0.36242,0.07556 -0.51939,-0.03208 l -2.71848,-2.718482 c -0.041,-0.128237 -0.12109,-0.239767 0.10894,-0.484181 0.11988,-0.166482 0.18853,-0.386545 0.0264,-0.512734 l -0.50639,-0.506387 c -0.15346,-0.115632 -0.27588,-0.07607 -0.38932,0.0084 -1.80239,1.602791 -4.13112,2.494706 -6.54953,2.501794 -1.6618,-0.0097 -3.291456,-0.437542 -4.740122,-1.240215 -0.19974,-0.06431 -0.48304,-0.323585 -0.45748,0.13781"
         id="path37"
         sodipodi:nodetypes="cssssccssccccccccccccccccccc" />
      <path
         id="path38"
         style="fill:none;fill-rule:evenodd;stroke:#00ffff;stroke-width:0.2;stroke-opacity:1"
         d="m 102.73746,91.024523 c 0.55228,0 0.99999,0.447712 1,0.999994 0,0.552285 -0.44772,1 -1,1 -0.55229,0 -1,-0.447715 -1,-1 0,-0.552282 0.44771,-0.999994 1,-0.999994 z m 35.10882,0.999994 c 0,0.552285 -0.44771,1 -1,1 -0.55228,0 -1,-0.447715 -1,-1 1e-5,-0.552282 0.44772,-0.999994 1,-0.999994 0.55229,0 1,0.447712 1,0.999994 z m 0,-34.108825 c 0,0.552284 -0.44771,1 -1,1 -0.55228,0 -1,-0.447716 -1,-1 0,-0.552285 0.44772,-1 1,-1 0.55229,0 1,0.447715 1,1 z" />
    </g>
    <g
       id="g40"
       transform="matrix(-1,0,0,1,286.18299,140.30911)">
      <path
         style="fill:none;fill-rule:evenodd;stroke:#ff0000;stroke-width:0.2;stroke-opacity:1"
         d="m 142.19187,58.913726 c 0,-3.514362 -2.82944,-6.343282 -6.3438,-6.343282 m -24.23558,0 c -0.35393,0.0066 -0.42592,0.182324 -0.3783,0.429833 h 2e-5 c 0.81259,1.455563 1.24582,3.095402 1.2556,4.767782 -0.003,2.327208 -0.82606,4.575402 -2.31841,6.352547 -0.16288,0.183413 -0.23848,0.199572 -0.0596,0.378495 l 0.64485,0.503973 c 0.189,0.158348 0.2775,0.06545 0.39096,0.03495 0.26298,-0.280908 0.37726,-0.22725 0.48199,-0.152092 l 2.74848,2.748934 c 0.20194,0.11343 0.28129,0.260295 0.0419,0.49409 l -0.64955,0.649924 -0.63303,0.63303 c -0.19696,0.132308 -0.36242,0.07556 -0.51939,-0.03208 l -2.71848,-2.718482 c -0.041,-0.128237 -0.12109,-0.239767 0.10894,-0.484181 0.11988,-0.166482 0.18853,-0.386545 0.0264,-0.512734 l -0.50639,-0.506387 c -0.15346,-0.115632 -0.27588,-0.07607 -0.38932,0.0084 -1.80239,1.602791 -4.13112,2.494706 -6.54953,2.501794 -1.6618,-0.0097 -3.291456,-0.437542 -4.740122,-1.240215 -0.19974,-0.06431 -0.48304,-0.323585 -0.45748,0.13781 v 24.460666 c 0,3.51437 2.828912,6.3438 6.343272,6.3438 h 32.11277 c 3.51436,0 6.3438,-2.82943 6.3438,-6.3438"
         id="path39"
         sodipodi:nodetypes="ccccccccccccccccccccccccsssc" />
      <path
         id="path40"
         style="fill:none;fill-rule:evenodd;stroke:#00ffff;stroke-width:0.2;stroke-opacity:1"
         d="m 102.73746,91.024523 c 0.55228,0 0.99999,0.447712 1,0.999994 0,0.552285 -0.44772,1 -1,1 -0.55229,0 -1,-0.447715 -1,-1 0,-0.552282 0.44771,-0.999994 1,-0.999994 z m 35.10882,0.999994 c 0,0.552285 -0.44771,1 -1,1 -0.55228,0 -1,-0.447715 -1,-1 1e-5,-0.552282 0.44772,-0.999994 1,-0.999994 0.55229,0 1,0.447712 1,0.999994 z m 0,-34.108825 c 0,0.552284 -0.44771,1 -1,1 -0.55228,0 -1,-0.447716 -1,-1 0,-0.552285 0.44772,-1 1,-1 0.55229,0 1,0.447715 1,1 z" />
    </g>
    <g
       id="g42"
       transform="matrix(1,0,0,-1,-87.80043,335.04971)">
      <path
         style="fill:none;fill-rule:evenodd;stroke:#ff0000;stroke-width:0.2;stroke-opacity:1"
         d="m 135.84807,97.370301 c 3.51436,0 6.3438,-2.82943 6.3438,-6.3438 V 58.913726 c 0,-3.514362 -2.82944,-6.343282 -6.3438,-6.343282 h -24.23558 c -0.35393,0.0066 -0.42592,0.182324 -0.3783,0.429833 h 2e-5 c 0.81259,1.455563 1.24582,3.095402 1.2556,4.767782 -0.003,2.327208 -0.82606,4.575402 -2.31841,6.352547 -0.16288,0.183413 -0.23848,0.199572 -0.0596,0.378495 l 0.64485,0.503973 c 0.189,0.158348 0.2775,0.06545 0.39096,0.03495 0.26298,-0.280908 0.37726,-0.22725 0.48199,-0.152092 l 2.74848,2.748934 c 0.20194,0.11343 0.28129,0.260295 0.0419,0.49409 l -0.64955,0.649924 -0.63303,0.63303 c -0.19696,0.132308 -0.36242,0.07556 -0.51939,-0.03208 l -2.71848,-2.718482 c -0.041,-0.128237 -0.12109,-0.239767 0.10894,-0.484181 0.11988,-0.166482 0.18853,-0.386545 0.0264,-0.512734 l -0.50639,-0.506387 c -0.15346,-0.115632 -0.27588,-0.07607 -0.38932,0.0084 -1.80239,1.602791 -4.13112,2.494706 -6.54953,2.501794 -1.6618,-0.0097 -3.291456,-0.437542 -4.740122,-1.240215 -0.19974,-0.06431 -0.48304,-0.323585 -0.45748,0.13781 v 24.460666 c 0,3.51437 2.828912,6.3438 6.343272,6.3438"
         id="path41"
         sodipodi:nodetypes="cssscsscccccccccccccccccccsc" />
      <path
         id="path42"
         style="fill:none;fill-rule:evenodd;stroke:#00ffff;stroke-width:0.2;stroke-opacity:1"
         d="m 102.73746,91.024523 c 0.55228,0 0.99999,0.447712 1,0.999994 0,0.552285 -0.44772,1 -1,1 -0.55229,0 -1,-0.447715 -1,-1 0,-0.552282 0.44771,-0.999994 1,-0.999994 z m 35.10882,0.999994 c 0,0.552285 -0.44771,1 -1,1 -0.55228,0 -1,-0.447715 -1,-1 1e-5,-0.552282 0.44772,-0.999994 1,-0.999994 0.55229,0 1,0.447712 1,0.999994 z m 0,-34.108825 c 0,0.552284 -0.44771,1 -1,1 -0.55228,0 -1,-0.447716 -1,-1 0,-0.552285 0.44772,-1 1,-1 0.55229,0 1,0.447715 1,1 z" />
    </g>
    <g
       id="g44"
       transform="rotate(180,98.291653,167.52486)">
      <path
         style="fill:none;fill-rule:evenodd;stroke:#ff0000;stroke-width:0.2;stroke-opacity:1"
         d="m 142.19187,58.913726 c 0,-3.514362 -2.82944,-6.343282 -6.3438,-6.343282 h -24.23558 c -0.35393,0.0066 -0.42592,0.182324 -0.3783,0.429833 h 2e-5 c 0.81259,1.455563 1.24582,3.095402 1.2556,4.767782 -0.003,2.327208 -0.82606,4.575402 -2.31841,6.352547 -0.16288,0.183413 -0.23848,0.199572 -0.0596,0.378495 l 0.64485,0.503973 c 0.189,0.158348 0.2775,0.06545 0.39096,0.03495 0.26298,-0.280908 0.37726,-0.22725 0.48199,-0.152092 l 2.74848,2.748934 c 0.20194,0.11343 0.28129,0.260295 0.0419,0.49409 l -0.64955,0.649924 -0.63303,0.63303 c -0.19696,0.132308 -0.36242,0.07556 -0.51939,-0.03208 l -2.71848,-2.718482 c -0.041,-0.128237 -0.12109,-0.239767 0.10894,-0.484181 0.11988,-0.166482 0.18853,-0.386545 0.0264,-0.512734 l -0.50639,-0.506387 c -0.15346,-0.115632 -0.27588,-0.07607 -0.38932,0.0084 -1.80239,1.602791 -4.13112,2.494706 -6.54953,2.501794 -1.6618,-0.0097 -3.291456,-0.437542 -4.740122,-1.240215 -0.19974,-0.06431 -0.48304,-0.323585 -0.45748,0.13781 v 24.460666 c 0,3.51437 2.828912,6.3438 6.343272,6.3438 m 32.11277,0 c 3.51436,0 6.3438,-2.82943 6.3438,-6.3438"
         id="path43"
         sodipodi:nodetypes="csccccccccccccccccccccccsccc" />
      <path
         id="path44"
         style="fill:none;fill-rule:evenodd;stroke:#00ffff;stroke-width:0.2;stroke-opacity:1"
         d="m 102.73746,91.024523 c 0.55228,0 0.99999,0.447712 1,0.999994 0,0.552285 -0.44772,1 -1,1 -0.55229,0 -1,-0.447715 -1,-1 0,-0.552282 0.44771,-0.999994 1,-0.999994 z m 35.10882,0.999994 c 0,0.552285 -0.44771,1 -1,1 -0.55228,0 -1,-0.447715 -1,-1 1e-5,-0.552282 0.44772,-0.999994 1,-0.999994 0.55229,0 1,0.447712 1,0.999994 z m 0,-34.108825 c 0,0.552284 -0.44771,1 -1,1 -0.55228,0 -1,-0.447716 -1,-1 0,-0.552285 0.44772,-1 1,-1 0.55229,0 1,0.447715 1,1 z" />
    </g>
    <g
       id="g46"
       transform="matrix(1,0,0,-1,1.7992499,335.04971)">
      <path
         style="fill:none;fill-rule:evenodd;stroke:#ff0000;stroke-width:0.2;stroke-opacity:1"
         d="m 97.392028,91.026501 c 0,3.51437 2.828912,6.3438 6.343272,6.3438 m 32.11277,0 c 3.51436,0 6.3438,-2.82943 6.3438,-6.3438 V 58.913726 c 0,-3.514362 -2.82944,-6.343282 -6.3438,-6.343282 h -24.23558 c -0.35393,0.0066 -0.42592,0.182324 -0.3783,0.429833 h 2e-5 c 0.81259,1.455563 1.24582,3.095402 1.2556,4.767782 -0.003,2.327208 -0.82606,4.575402 -2.31841,6.352547 -0.16288,0.183413 -0.23848,0.199572 -0.0596,0.378495 l 0.64485,0.503973 c 0.189,0.158348 0.2775,0.06545 0.39096,0.03495 0.26298,-0.280908 0.37726,-0.22725 0.48199,-0.152092 l 2.74848,2.748934 c 0.20194,0.11343 0.28129,0.260295 0.0419,0.49409 l -0.64955,0.649924 -0.63303,0.63303 c -0.19696,0.132308 -0.36242,0.07556 -0.51939,-0.03208 l -2.71848,-2.718482 c -0.041,-0.128237 -0.12109,-0.239767 0.10894,-0.484181 0.11988,-0.166482 0.18853,-0.386545 0.0264,-0.512734 l -0.50639,-0.506387 c -0.15346,-0.115632 -0.27588,-0.07607 -0.38932,0.0084 -1.80239,1.602791 -4.13112,2.494706 -6.54953,2.501794 -1.6618,-0.0097 -3.291456,-0.437542 -4.740122,-1.240215 -0.19974,-0.06431 -0.48304,-0.323585 -0.45748,0.13781"
         id="path45"
         sodipodi:nodetypes="cccssscssccccccccccccccccccc" />
      <path
         id="path46"
         style="fill:none;fill-rule:evenodd;stroke:#00ffff;stroke-width:0.2;stroke-opacity:1"
         d="m 102.73746,91.024523 c 0.55228,0 0.99999,0.447712 1,0.999994 0,0.552285 -0.44772,1 -1,1 -0.55229,0 -1,-0.447715 -1,-1 0,-0.552282 0.44771,-0.999994 1,-0.999994 z m 35.10882,0.999994 c 0,0.552285 -0.44771,1 -1,1 -0.55228,0 -1,-0.447715 -1,-1 1e-5,-0.552282 0.44772,-0.999994 1,-0.999994 0.55229,0 1,0.447712 1,0.999994 z m 0,-34.108825 c 0,0.552284 -0.44771,1 -1,1 -0.55228,0 -1,-0.447716 -1,-1 0,-0.552285 0.44772,-1 1,-1 0.55229,0 1,0.447715 1,1 z" />
    </g>
    <g
       id="g48"
       transform="rotate(180,143.09149,167.52486)">
      <path
         style="fill:none;fill-rule:evenodd;stroke:#ff0000;stroke-width:0.2;stroke-opacity:1"
         d="m 142.19187,58.913726 c 0,-3.514362 -2.82944,-6.343282 -6.3438,-6.343282 h -24.23558 c -0.35393,0.0066 -0.42592,0.182324 -0.3783,0.429833 h 2e-5 c 0.81259,1.455563 1.24582,3.095402 1.2556,4.767782 -0.003,2.327208 -0.82606,4.575402 -2.31841,6.352547 -0.16288,0.183413 -0.23848,0.199572 -0.0596,0.378495 l 0.64485,0.503973 c 0.189,0.158348 0.2775,0.06545 0.39096,0.03495 0.26298,-0.280908 0.37726,-0.22725 0.48199,-0.152092 l 2.74848,2.748934 c 0.20194,0.11343 0.28129,0.260295 0.0419,0.49409 l -0.64955,0.649924 -0.63303,0.63303 c -0.19696,0.132308 -0.36242,0.07556 -0.51939,-0.03208 l -2.71848,-2.718482 c -0.041,-0.128237 -0.12109,-0.239767 0.10894,-0.484181 0.11988,-0.166482 0.18853,-0.386545 0.0264,-0.512734 l -0.50639,-0.506387 c -0.15346,-0.115632 -0.27588,-0.07607 -0.38932,0.0084 -1.80239,1.602791 -4.13112,2.494706 -6.54953,2.501794 -1.6618,-0.0097 -3.291456,-0.437542 -4.740122,-1.240215 -0.19974,-0.06431 -0.48304,-0.323585 -0.45748,0.13781 v 24.460666 c 0,3.51437 2.828912,6.3438 6.343272,6.3438 m 32.11277,0 c 3.51436,0 6.3438,-2.82943 6.3438,-6.3438"
         id="path47"
         sodipodi:nodetypes="csccccccccccccccccccccccsccc" />
      <path
         id="path48"
         style="fill:none;fill-rule:evenodd;stroke:#00ffff;stroke-width:0.2;stroke-opacity:1"
         d="m 102.73746,91.024523 c 0.55228,0 0.99999,0.447712 1,0.999994 0,0.552285 -0.44772,1 -1,1 -0.55229,0 -1,-0.447715 -1,-1 0,-0.552282 0.44771,-0.999994 1,-0.999994 z m 35.10882,0.999994 c 0,0.552285 -0.44771,1 -1,1 -0.55228,0 -1,-0.447715 -1,-1 1e-5,-0.552282 0.44772,-0.999994 1,-0.999994 0.55229,0 1,0.447712 1,0.999994 z m 0,-34.108825 c 0,0.552284 -0.44771,1 -1,1 -0.55228,0 -1,-0.447716 -1,-1 0,-0.552285 0.44772,-1 1,-1 0.55229,0 1,0.447715 1,1 z" />
    </g>
  </g>
</svg>
