<?xml version="1.0" encoding="UTF-8" standalone="no"?>
<!-- Created with Inkscape (http://www.inkscape.org/) -->

<svg
   width="45.001835mm"
   height="44.999859mm"
   viewBox="0 0 45.001835 44.999859"
   version="1.1"
   id="svg1"
   inkscape:version="1.3 (0e150ed6c4, 2023-07-21)"
   sodipodi:docname="TranslucentLayerQty1.svg"
   xmlns:inkscape="http://www.inkscape.org/namespaces/inkscape"
   xmlns:sodipodi="http://sodipodi.sourceforge.net/DTD/sodipodi-0.dtd"
   xmlns="http://www.w3.org/2000/svg"
   xmlns:svg="http://www.w3.org/2000/svg">
  <sodipodi:namedview
     id="namedview1"
     pagecolor="#ffffff"
     bordercolor="#666666"
     borderopacity="1.0"
     inkscape:showpageshadow="2"
     inkscape:pageopacity="0.0"
     inkscape:pagecheckerboard="0"
     inkscape:deskcolor="#d1d1d1"
     inkscape:document-units="mm"
     inkscape:zoom="1.5471036"
     inkscape:cx="-71.423788"
     inkscape:cy="109.23638"
     inkscape:window-width="2560"
     inkscape:window-height="1387"
     inkscape:window-x="-8"
     inkscape:window-y="892"
     inkscape:window-maximized="1"
     inkscape:current-layer="layer1" />
  <defs
     id="defs1" />
  <g
     inkscape:label="Layer 1"
     inkscape:groupmode="layer"
     id="layer1"
     transform="translate(-131.66748,-110.72036)">
    <g
       id="g2"
       transform="translate(34.377442,58.249919)">
      <path
         style="fill:none;fill-rule:evenodd;stroke:#ff0000;stroke-width:0.2;stroke-opacity:1"
         d="m 111.23421,53.000277 c 0.81259,1.455563 1.24582,3.095402 1.2556,4.767782 -0.003,2.327208 -0.82606,4.575402 -2.31841,6.352547 -0.16288,0.183413 -0.23848,0.199572 -0.0596,0.378495 l 0.64485,0.503973 c 0.189,0.158348 0.2775,0.06545 0.39096,0.03495 0.26298,-0.280908 0.37726,-0.22725 0.48199,-0.152092 l 2.74848,2.748934 c 0.20194,0.11343 0.28129,0.260295 0.0419,0.49409 l -0.64955,0.649924 -0.63303,0.63303 c -0.19696,0.132308 -0.36242,0.07556 -0.51939,-0.03208 l -2.71848,-2.718482 c -0.041,-0.128237 -0.12109,-0.239767 0.10894,-0.484181 0.11988,-0.166482 0.18853,-0.386545 0.0264,-0.512734 l -0.50639,-0.506387 c -0.15346,-0.115632 -0.27588,-0.07607 -0.38932,0.0084 -1.80239,1.602791 -4.13112,2.494706 -6.54953,2.501794 -1.6618,-0.0097 -3.291456,-0.437542 -4.740122,-1.240215 -0.19974,-0.06431 -0.48304,-0.323585 -0.45748,0.13781 v 24.460666 c 0,3.51437 2.828912,6.3438 6.343272,6.3438 h 32.11277 c 3.51436,0 6.3438,-2.82943 6.3438,-6.3438 V 58.913726 c 0,-3.514362 -2.82944,-6.343282 -6.3438,-6.343282 h -24.23558 c -0.35393,0.0066 -0.42592,0.182324 -0.3783,0.429833 z"
         id="path25" />
      <path
         id="path10"
         style="fill:none;fill-rule:evenodd;stroke:#00ffff;stroke-width:0.2;stroke-opacity:1"
         d="m 102.73746,91.024523 c 0.55228,0 0.99999,0.447712 1,0.999994 0,0.552285 -0.44772,1 -1,1 -0.55229,0 -1,-0.447715 -1,-1 0,-0.552282 0.44771,-0.999994 1,-0.999994 z m 35.10882,0.999994 c 0,0.552285 -0.44771,1 -1,1 -0.55228,0 -1,-0.447715 -1,-1 1e-5,-0.552282 0.44772,-0.999994 1,-0.999994 0.55229,0 1,0.447712 1,0.999994 z m 0,-34.108825 c 0,0.552284 -0.44771,1 -1,1 -0.55228,0 -1,-0.447716 -1,-1 0,-0.552285 0.44772,-1 1,-1 0.55229,0 1,0.447715 1,1 z" />
    </g>
  </g>
</svg>
